Music_AfterTheRivalFight:
	channel_count 4
	channel 1, Music_AfterTheRivalFight_Ch1
	channel 2, Music_AfterTheRivalFight_Ch2
	channel 3, Music_AfterTheRivalFight_Ch3
	channel 4, Music_AfterTheRivalFight_Ch4
	
Music_AfterTheRivalFight_Ch1:
	tempo 213
	duty_cycle 1
	vibrato 8, 1, 5
	notetype 12, $a7 
	octave 3
.mainloop:
	octave 3
	note C_, 2
	note G_, 2
	octave 4
	note C_, 4
	octave 3
	note A#, 2
	note G_, 4
	octave 4
	note D#, 4
;Bar 2
	note C_, 2
	octave 3
	note G_, 2
	note A#, 6
	note __, 4
;Bar 3
	note C_, 2
	note G_, 2
	octave 4
	note C_, 4
	octave 3
	note A#, 2
	note G_, 4
	note A#, 4
;Bar 4
	note G_, 2
	note D#, 2
	note F_, 8
	note __, 2
;Bar 5
	octave 4
	note C_, 2
	octave 3
	note A#, 2
	note G_, 4
	note A#, 2
	octave 4
	note C_, 4
	note D#, 4
;Bar 6
	note C_, 2
	octave 3
	note G_, 2
	note A#, 8
	note __, 2
;Bar 7
	octave 4
	note D#, 2
	note C_, 2
	note D#, 2
	note F_, 2
	note F#, 4
	note F_, 2
	note F#, 2
;Bar 8
	note G_, 2
	note F#, 2
	note D#, 2
	note C_, 6
	note __, 4
;Bar 9
	octave 3
	note C_, 4
	octave 4
	note C_, 4
	octave 3
	note A#, 2
	note G_, 4
	octave 4
	note D#, 4
;Bar 10
	note C_, 4
	octave 3
	note A#, 8
	note __, 2
;Bar 11
	note C_, 4
	octave 4
	note C_, 4
	octave 3
	note A#, 2
	note G_, 4
	note A#, 4
;Bar 12
	note G_, 4
	note F_, 8
	note __, 2
;Bar 13
	octave 4
	note C_, 4
	octave 3
	note G_, 4
	note A#, 2
	octave 4
	note C_, 4
	note D#, 4
;Bar 14
	note C_, 4
	octave 3
	note A#, 8
	note __, 2
;Bar 15
	octave 4
	note D#, 2
	note C_, 2
	note D#, 2
	note F_, 2
	note F#, 4
	note F_, 4
;Bar 16
	note D#, 6
	note C_, 6
	note __, 4
;Bar 17
	octave 3
	note C_, 4
	octave 4
	note C_, 6
	octave 3
	note G_, 6
;Bar 18
	note A#, 6
	note G_, 8
	note __, 2
;Bar 19
	note C_, 4
	note A#, 6
	note G_, 6
;Bar 20
	note A#, 6
	note G_, 8
	note __, 2
;Bar 21
	note C_, 4
	octave 4
	note C_, 6
	octave 3
	note G_, 6
;Bar 22
	note A#, 6
	octave 4
	note C_, 8
	note __, 2
;Bar 23
	note D#, 4
	note C_, 4
	octave 3
	note A#, 4
	note G_, 4
;Bar 24
	note F_, 2
	note D#, 4
	note C_, 10
	sound_loop 0, .mainloop

Music_AfterTheRivalFight_Ch2:
	duty_cycle 0
	vibrato 8, 3, 6
	notetype 12, $a6
	octave 3
.mainloop:
	octave 3
	note C_, 2
	note __, 2
	note C_, 2
	note __, 2
	octave 2
	note A#, 2
	note A_, 2
	note __, 2
	octave 3
	note D#, 2
;Bar 2
	note __, 2
	octave 2
	note A#, 2
	note __, 2
	note A_, 2
	note A#, 2
	note __, 2
	octave 3
	note C_, 2
	note __, 2
;Bar 3
	note C_, 2
	note __, 2
	note C_, 2
	note __, 2
	octave 2
	note A#, 2
	note A_, 2
	note __, 2
	octave 3
	note D#, 2
;Bar 4
	note __, 2
	note F_, 2
	note __, 2
	note D#, 2
	note D_, 2
	note __, 2
	octave 2
	note A#, 2
	note __, 2
;Bar 5
	note A#, 2
	note __, 2
	note A#, 2
	note __, 2
	note A#, 2
	note G_, 2
	note A#, 2
	octave 3
	note C_, 2
;Bar 6
	note __, 2
	note C_, 2
	octave 2
	note A#, 2
	note __, 2
	note G_, 2
	note __, 2
	note A#, 2
	note __, 2
;Bar 7
	octave 3
	note C_, 2
	note __, 2
	note C_, 2
	octave 2
	note A#, 2
	octave 3
	note C_, 2
	note __, 2
	note C_, 2
	octave 2
	note A#, 2
;Bar 8
	octave 3
	note D#, 2
	note C_, 2
	octave 2
	note A#, 2
	octave 3
	note C_, 2
	note __, 2
	note C_, 2
	sound_loop 0, .mainloop


Music_AfterTheRivalFight_Ch3:
	note_type 12, 2, 5
	octave 2
.mainloop:
	octave 1
	note G_, 4
	note __, 4
	note F_, 4
	note __, 2
	note A#, 4
;Bar 2
	note F_, 4
	note __, 2
	note F_, 4
	note G_, 4
;Bar 3
	note __, 4
	note G_, 4
	note F_, 4
	note __, 2
	note A#, 4
;Bar 4
	note __, 4
	note A#, 4
	note __, 2
	note F_, 4
;Bar 5
	note __, 4
	note F_, 4
	note __, 2
	note D_, 4
	note G_, 4
;Bar 6
	note __, 2
	note F_, 4
	note __, 4
	note F_, 4
;Bar 7
	note G_, 4
	note __, 2
	note F_, 4
	note __, 2
	note G_, 4
;Bar 8
	note A#, 4
	note F_, 4
	note __, 2
	sound_loop 0, .mainloop

Music_AfterTheRivalFight_Ch4:
	toggle_noise 4
	drum_speed 12
.mainloop:
	drum_note 11, 4
	drum_note 11, 4
	drum_note 11, 4
	drum_note 11, 4
	sound_loop 0, .mainloop
	