Music_AzaleaTown:
	channel_count 4
	channel 1, Music_AzaleaTown_Ch1
	channel 2, Music_AzaleaTown_Ch2
	channel 3, Music_AzaleaTown_Ch3
	channel 4, Music_AzaleaTown_Ch4

Music_AzaleaTown_Ch1:
	tempo 153
	duty_cycle 1
	transpose 2, 0
	notetype 12, $a7
.mainloop:
	octave 3
	note A_, 4
	octave 4
	note C_, 4
	note F_, 4
	note D_, 6
;Bar 2
	note C_, 4
	note D_, 6
	note __, 4
;Bar 3
	note C_, 4
	note D_, 4
	note A_, 4
	note G_, 6
;Bar 4
	octave 5
	note C_, 4
	octave 4
	note A_, 6
	note __, 4
;Bar 5
	note G_, 4
	note F_, 4
	note G_, 4
	note F_, 6
;Bar 6
	note G_, 4
	note A_, 6
	note __, 4
;Bar 7
	note F_, 4
	note D_, 4
	note F_, 4
	note D_, 6
;Bar 8
	note C_, 4
	note D_, 6
	note __, 4
;Bar 9
	note G_, 2
	note __, 2
	note G_, 2
	note F_, 2
	note G_, 2
	note __, 2
	note G_, 2
	note F_, 2
;Bar 10
	note G_, 2
	note A_, 2
	note __, 2
	note G_, 6
	note __, 4
;Bar 11
	note F_, 2
	note G_, 2
	note F_, 2
	note D_, 2
	note F_, 2
	note G_, 2
	note F_, 2
	note D_, 10
;Bar 12
	note __, 8
;Bar 13
	note A_, 2
	note __, 2
	note A_, 2
	note G_, 2
	note A_, 2
	note __, 2
	note A_, 2
	note G_, 2
;Bar 14
	note A_, 2
	octave 5
	note C_, 2
	note __, 2
	note D_, 6
	note __, 4
;Bar 15
	note E_, 2
	note C_, 2
	octave 4
	note A_, 2
	octave 5
	note C_, 2
	note E_, 2
	note C_, 2
	octave 4
	note A_, 2
	octave 5
	note C_, 2
;Bar 16
	note D_, 2
	note __, 1
	note C_, 2
	note __, 1
	note D_, 6
	note __, 4
;Bar 17
	octave 3
	note A_, 4
	octave 4
	note C_, 4
	note F_, 4
	note D_, 6
;Bar 18
	note C_, 4
	note D_, 6
	note __, 4
;Bar 19
	note C_, 4
	note D_, 4
	note A_, 4
	note G_, 6
;Bar 20
	octave 5
	note C_, 4
	octave 4
	note A_, 6
	note __, 4
;Bar 21
	note G_, 4
	note F_, 4
	note G_, 4
	note F_, 6
;Bar 22
	note G_, 4
	note A_, 6
	note __, 4
;Bar 23
	note F_, 4
	note D_, 4
	note F_, 4
	note D_, 6
;Bar 24
	note C_, 4
	note D_, 6
	note __, 4
;Bar 25
	note G_, 2
	note __, 2
	note G_, 2
	note F_, 2
	note G_, 2
	note __, 2
	note G_, 2
	note F_, 2
;Bar 26
	note G_, 2
	note A_, 2
	note __, 2
	note G_, 6
	note __, 4
;Bar 27
	note F_, 2
	note G_, 2
	note F_, 2
	note D_, 2
	note F_, 2
	note G_, 2
	note F_, 2
	note A_, 10
;Bar 28
	note __, 8
;Bar 29
	note A_, 2
	note __, 2
	note A_, 2
	note G_, 2
	note A_, 2
	note __, 2
	note A_, 2
	note G_, 2
;Bar 30
	note A_, 2
	octave 5
	note C_, 2
	note __, 2
	note D_, 6
	note __, 4
;Bar 31
	note E_, 2
	note C_, 2
	octave 4
	note A_, 2
	octave 5
	note C_, 2
	note E_, 2
	note C_, 2
	octave 4
	note A_, 2
	octave 5
	note C_, 2
;Bar 32
	note D_, 2
	note __, 1
	note C_, 2
	note __, 1
	note D_, 6
	note __, 4
;Bar 33
	note D_, 6
	note C_, 4
	octave 4
	note A_, 6
;Bar 34
	note G_, 6
	note A_, 8
	note __, 2
;Bar 35
	note A_, 6
	octave 5
	note C_, 4
	octave 4
	note A_, 6
;Bar 36
	octave 5
	note E_, 6
	note C_, 8
	note __, 2
;Bar 37
	note D_, 6
	note C_, 4
	octave 4
	note A_, 6
;Bar 38
	note G_, 6
	note A_, 8
	note __, 2
;Bar 39
	note G_, 6
	note F_, 4
	note G_, 6
;Bar 40
	note F_, 2
	note __, 2
	note F_, 2
	note __, 2
	note D_, 8
	sound_loop 0, .mainloop

Music_AzaleaTown_Ch2:
	transpose 1, 0
	duty_cycle 1
	notetype 12, $a7
.mainloop:
	octave 2
	note A_, 2
	note __, 1
	note A_, 2
	note __, 1
	note A_, 2
	note A_, 2
	note __, 1
	note A_, 2
	note __, 1
	note A_, 2
;Bar 2
	note F_, 2
	note __, 1
	note F_, 2
	note __, 1
	note F_, 2
	note F_, 2
	note __, 1
	note F_, 2
	note __, 1
	note F_, 2
;Bar 3
	note G_, 2
	note __, 1
	note G_, 2
	note __, 1
	note G_, 2
	note G_, 2
	note __, 1
	note G_, 2
	note __, 1
	note G_, 2
;Bar 4
	octave 3
	note C_, 2
	note __, 1
	note C_, 2
	note __, 1
	note C_, 2
	octave 2
	note A_, 2
	note __, 1
	note A_, 2
	note __, 1
	note A_, 2
;Bar 5
	octave 3
	note D_, 2
	note __, 1
	note D_, 2
	note __, 1
	note D_, 2
	note D_, 2
	note __, 1
	note D_, 2
	note __, 1
	note D_, 2
;Bar 6
	note C_, 2
	note __, 1
	note C_, 2
	note __, 1
	note C_, 2
	note C_, 2
	note __, 1
	note C_, 2
	note __, 1
	note C_, 2
;Bar 7
	octave 2
	note G_, 2
	note __, 1
	note G_, 2
	note __, 1
	note G_, 2
	note A_, 2
	note __, 1
	note A_, 2
	note __, 1
	note A_, 2
;Bar 8
	note F_, 2
	note __, 1
	note F_, 2
	note __, 1
	note F_, 2
	note D_, 2
	note __, 1
	note D_, 2
	note __, 1
	sound_loop 0, .mainloop

Music_AzaleaTown_Ch3:
	note_type 12, 2, 5
.mainloop:
	octave 1
	note D_, 2
	octave 2
	note D_, 2
	octave 1
	note D_, 2
	note __, 2
	note C_, 2
	octave 2
	note C_, 2
	note __, 2
	octave 1
	note D_, 2
;Bar 2
	octave 2
	note F_, 2
	note __, 2
	octave 1
	note D_, 2
	octave 2
	note D_, 2
	octave 1
	note C_, 2
	octave 2
	note C_, 2
	octave 1
	note C_, 2
	note __, 2
;Bar 3
	note D_, 2
	octave 2
	note D_, 2
	octave 1
	note D_, 2
	note __, 2
	note C_, 2
	octave 2
	note C_, 2
	note __, 2
	octave 1
	note C_, 2
;Bar 4
	octave 2
	note D_, 2
	note __, 2
	octave 1
	note D_, 2
	note G_, 2
	note D_, 2
	note G_, 2
	note C_, 2
	octave 2
	note C_, 2
;Bar 5
	octave 1
	note D_, 2
	octave 2
	note D_, 2
	octave 1
	note D_, 2
	note __, 2
	note C_, 2
	octave 2
	note C_, 2
	note __, 2
	octave 1
	note D_, 2
;Bar 6
	octave 2
	note F_, 2
	note __, 2
	octave 1
	note D_, 2
	octave 2
	note D_, 2
	octave 1
	note C_, 2
	octave 2
	note C_, 2
	octave 1
	note C_, 2
	note A_, 2
;Bar 7
	note D_, 2
	octave 2
	note D_, 2
	octave 1
	note D_, 2
	note __, 2
	note C_, 2
	octave 2
	note C_, 2
	note __, 2
	octave 1
	note C_, 2
;Bar 8
	octave 2
	note D_, 2
	note __, 2
	octave 1
	note D_, 2
	note G_, 2
	note D_, 2
	note G_, 2
	note C_, 2
	sound_loop 0, .mainloop
	
Music_AzaleaTown_Ch4:
	toggle_noise 4
	drum_speed 12
.mainloop:
	drum_note 11, 2
	drum_note 8, 2
	drum_note 5, 2
	drum_note 8, 2	
	sound_loop 0, .mainloop
