Music_BattleTowerTheme:
	channel_count 4
	channel 1, Music_BattleTowerTheme_Ch1
	channel 2, Music_BattleTowerTheme_Ch2
	channel 3, Music_BattleTowerTheme_Ch3
	channel 4, Music_BattleTowerTheme_Ch4

Music_BattleTowerTheme_Ch1:
	tempo 195
	duty_cycle 0
	vibrato 18, 1, 5
	note_type 12, 11, 7
.mainloop:
	octave 3
	note A#, 1
	note __, 5
	note G#, 1
	note __, 3
	note F#, 1
	note __, 3
	note G#, 1
	note __, 3
;Bar 2
	note F_, 1
	note __, 1
	note F#, 1
	note __, 3
	note G#, 1
	note __, 3
	note C#, 1
	note __, 3
;Bar 3
	note G#, 1
	note __, 5
	note F#, 1
	note __, 3
	note F_, 1
	note __, 3
	note F#, 1
	note __, 3
;Bar 4
	note F_, 1
	note __, 1
	note F#, 1
	note __, 3
	note F_, 1
	note __, 3
	note C#, 1
	note __, 3
;Bar 5
	note D#, 2
	note C#, 2
	note D#, 2
	note F#, 4
	note G#, 2
	note F_, 6
;Bar 6
	note __, 2
	note D#, 2
	note C#, 2
	note D#, 2
	note F#, 4
	note G#, 6
;Bar 7
	note D#, 2
	note C#, 2
	note D#, 2
	note A#, 4
	note F_, 12
;Bar 8
	note __, 6
;Bar 9
	note D#, 2
	note C#, 2
	note D#, 2
	note F#, 4
	note G#, 2
	note F_, 6
;Bar 10
	note __, 2
	note D#, 2
	note F_, 2
	note A#, 2
	octave 4
	note C#, 4
	octave 3
	note A#, 6
;Bar 11
	note G#, 2
	note F#, 2
	note F_, 2
	octave 2
	note A#, 4
	octave 3
	note C#, 12
;Bar 12
	note __, 6
;Bar 13
	note D#, 6
	note C#, 2
	octave 2
	note A#, 4
	note G#, 4
;Bar 14
	octave 3
	note C#, 6
	octave 2
	note A#, 2
	note G#, 4
	note A#, 4
;Bar 15
	octave 3
	note D#, 6
	note C#, 2
	octave 2
	note A#, 4
	note G#, 4
;Bar 16
	octave 3
	note F_, 6
	note F#, 2
	note F_, 4
	note C#, 4
;Bar 17
	note D#, 1
	note D#, 1
	note __, 1
	note D#, 1
	note D#, 1
	note __, 1
	note D#, 1
	note D#, 1
	note __, 1
	note C#, 1
	note D#, 1
	note __, 1
	note C#, 1
	note __, 1
	octave 2
	note A#, 1
	note __, 1
;Bar 18
	octave 3
	note C#, 1
	note C#, 1
	note __, 1
	note C#, 1
	note C#, 1
	note __, 1
	note C#, 1
	note C#, 1
	note __, 1
	octave 2
	note A#, 1
	octave 3
	note C#, 1
	note __, 1
	octave 2
	note A#, 1
	note __, 1
	note G#, 1
	note __, 1
;Bar 19
	octave 3
	note D#, 1
	note D#, 1
	note __, 1
	note D#, 1
	note D#, 1
	note __, 1
	note D#, 1
	note D#, 1
	note __, 1
	note C#, 1
	note D#, 1
	note __, 1
	note C#, 1
	note __, 1
	octave 2
	note A#, 1
	note __, 1
;Bar 20
	octave 3
	note F_, 1
	note F#, 1
	note __, 1
	note F_, 1
	note F#, 1
	note __, 1
	note F_, 1
	note D#, 1
	note __, 1
	note D#, 1
	note C#, 1
	note __, 1
	octave 2
	note A#, 1
	note __, 1
	octave 3
	note C#, 2
	sound_loop 0, .mainloop
	
Music_BattleTowerTheme_Ch2:
	duty_cycle 0
	transpose 1,0
	vibrato 20, 3, 4
	note_type 12, 12, 3

.mainloop:
	octave 2
	note A#, 1
	note D#, 1
	note __, 1
	note D#, 1
	note A#, 1
	note __, 1
	note D#, 1
	note A#, 1
	note __, 1
	note D#, 1
	note A#, 1
	note __, 1
	note A#, 1
	note __, 1
	note D#, 1
	note __, 1
;Bar 2
	note G#, 1
	note C#, 1
	note __, 1
	note C#, 1
	note G#, 1
	note __, 1
	note C#, 1
	note G#, 1
	note __, 1
	note C#, 1
	note G#, 1
	note __, 1
	note G#, 1
	note __, 1
	note C#, 1
	note __, 1
;Bar 3
	note A#, 1
	note D#, 1
	note __, 1
	note D#, 1
	note A#, 1
	note __, 1
	note D#, 1
	note A#, 1
	note __, 1
	note D#, 1
	note A#, 1
	note __, 1
	note A#, 1
	note __, 1
	note D#, 1
	note __, 1
;Bar 4
	octave 3
	note C#, 1
	octave 2
	note F_, 1
	note __, 1
	note F_, 1
	octave 3
	note C#, 1
	note __, 1
	octave 2
	note F_, 1
	octave 3
	note C#, 1
	note __, 1
	octave 2
	note F_, 1
	octave 3
	note C#, 1
	note __, 1
	note C#, 1
	note __, 1
	octave 2
	note F_, 1
	note __, 1
;Bar 5
	note A#, 1
	note D#, 1
	note __, 1
	note D#, 1
	note A#, 1
	note __, 1
	note D#, 1
	note A#, 1
	note __, 1
	note D#, 1
	note A#, 1
	note __, 1
	note A#, 1
	note __, 1
	note D#, 1
	note __, 1
;Bar 6
	note G#, 1
	note C#, 1
	note __, 1
	note C#, 1
	note G#, 1
	note __, 1
	note C#, 1
	note G#, 1
	note __, 1
	note C#, 1
	note G#, 1
	note __, 1
	note G#, 1
	note __, 1
	note C#, 1
	note __, 1
;Bar 7
	note A#, 1
	note D#, 1
	note __, 1
	note D#, 1
	note A#, 1
	note __, 1
	note D#, 1
	note A#, 1
	note __, 1
	note D#, 1
	note A#, 1
	note __, 1
	note A#, 1
	note __, 1
	note D#, 1
	note __, 1
;Bar 8
	octave 3
	note C#, 1
	octave 2
	note F_, 1
	note __, 1
	note F_, 1
	octave 3
	note C#, 1
	note __, 1
	octave 2
	note F_, 1
	octave 3
	note C#, 1
	note __, 1
	octave 2
	note F_, 1
	octave 3
	note C#, 1
	note __, 1
	note C#, 1
	note __, 1
	octave 2
	note F_, 2
	sound_loop 0, .mainloop	

Music_BattleTowerTheme_Ch3:
	notetype 12, $a6
.mainloop:
	octave 2
	note D#, 8
	note C#, 8
;Bar 2
	note D#, 8
	note F_, 8
;Bar 3
	note D#, 8
	note C#, 8
;Bar 4
	note D#, 8
	note F_, 8
;Bar 5
	note D#, 8
	note C#, 8
;Bar 6
	note D#, 8
	note F_, 8
;Bar 7
	note D#, 8
	note C#, 8
;Bar 8
	note D#, 8
	note F_, 8
	sound_loop 0, .mainloop

Music_BattleTowerTheme_Ch4:
	toggle_noise 3
	drum_speed 12
.mainloop:
	drum_note 11, 2
	drum_note 8, 1
	drum_note 11, 1
	drum_note 3, 4
	drum_note 8, 2
	drum_note 11, 2
	drum_note 3, 2
	drum_note 11, 2

	sound_loop 0, .mainloop
