Music_BuenasPassword:
	channel_count 4
	channel 1, Music_BuenasPassword_Ch1
	channel 2, Music_BuenasPassword_Ch2
	channel 3, Music_BuenasPassword_Ch3
	channel 4, Music_BuenasPassword_Ch4

Music_BuenasPassword_Ch1:
	tempo 200
	transpose 1, 0
	duty_cycle 0
	vibrato 16, 2, 2
	notetype 12, $a7
.mainloop:
	octave 3
	note G#, 1
	note F#, 1
	note __, 1
	note C_, 1
	note __, 1
	note C#, 1
	note __, 1
	note F#, 1
	note __, 1
	note G#, 1
	note F#, 1
	note __, 1
	octave 4
	note C_, 1
	note __, 1
	octave 3
	note G#, 1
	note __, 1
;Bar 2
	octave 4
	note C_, 1
	note C#, 1
	note __, 1
	note C_, 1
	note __, 1
	octave 3
	note G#, 1
	note __, 1
	note F#, 1
	note __, 1
	note G#, 1
	note F#, 1
	note __, 1
	octave 4
	note C_, 1
	note __, 1
	octave 3
	note G#, 1
	note __, 1
;Bar 3
	note G#, 1
	note F#, 1
	note __, 1
	note C_, 1
	note __, 1
	note C#, 1
	note __, 1
	note F#, 1
	note __, 1
	note G#, 1
	note F#, 1
	note __, 1
	note G#, 1
	note __, 1
	note F#, 1
	note __, 1
;Bar 4
	octave 4
	note C#, 1
	note C_, 1
	note __, 1
	note C#, 1
	note __, 1
	octave 3
	note G#, 1
	note __, 1
	octave 4
	note D#, 1
	note __, 1
	note C#, 1
	note C_, 1
	note __, 1
	octave 3
	note F#, 1
	note __, 1
	note G#, 1
	note __, 1
;Bar 5
	note G#, 1
	note F#, 1
	note __, 1
	note C_, 1
	note __, 1
	note C#, 1
	note __, 1
	note F#, 1
	note __, 1
	note G#, 1
	note F#, 1
	note __, 1
	octave 4
	note C_, 1
	note __, 1
	octave 3
	note G#, 1
	note __, 1
;Bar 6
	octave 4
	note C_, 1
	note C#, 1
	note __, 1
	note C_, 1
	note __, 1
	octave 3
	note G#, 1
	note __, 1
	note F#, 1
	note __, 1
	note G#, 1
	note F#, 1
	note __, 1
	octave 4
	note C_, 1
	note __, 1
	octave 3
	note G#, 1
	note __, 1
;Bar 7
	note G#, 1
	note F#, 1
	note __, 1
	note C_, 1
	note __, 1
	note C#, 1
	note __, 1
	note F#, 1
	note __, 1
	note G#, 1
	note F#, 1
	note __, 1
	note G#, 1
	note __, 1
	note F#, 1
	note __, 1
;Bar 8
	octave 4
	note C#, 1
	note C_, 1
	note __, 1
	note C#, 1
	note __, 1
	octave 3
	note G#, 1
	note __, 1
	octave 4
	note D#, 1
	note __, 1
	note C#, 1
	note C_, 1
	note __, 1
	octave 3
	note F#, 1
	note __, 1
	note G#, 1
	note __, 1
;Bar 9
	note G#, 8
	note F#, 4
	note G#, 4
;Bar 10
	octave 4
	note C_, 8
	octave 3
	note G#, 8
;Bar 11
	octave 4
	note C_, 4
	note C#, 4
	note C_, 4
	octave 3
	note G#, 4
;Bar 12
	note F#, 8
	note G#, 8
	sound_loop 0, .mainloop

Music_BuenasPassword_Ch2:
	duty_cycle 1
	vibrato 28, 1, 2
	notetype 12, $a7
.mainloop:
	octave 2
	note G#, 1
	octave 1
	note G#, 1
	note __, 1
	octave 2
	note G#, 1
	octave 1
	note G#, 1
	note __, 1
	octave 2
	note G#, 1
	octave 1
	note G#, 1
	octave 2
	note F#, 1
	octave 1
	note F#, 1
	note __, 1
	octave 2
	note F#, 1
	octave 1
	note F#, 1
	note __, 1
	octave 2
	note F#, 1
	note __, 1
;Bar 2
	note C_, 1
	octave 1
	note C_, 1
	note __, 1
	octave 2
	note C_, 1
	octave 1
	note C_, 1
	note __, 1
	octave 2
	note C_, 1
	octave 1
	note C_, 1
	octave 2
	note C#, 1
	octave 1
	note C#, 1
	note __, 1
	octave 2
	note C#, 1
	octave 1
	note C#, 1
	note __, 1
	octave 2
	note C#, 1
	octave 1
	note C#, 1
;Bar 3
	octave 2
	note G#, 1
	octave 1
	note G#, 1
	note __, 1
	octave 2
	note G#, 1
	octave 1
	note G#, 1
	note __, 1
	octave 2
	note G#, 1
	octave 1
	note G#, 1
	octave 2
	note F#, 1
	octave 1
	note F#, 1
	note __, 1
	octave 2
	note F#, 1
	octave 1
	note F#, 1
	note __, 1
	octave 2
	note F#, 1
	note __, 1
;Bar 4
	note C_, 1
	octave 1
	note C_, 1
	note __, 1
	octave 2
	note C_, 1
	octave 1
	note C_, 1
	note __, 1
	octave 2
	note C_, 1
	octave 1
	note C_, 1
	octave 2
	note C#, 1
	octave 1
	note C#, 1
	note __, 1
	octave 2
	note C#, 1
	octave 1
	note C#, 1
	note __, 1
	octave 2
	note C#, 1
	octave 1
	note C#, 1
	sound_loop 0, .mainloop

Music_BuenasPassword_Ch3:
	notetype 12, $a6
.mainloop:
	octave 1
	note G#, 2
	note __, 1
	note G#, 2
	note __, 1
	note G#, 2
	octave 2
	note C_, 2
	note __, 1
	note C_, 2
	note __, 1
	note C_, 2
;Bar 2
	octave 1
	note F#, 2
	note __, 1
	note F#, 2
	note __, 1
	note F#, 2
	octave 2
	note C#, 2
	note __, 1
	note C#, 2
	note __, 1
	note C#, 2
;Bar 3
	octave 1
	note G#, 2
	note __, 1
	note G#, 2
	note __, 1
	note G#, 2
	octave 2
	note C_, 2
	note __, 1
	note C_, 2
	note __, 1
	note C_, 2
;Bar 4
	octave 1
	note F#, 2
	note __, 1
	note F#, 2
	note __, 1
	note F#, 2
	octave 2
	note C#, 2
	note __, 1
	note C#, 2
	note __, 1
	note C#, 2
	sound_loop 0, .mainloop

Music_BuenasPassword_Ch4:
	toggle_noise 3
	drum_speed 12
.mainloop:
	drum_note 11, 4
	sound_loop 0, .mainloop
