Music_CeladonCity:
	channel_count 4
	channel 1, Music_CeladonCity_Ch1
	channel 2, Music_CeladonCity_Ch2
	channel 3, Music_CeladonCity_Ch3
	channel 4, Music_CeladonCity_Ch4

Music_CeladonCity_Ch1:
	tempo 134
	duty_cycle 1
	transpose 1, 0
	vibrato 18, 1, 5
	note_type 12, 11, 7
.mainloop:
	octave 3
	note C_, 2
	octave 2
	note B_, 2
	octave 3
	note C_, 2
	note D_, 2
	note F#, 2
	note G_, 4
	note B_, 4
;Bar 2
	octave 4
	note C_, 2
	octave 3
	note A_, 2
	note G_, 2
	note B_, 4
	note A_, 4
;Bar 3
	note C_, 2
	octave 2
	note B_, 2
	octave 3
	note C_, 2
	note D_, 2
	note F#, 2
	note G_, 4
	octave 4
	note D_, 4
;Bar 4
	octave 3
	note B_, 2
	note A_, 2
	note G_, 2
	note B_, 4
	note A_, 4
;Bar 5
	octave 4
	note D_, 4
	note E_, 2
	note D_, 4
	octave 3
	note B_, 2
	note F#, 2
	note G_, 2
;Bar 6
	note B_, 4
	note A_, 2
	octave 4
	note D_, 4
	octave 3
	note B_, 6
;Bar 7
	note F#, 2
	note G_, 2
	note A_, 2
	note B_, 4
	octave 4
	note C_, 2
	octave 3
	note B_, 2
	note A_, 2
;Bar 8
	octave 4
	note D_, 2
	octave 3
	note B_, 2
	note A_, 2
	octave 4
	note D_, 4
	octave 3
	note B_, 6
;Bar 9
	note C_, 1
	note __, 1
	note G_, 1
	note __, 1
	note E_, 1
	note __, 1
	note D_, 1
	note __, 1
	note G_, 1
	note __, 1
	note E_, 1
	note __, 1
	note D_, 1
	note __, 1
	note A_, 3
;Bar 10
	note __, 1
	note G_, 1
	note __, 1
	note E_, 1
	note __, 1
	note G_, 1
	note __, 1
	note A_, 1
	note __, 1
	note G_, 1
	note __, 1
	note E_, 1
	note __, 1
	note G_, 1
	note __, 1
;Bar 11
	note C_, 1
	note __, 1
	note G_, 1
	note __, 1
	note E_, 1
	note __, 1
	note D_, 1
	note __, 1
	note G_, 1
	note __, 1
	note E_, 1
	note __, 1
	note D_, 1
	note __, 1
	note B_, 3
;Bar 12
	note __, 1
	octave 4
	note C_, 1
	note __, 1
	octave 3
	note B_, 1
	note __, 1
	note G_, 1
	note __, 1
	note B_, 1
	note __, 1
	note G_, 1
	note __, 1
	note E_, 1
	note __, 1
	note G_, 1
	note __, 1
;Bar 13
	note E_, 2
	note D_, 2
	octave 2
	note B_, 2
	octave 3
	note D_, 2
	note E_, 2
	note D_, 2
	octave 2
	note B_, 2
	octave 3
	note F#, 4
;Bar 14
	note G_, 2
	note D_, 2
	note E_, 2
	note D_, 8
;Bar 15
	note A_, 2
	note F#, 2
	note D_, 2
	note F#, 2
	note A_, 2
	note F#, 2
	note A_, 2
	note B_, 4
;Bar 16
	note A_, 2
	note G_, 2
	note F#, 2
	note G_, 4
	note F#, 4
;Bar 17
	note C_, 1
	note __, 1
	note G_, 1
	note __, 1
	note E_, 1
	note __, 1
	note D_, 1
	note __, 1
	note G_, 1
	note __, 1
	note E_, 1
	note __, 1
	note D_, 1
	note __, 1
	note A_, 3
;Bar 18
	note __, 1
	note G_, 1
	note __, 1
	note E_, 1
	note __, 1
	note G_, 1
	note __, 1
	note A_, 1
	note __, 1
	note G_, 1
	note __, 1
	note E_, 1
	note __, 1
	note G_, 1
	note __, 1
;Bar 19
	note C_, 1
	note __, 1
	note G_, 1
	note __, 1
	note E_, 1
	note __, 1
	note D_, 1
	note __, 1
	note G_, 1
	note __, 1
	note E_, 1
	note __, 1
	note D_, 1
	note __, 1
	note B_, 3
;Bar 20
	note __, 1
	octave 4
	note C_, 1
	note __, 1
	octave 3
	note B_, 1
	note __, 1
	note G_, 1
	note __, 1
	note B_, 1
	note __, 1
	note G_, 1
	note __, 1
	note E_, 1
	note __, 1
	note G_, 1
	note __, 1
;Bar 21
	octave 4
	note D_, 4
	note E_, 2
	note D_, 4
	octave 3
	note B_, 2
	note F#, 2
	note G_, 2
;Bar 22
	note B_, 4
	note A_, 2
	octave 4
	note D_, 4
	octave 3
	note B_, 6
;Bar 23
	note F#, 2
	note G_, 2
	note A_, 2
	note B_, 4
	octave 4
	note C_, 2
	octave 3
	note B_, 2
	note A_, 2
;Bar 24
	octave 4
	note D_, 2
	octave 3
	note B_, 2
	note A_, 2
	octave 4
	note D_, 4
	octave 3
	note B_, 6
;Bar 25
	octave 4
	note D_, 4
	note E_, 2
	note D_, 4
	octave 3
	note B_, 2
	note F#, 2
	note G_, 2
;Bar 26
	note B_, 4
	note A_, 2
	octave 4
	note D_, 4
	octave 3
	note B_, 6
;Bar 27
	note F#, 2
	note G_, 2
	note A_, 2
	note B_, 4
	octave 4
	note C_, 2
	octave 3
	note B_, 2
	note A_, 2
;Bar 28
	octave 4
	note D_, 2
	octave 3
	note B_, 2
	note A_, 2
	octave 4
	note D_, 4
	octave 3
	note B_, 6
	sound_loop 0, .mainloop
	
Music_CeladonCity_Ch2:
	duty_cycle 2
	vibrato 20, 3, 4
	note_type 12, 12, 3

.mainloop:
	octave 2
	note G_, 1
	note __, 3
	note C_, 1
	note __, 1
	note G_, 1
	note __, 3
	note C_, 1
	note __, 1
	note G_, 1
	note __, 1
	note C_, 1
	note __, 1
;Bar 2
	note F#, 1
	note __, 3
	octave 1
	note B_, 1
	note __, 1
	octave 2
	note F#, 1
	note __, 3
	octave 1
	note B_, 1
	note __, 1
	octave 2
	note F#, 1
	note __, 1
	octave 1
	note B_, 1
	note __, 1
;Bar 3
	octave 2
	note E_, 1
	note __, 3
	octave 1
	note G_, 1
	note __, 1
	octave 2
	note E_, 1
	note __, 3
	octave 1
	note G_, 1
	note __, 1
	octave 2
	note E_, 1
	note __, 1
	octave 1
	note G_, 1
	note __, 1
;Bar 4
	octave 2
	note G_, 1
	note __, 3
	octave 1
	note B_, 1
	note __, 1
	octave 2
	note G_, 1
	note __, 3
	octave 1
	note B_, 1
	note __, 1
	octave 2
	note G_, 1
	note __, 1
	octave 1
	note B_, 2
	sound_loop 0, .mainloop	

Music_CeladonCity_Ch3:
	notetype 12, $a6
.mainloop:
	octave 1
	note C_, 2
	note __, 2
	note G_, 2
	note __, 4
	note G_, 2
	note __, 2
	note G_, 2
;Bar 2
	note C_, 2
	note __, 2
	note F#, 2
	note __, 4
	note F#, 2
	note __, 2
	note F#, 2
;Bar 3
	note C_, 2
	note __, 2
	note G_, 2
	note __, 4
	note G_, 2
	note __, 2
	note G_, 2
;Bar 4
	note E_, 2
	note __, 2
	note B_, 2
	note __, 4
	note B_, 2
	note __, 2
	note B_, 2
	sound_loop 0, .mainloop

Music_CeladonCity_Ch4:
	toggle_noise 3
	drum_speed 12
.mainloop:
	drum_note 11, 3
	drum_note 11, 1
	drum_note 3, 3
	drum_note 11, 1
	drum_note 11, 3
	drum_note 11, 1
	drum_note 3, 3
	drum_note 11, 1

	sound_loop 0, .mainloop
