Music_CherrygroveCity:
	channel_count 4
	channel 1, Music_CherrygroveCity_Ch1
	channel 2, Music_CherrygroveCity_Ch2
	channel 3, Music_CherrygroveCity_Ch3
	channel 4, Music_CherrygroveCity_Ch4

Music_CherrygroveCity_Ch1:
	tempo 202
	volume $55
	duty_cycle 2
	notetype 12, $a7
	vibrato 1, 4, 4
.mainloop:
;Bar 1
	octave 3
	note C_, 1
	octave 2
	note G_, 1
	octave 3
	note E_, 2
	note G_, 4
	note F_, 1
	note E_, 1
	note D_, 4
	rest 2
;Bar 2
	note D_, 1
	note E_, 1
	note F_, 3
	rest 1
	note F_, 2
	note D_, 2
	note E_, 6
;Bar 3
	note C_, 1
	octave 2
	note G_, 1
	octave 3
	note E_, 2
	note G_, 4
	note F_, 1
	note E_, 1
	note D_, 4
	rest 2
;Bar 4
	note D_, 1
	note E_, 1
	note F_, 3
	rest 1
	note E_, 2
	note D_, 2
	note C_, 6
;Bar 5
	note C_, 1
	octave 2
	note B_, 1
	octave 3
	note C_, 2
	note E_, 4
	note D_, 2
	octave 2
	note G_, 4
	rest 2
;Bar 6
	octave 3
	note C_, 1
	octave 2
	note B_, 1
	note A_, 3
	note B_, 1
	note F_, 2
	note G_, 2
	note A_, 6
;Bar 7
	octave 3
	note C_, 1
	octave 2
	note B_, 1
	octave 3
	note C_, 2
	note E_, 4
	note D_, 2
	octave 2
	note G_, 4
	rest 2
;Bar 8
	octave 3
	note C_, 1
	octave 2
	note B_, 1
	note A_, 3
	note B_, 1
	note A_, 2
	note B_, 2
	octave 3
	note C_, 4
	rest 2
;Bar 9
	octave 2
	note G_, 1
	note D_, 1
	note B_, 2
	octave 3
	note D_, 4
	note C_, 1
	octave 2
	note B_, 1
	note A_, 4
	rest 2
;Bar 10
	note A_, 1
	note B_, 1
	octave 3
	note C_, 3
	rest 1
	note C_, 2
	octave 2
	note A_, 2
	note B_, 6
;Bar 11
	note G_, 1
	note D_, 1
	note B_, 2
	octave 3
	note D_, 4
	note C_, 1
	octave 2
	note B_, 1
	note A_, 4
	rest 2
;Bar 12
	note A_, 1
	note B_, 1
	octave 3
	note C_, 3
	rest 1
	octave 2
	note B_, 2
	note A_, 2
	note G_, 6
;Bar 13
	note G_, 1
	note F#, 1
	note G_, 2
	note B_, 4
	note A_, 2
	note D_, 4
	rest 2
;Bar 14
	note G_, 1
	note F#, 1
	note E_, 3
	note F#, 1
	note C_, 2
	note D_, 2
	note E_, 6
;Bar 15
	note G_, 1
	note F#, 1
	note G_, 2
	note B_, 4
	note A_, 2
	note D_, 4
	rest 2
;Bar 16
	note G_, 1
	note F#, 1
	note E_, 3
	note F#, 1
	note E_, 2
	note F#, 2
	note G_, 6
	sound_loop 0, .mainloop

Music_CherrygroveCity_Ch2:
	duty_cycle 0
	vibrato 18, 3, 6
	notetype 12, $a7
	volume $22
.mainloop:
;Bar 1
	octave 3
	note E_, 2
	note G_, 1
	note E_, 1
	note D_, 4
	note C_, 2
	note D_, 1
	note F_, 1
	note D_, 1
	note F_, 1
	note D_, 2
;Bar 2
	note D_, 2
	note F_, 1
	note A_, 1
	note D_, 1
	note F_, 1
	note A_, 2
	note F_, 2
	note G_, 2
	note G_, 2
	note G_, 2
;Bar 3
	note E_, 2
	note G_, 1
	note E_, 1
	note D_, 4
	note C_, 2
	note D_, 1
	note F_, 1
	note D_, 1
	note F_, 1
	note D_, 2
;Bar 4
	note D_, 2
	note F_, 1
	note A_, 1
	note D_, 1
	note F_, 1
	note A_, 2
	note F_, 2
	note G_, 2
	note G_, 2
	note G_, 2
;Bar 5
	note E_, 2
	note G_, 1
	note E_, 1
	note D_, 4
	note C_, 2
	note D_, 1
	octave 2
	note B_, 1
	octave 3
	note D_, 1
	octave 2
	note B_, 1
	octave 3
	note D_, 2
;Bar 6
	note D_, 2
	note F_, 1
	note A_, 1
	note D_, 1
	note F_, 1
	note A_, 2
	note D_, 2
	note A_, 2
	note F_, 2
	note A_, 2
;Bar 7
	note E_, 2
	note G_, 1
	note E_, 1
	note D_, 4
	note C_, 2
	note D_, 1
	octave 2
	note B_, 1
	octave 3
	note D_, 1
	octave 2
	note B_, 1
	octave 3
	note D_, 2
;Bar 8
	note D_, 2
	note F_, 1
	note A_, 1
	note D_, 1
	note F_, 1
	note A_, 2
	note D_, 2
	note A_, 2
	note F_, 2
	note A_, 2
;Bar 9
	octave 2
	note B_, 2
	octave 3
	note D_, 1
	octave 2
	note B_, 1
	note A_, 4
	note G_, 2
	note A_, 1
	octave 3
	note C_, 1
	octave 2
	note A_, 1
	octave 3
	note C_, 1
	octave 2
	note A_, 2
;Bar 10
	note A_, 2
	octave 3
	note C_, 1
	note E_, 1
	octave 2
	note A_, 1
	octave 3
	note C_, 1
	note E_, 2
	note C_, 2
	note D_, 2
	note D_, 2
	note D_, 2
;Bar 11
	octave 2
	note B_, 2
	octave 3
	note D_, 1
	octave 2
	note B_, 1
	note A_, 4
	note G_, 2
	note A_, 1
	octave 3
	note C_, 1
	octave 2
	note A_, 1
	octave 3
	note C_, 1
	octave 2
	note A_, 2
;Bar 12
	note A_, 2
	octave 3
	note C_, 1
	note E_, 1
	octave 2
	note A_, 1
	octave 3
	note C_, 1
	note E_, 2
	note C_, 2
	note D_, 2
	note D_, 2
	note D_, 2
;Bar 13
	octave 2
	note B_, 2
	octave 3
	note D_, 1
	octave 2
	note B_, 1
	note A_, 4
	note G_, 2
	note A_, 1
	note F#, 1
	note A_, 1
	note F#, 1
	note A_, 2
;Bar 14
	note A_, 2
	octave 3
	note C_, 1
	note E_, 1
	octave 2
	note A_, 1
	octave 3
	note C_, 1
	note E_, 2
	octave 2
	note A_, 2
	octave 3
	note E_, 2
	note C_, 2
	note E_, 2
;Bar 15
	octave 2
	note B_, 2
	octave 3
	note D_, 1
	octave 2
	note B_, 1
	note A_, 4
	note G_, 2
	note A_, 1
	note F#, 1
	note A_, 1
	note F#, 1
	note A_, 2
;Bar 16
	note A_, 2
	octave 3
	note C_, 1
	note E_, 1
	octave 2
	note A_, 1
	octave 3
	note C_, 1
	note E_, 2
	octave 2
	note A_, 2
	octave 3
	note E_, 2
	note C_, 2
	note E_, 2
	sound_loop 0, .mainloop

Music_CherrygroveCity_Ch3:
	note_type 12, 1, 6
	volume 1, 1
.mainloop:
;Bar 1
	octave 2
	note C_, 8
	note E_, 8
;Bar 2
	note D_, 8
	note E_, 8
;Bar 3
	note C_, 8
	note E_, 8
;Bar 4
	note D_, 8
	note C_, 8
;Bar 5
	note C_, 8
	octave 2
	note A_, 8
;Bar 6
	octave 2
	note C_, 8
	octave 2
	note G_, 8
;Bar 7
	octave 2
	note C_, 8
	octave 2
	note A_, 8
;Bar 8
	octave 2
	note C_, 8
	octave 2
	note A_, 8
;Bar 9
	note G_, 8
	note B_, 8
;Bar 10
	note A_, 8
	note B_, 8
;Bar 11
	note G_, 8
	note B_, 8
;Bar 12
	note A_, 8
	note G_, 8
;Bar 13
	note G_, 8
	note E_, 8
;Bar 14
	note G_, 8
	note D_, 8
;Bar 15
	note G_, 8
	note E_, 8
;Bar 16
	note G_, 8
	note E_, 8
	sound_loop 0, .mainloop

Music_CherrygroveCity_Ch4:
	volume $77
	toggle_noise 4
	drum_speed 12
.mainloop:
	drum_note 4, 3
	drum_note 4, 1
	drum_note 3, 2
	drum_note 4, 2
	drum_note 4, 3
	drum_note 4, 1
	drum_note 3, 4
	sound_loop 0, .mainloop
