Music_DancingHall:
	channel_count 4
	channel 1, Music_DancingHall_Ch1
	channel 2, Music_DancingHall_Ch2
	channel 3, Music_DancingHall_Ch3
	channel 4, Music_DancingHall_Ch4

Music_DancingHall_Ch1:
	tempo 147
	duty_cycle 2
	vibrato 18, 1, 5
	note_type 12, 11, 7
.mainloop:
	octave 3
	note C_, 4
	note A#, 4
	note C_, 4
	note A#, 4
;Bar 2
	note __, 4
	note F_, 4
	note __, 4
	note F_, 4
;Bar 3
	note C_, 4
	note A#, 4
	note C_, 4
	note A#, 4
;Bar 4
	note __, 4
	octave 4
	note C_, 4
	octave 3
	note A#, 4
	note __, 4
;Bar 5
	note C_, 4
	note A#, 4
	note C_, 4
	note A#, 4
;Bar 6
	note __, 4
	note F_, 4
	note __, 4
	note F_, 4
;Bar 7
	note C_, 4
	note A#, 4
	note C_, 4
	note A#, 4
;Bar 8
	note __, 4
	octave 4
	note C_, 4
	octave 3
	note A#, 4
	note __, 4
;Bar 9
	note C_, 1
	note __, 1
	note G_, 1
	note __, 1
	note A#, 1
	note __, 1
	note D#, 1
	note __, 1
	note F_, 1
	note __, 3
	note G_, 1
	note __, 1
	note F_, 1
	note __, 3
;Bar 10
	note D#, 1
	note __, 1
	note F_, 1
	note __, 3
	note A#, 1
	note __, 3
	note G_, 1
	note __, 3
;Bar 11
	note C_, 1
	note __, 1
	note G_, 1
	note __, 1
	note A#, 1
	note __, 1
	note G_, 1
	note __, 1
	note F_, 1
	note __, 3
	note D#, 1
	note __, 1
	note F_, 1
	note __, 3
;Bar 12
	note F_, 1
	note __, 1
	note D#, 1
	note __, 3
	note C_, 1
	note __, 3
	note D#, 1
	note __, 3
;Bar 13
	note C_, 1
	note __, 1
	note G_, 1
	note __, 1
	note A#, 1
	note __, 1
	note D#, 1
	note __, 1
	note F_, 1
	note __, 3
	note G_, 1
	note __, 1
	note F_, 1
	note __, 3
;Bar 14
	note D#, 1
	note __, 1
	note F_, 1
	note __, 3
	note A#, 1
	note __, 3
	note G_, 1
	note __, 3
;Bar 15
	note C_, 1
	note __, 1
	note G_, 1
	note __, 1
	note A#, 1
	note __, 1
	note G_, 1
	note __, 1
	note F_, 1
	note __, 3
	note D#, 1
	note __, 1
	note F_, 1
	note __, 3
;Bar 16
	note F_, 1
	note __, 1
	note D#, 1
	note __, 3
	note C_, 1
	note __, 3
	note D#, 1
	note __, 3
;Bar 17
	octave 4
	note C_, 1
	note __, 1
	note C_, 1
	note __, 1
	note C_, 1
	note __, 1
	note C_, 1
	note __, 1
	octave 3
	note A#, 1
	note __, 3
	note G_, 1
	note __, 1
	note A#, 1
	note __, 3
;Bar 18
	note F_, 1
	note __, 1
	note G_, 1
	note __, 3
	note G_, 1
	note __, 3
	note A#, 1
	note __, 3
;Bar 19
	note G_, 1
	note __, 1
	note G_, 1
	note __, 1
	note G_, 1
	note __, 1
	note G_, 1
	note __, 1
	note F_, 1
	note __, 3
	note D#, 1
	note __, 1
	note F_, 1
	note __, 3
;Bar 20
	note G_, 1
	note __, 1
	note F_, 1
	note __, 3
	note C_, 1
	note __, 3
	octave 2
	note A#, 1
	note __, 3
;Bar 21
	octave 4
	note C_, 1
	note __, 1
	note C_, 1
	note __, 1
	note C_, 1
	note __, 1
	note C_, 1
	note __, 1
	octave 3
	note A#, 1
	note __, 3
	note G_, 1
	note __, 1
	note A#, 1
	note __, 3
;Bar 22
	note F_, 1
	note __, 1
	note G_, 1
	note __, 3
	note G_, 1
	note __, 3
	note A#, 1
	note __, 3
;Bar 23
	note G_, 1
	note __, 1
	note G_, 1
	note __, 1
	note G_, 1
	note __, 1
	note G_, 1
	note __, 1
	note F_, 1
	note __, 3
	note D#, 1
	note __, 1
	note F_, 1
	note __, 3
;Bar 24
	note G_, 1
	note __, 1
	note F_, 1
	note __, 3
	note C_, 1
	note __, 3
	octave 2
	note A#, 1
	note __, 3
;Bar 25
	octave 3
	note C_, 8
	note D#, 4
	octave 2
	note A#, 8
;Bar 26
	octave 3
	note C_, 4
	octave 2
	note A#, 4
	octave 3
	note C_, 4
;Bar 27
	note F_, 8
	note A#, 4
	note G_, 12
;Bar 28
	note __, 8
;Bar 29
	note C_, 8
	note D#, 4
	octave 2
	note A#, 8
;Bar 30
	note A#, 4
	note G_, 4
	note A#, 4
;Bar 31
	octave 3
	note C_, 8
	octave 2
	note A#, 4
	octave 3
	note C_, 16
	note C_, 4
	sound_loop 0, .mainloop
	
Music_DancingHall_Ch2:
	duty_cycle 1
	vibrato 20, 3, 4
	note_type 12, 12, 3

.mainloop:
	octave 2
	note G_, 4
	note C_, 4
	note G_, 4
	note C_, 4
;Bar 2
	note F_, 4
	octave 1
	note A#, 4
	octave 2
	note F_, 4
	octave 1
	note A#, 4
;Bar 3
	octave 2
	note D#, 4
	note C_, 4
	note D#, 4
	note C_, 4
;Bar 4
	note D_, 4
	octave 1
	note A#, 4
	octave 2
	note D_, 4
	octave 1
	note A#, 4
	sound_loop 0, .mainloop	

Music_DancingHall_Ch3:
	notetype 12, $a6
.mainloop:
	octave 2
	note C_, 1
	note __, 1
	octave 3
	note C_, 1
	note __, 1
	octave 2
	note G_, 1
	note __, 1
	octave 1 ;WARNING: octave 1 isn't supported, won't work correctly
	note A#, 1
	note __, 1
	octave 2
	note A#, 1
	note __, 3
	note F_, 1
	note __, 1
	note G_, 1
	note __, 3
;Bar 2
	note A#, 1
	note __, 1
	note G_, 1
	note __, 3
	octave 3
	note C_, 1
	note __, 3
	octave 2
	note A#, 1
	note __, 3
;Bar 3
	note C_, 1
	note __, 1
	octave 3
	note C_, 1
	note __, 1
	octave 2
	note G_, 1
	note __, 1
	octave 1 ;WARNING: octave 1 isn't supported, won't work correctly
	note A#, 1
	note __, 1
	octave 2
	note A#, 1
	note __, 3
	note F_, 1
	note __, 1
	note G_, 1
	note __, 3
;Bar 4
	note G_, 1
	note __, 1
	note F_, 1
	note __, 3
	note G_, 1
	note __, 3
	note A#, 4
	sound_loop 0, .mainloop

Music_DancingHall_Ch4:
	toggle_noise 3
	drum_speed 12
.mainloop:
	drum_note 11, 1
	drum_note 8, 1
	drum_note 8, 1
	drum_note 8, 1
	
	drum_note 3, 1
	drum_note 8, 1
	drum_note 8, 1
	drum_note 8, 1

	sound_loop 0, .mainloop
