Music_DarkCave:
	channel_count 4
	channel 1, Music_DarkCave_Ch1
	channel 2, Music_DarkCave_Ch2
	channel 3, Music_DarkCave_Ch3
	channel 4, Music_DarkCave_Ch4
	
Music_DarkCave_Ch1:
	tempo 160
	duty_cycle 3
	vibrato 17, 1, 5
	note_type 12, 10, 7
.mainloop:
	octave 2
	note E_, 2
	note F#, 2
	note G_, 2
	note A_, 2
	note B_, 4
	note A_, 12
;Bar 2
	note __, 2
	note B_, 2
	note __, 2
	note B_, 2
;Bar 3
	note __, 2
	octave 3
	note D_, 2
	octave 2
	note B_, 2
	note A_, 2
	note B_, 16
	note B_, 5
;Bar 4
	note __, 3
;Bar 5
	note E_, 2
	note F#, 2
	note G_, 2
	note A_, 2
	note B_, 4
	note A_, 13
;Bar 6
	note __, 1
	note B_, 2
	note __, 2
	note B_, 2
;Bar 7
	note __, 2
	note A_, 2
	note F#, 2
	note G_, 2
	note F#, 16
	note F#, 5
;Bar 8
	note __, 3
;Bar 9
	octave 3
	note E_, 2
	note D_, 2
	octave 2
	note B_, 2
	octave 3
	note D_, 2
	note E_, 10
;Bar 10
	note F#, 4
	note G_, 4
	note F#, 4
	note D_, 16
	note D_, 10
;Bar 12
	note __, 8
;Bar 13
	octave 2
	note B_, 2
	note A_, 2
	note F#, 2
	note G_, 2
	note A_, 10
;Bar 14
	note F#, 4
	note E_, 4
	note D_, 4
	note E_, 16
	note E_, 14
;Bar 16
	note __, 4
;Bar 17
	note G_, 2
	note F#, 2
	note D_, 2
	octave 1
	note B_, 2
	octave 2
	note D_, 2
	note __, 2
	octave 1
	note B_, 2
	octave 2
	note D_, 2
;Bar 18
	note __, 2
	note E_, 2
	note D_, 2
	note __, 2
	note E_, 2
	note __, 2
	note D_, 2
	note __, 2
;Bar 19
	note F#, 2
	note D_, 2
	octave 1
	note B_, 2
	note A_, 2
	note B_, 2
	note __, 2
	note A_, 2
	note B_, 2
;Bar 20
	note __, 2
	octave 2
	note D_, 2
	octave 1
	note B_, 2
	octave 2
	note D_, 2
	note D_, 2
	note __, 2
	octave 1
	note B_, 2
	note __, 2
;Bar 21
	octave 2
	note G_, 2
	note F#, 2
	note D_, 2
	octave 1
	note B_, 2
	octave 2
	note D_, 2
	note __, 2
	octave 1
	note B_, 2
	octave 2
	note D_, 2
;Bar 22
	note __, 2
	note E_, 2
	note D_, 2
	note __, 2
	note E_, 2
	note __, 2
	note D_, 2
	note __, 2
;Bar 23
	note F#, 2
	note G_, 2
	note A_, 2
	note G_, 2
	note A_, 2
	note B_, 2
	note A_, 2
	note B_, 2
;Bar 24
	note __, 2
	octave 3
	note D_, 2
	octave 2
	note B_, 2
	octave 3
	note D_, 2
	note E_, 2
	note __, 2
	note D_, 2
	note __, 2
;Bar 25
	octave 2
	note E_, 6
	note G_, 2
	note B_, 12
;Bar 26
	note A_, 4
	note B_, 4
	octave 3
	note C_, 4
;Bar 27
	octave 2
	note B_, 6
	note A_, 2
	note F#, 16
	note F#, 8
;Bar 29
	note E_, 6
	note G_, 2
	note B_, 12
;Bar 30
	note A_, 4
	note B_, 4
	octave 3
	note C_, 4
;Bar 31
	note D_, 6
	note C_, 2
	octave 2
	note B_, 16
	note B_, 8
;Bar 33
	octave 3
	note E_, 6
	octave 2
	note B_, 2
	octave 3
	note D_, 12
;Bar 34
	note E_, 4
	note F#, 4
	note D_, 4
;Bar 35
	octave 2
	note B_, 16
	note B_, 16
;Bar 37
	note A_, 6
	note F#, 2
	note A_, 12
;Bar 38
	note F#, 4
	note G_, 4
	note F#, 4
;Bar 39
	note E_, 16
	note E_, 12
;Bar 40
	note __, 4
;Bar 41
	note G_, 2
	note F#, 2
	note D_, 2
	octave 1
	note B_, 2
	octave 2
	note D_, 2
	note __, 2
	octave 1
	note B_, 2
	octave 2
	note D_, 2
;Bar 42
	note __, 2
	note E_, 2
	note D_, 2
	note __, 2
	note E_, 2
	note __, 2
	note D_, 2
	note __, 2
;Bar 43
	note F#, 2
	note D_, 2
	octave 1
	note B_, 2
	note A_, 2
	note B_, 2
	note __, 2
	note A_, 2
	note B_, 2
;Bar 44
	note __, 2
	octave 2
	note D_, 2
	octave 1
	note B_, 2
	octave 2
	note D_, 2
	note D_, 2
	note __, 2
	octave 1
	note B_, 2
	note __, 2
;Bar 45
	octave 2
	note G_, 2
	note F#, 2
	note D_, 2
	octave 1
	note B_, 2
	octave 2
	note D_, 2
	note __, 2
	octave 1
	note B_, 2
	octave 2
	note D_, 2
;Bar 46
	note __, 2
	note E_, 2
	note D_, 2
	note __, 2
	note E_, 2
	note __, 2
	note D_, 2
	note __, 2
;Bar 47
	note F#, 2
	note G_, 2
	note A_, 2
	note G_, 2
	note A_, 2
	note B_, 2
	note A_, 2
	note B_, 2
;Bar 48
	note __, 2
	octave 3
	note D_, 2
	octave 2
	note B_, 2
	octave 3
	note D_, 2
	note E_, 2
	note __, 2
	note D_, 4
	sound_loop 0, .mainloop

Music_DarkCave_Ch2:
	duty_cycle 1
	vibrato 18, 3, 6
	note_type 12, 10, 7
.mainloop:
	octave 2
	note E_, 4
	octave 1
	note B_, 4
	octave 2
	note D_, 2
	note __, 2
	octave 1
	note B_, 2
	octave 2
	note D_, 16
;Bar 2
	note __, 2
;Bar 3
	note E_, 4
	octave 1
	note B_, 4
	octave 2
	note D_, 2
	note __, 2
	note G_, 2
	note F#, 16
	note F#, 2
;Bar 5
	note B_, 4
	note G_, 4
	note A_, 2
	note __, 2
	note G_, 2
	note A_, 16
;Bar 6
	note __, 2
;Bar 7
	note F#, 2
	note G_, 2
	note F#, 2
	note D_, 2
	note E_, 2
	note __, 2
	note D_, 2
	note E_, 14
;Bar 8
	note __, 4
;Bar 9
	note E_, 4
	octave 1
	note B_, 4
	octave 2
	note D_, 2
	note __, 2
	octave 1
	note B_, 2
	octave 2
	note D_, 16
;Bar 10
	note __, 2
;Bar 11
	note E_, 4
	octave 1
	note B_, 4
	octave 2
	note D_, 2
	note __, 2
	note G_, 2
	note F#, 16
	note F#, 2
;Bar 13
	note B_, 4
	note G_, 4
	note A_, 2
	note __, 2
	note G_, 2
	note A_, 16
;Bar 14
	note __, 2
;Bar 15
	note F#, 2
	note G_, 2
	note F#, 2
	note D_, 2
	note E_, 2
	note __, 2
	note D_, 2
	note E_, 14
;Bar 16
	note __, 4
;Bar 17
	note E_, 4
	octave 1
	note B_, 4
	octave 2
	note D_, 2
	note __, 2
	octave 1
	note B_, 2
	octave 2
	note D_, 16
;Bar 18
	note __, 2
;Bar 19
	note E_, 4
	octave 1
	note B_, 4
	octave 2
	note D_, 2
	note __, 2
	note G_, 2
	note F#, 16
	note F#, 2
;Bar 21
	note B_, 4
	note G_, 4
	note A_, 2
	note __, 2
	note G_, 2
	note A_, 16
;Bar 22
	note __, 2
;Bar 23
	note F#, 2
	note G_, 2
	note F#, 2
	note D_, 2
	note E_, 2
	note __, 2
	note D_, 2
	note E_, 14
;Bar 24
	note __, 4
;Bar 25
	note E_, 4
	octave 1
	note B_, 4
	octave 2
	note D_, 2
	note __, 2
	octave 1
	note B_, 2
	octave 2
	note D_, 16
;Bar 26
	note __, 2
;Bar 27
	note E_, 4
	octave 1
	note B_, 4
	octave 2
	note D_, 2
	note __, 2
	note G_, 2
	note F#, 16
	note F#, 2
;Bar 29
	note B_, 4
	note G_, 4
	note A_, 2
	note __, 2
	note G_, 2
	note A_, 16
;Bar 30
	note __, 2
;Bar 31
	note F#, 2
	note G_, 2
	note F#, 2
	note D_, 2
	note E_, 2
	note __, 2
	note D_, 2
	note E_, 14
;Bar 32
	note __, 4
;Bar 33
	note E_, 4
	octave 1
	note B_, 4
	octave 2
	note D_, 2
	note __, 2
	octave 1
	note B_, 2
	octave 2
	note D_, 16
;Bar 34
	note __, 2
;Bar 35
	note E_, 4
	octave 1
	note B_, 4
	octave 2
	note D_, 2
	note __, 2
	note G_, 2
	note F#, 16
	note F#, 2
;Bar 37
	note B_, 4
	note G_, 4
	note A_, 2
	note __, 2
	note G_, 2
	note A_, 16
;Bar 38
	note __, 2
;Bar 39
	note F#, 2
	note G_, 2
	note F#, 2
	note D_, 2
	note E_, 2
	note __, 2
	note D_, 2
	note E_, 14
;Bar 40
	note __, 4
;Bar 41
	note E_, 4
	octave 1
	note B_, 4
	octave 2
	note D_, 2
	note __, 2
	octave 1
	note B_, 2
	octave 2
	note D_, 16
;Bar 42
	note __, 2
;Bar 43
	note E_, 4
	octave 1
	note B_, 4
	octave 2
	note D_, 2
	note __, 2
	note G_, 2
	note F#, 16
	note F#, 2
;Bar 45
	note B_, 4
	note G_, 4
	note A_, 2
	note __, 2
	note G_, 2
	note A_, 16
;Bar 46
	note __, 2
;Bar 47
	note F#, 2
	note G_, 2
	note F#, 2
	note D_, 2
	note E_, 2
	note __, 2
	note D_, 2
	note E_, 16
	note E_, 2
	sound_loop 0, .mainloop


Music_DarkCave_Ch3:
	notetype 12, $a7
.mainloop:
	octave 1
	note E_, 16
	note E_, 16
;Bar 3
	note D_, 16
	note D_, 16
;Bar 5
	note E_, 16
	note E_, 16
;Bar 7
	note F#, 16
	note F#, 16
;Bar 9
	note B_, 16
	note B_, 16
;Bar 11
	note F#, 16
	note F#, 16
;Bar 13
	note D_, 16
	note D_, 16
;Bar 15
	note F#, 16
	note F#, 16
;Bar 17
	note E_, 16
	note E_, 16
;Bar 19
	note D_, 16
	note D_, 16
;Bar 21
	note E_, 16
	note E_, 16
;Bar 23
	note F#, 16
	note F#, 16
;Bar 25
	note B_, 16
	note B_, 16
;Bar 27
	note F#, 16
	note F#, 16
;Bar 29
	note D_, 16
	note D_, 16
;Bar 31
	note F#, 16
	note F#, 16
;Bar 33
	note E_, 16
	note E_, 16
;Bar 35
	note D_, 16
	note D_, 16
;Bar 37
	note E_, 16
	note E_, 16
;Bar 39
	note F#, 16
	note F#, 16
;Bar 41
	note B_, 16
	note B_, 16
;Bar 43
	note F#, 16
	note F#, 16
;Bar 45
	note D_, 16
	note D_, 16
;Bar 47
	note F#, 16
	note F#, 16
	sound_loop 0, .mainloop

Music_DarkCave_Ch4:
	volume $77
	toggle_noise 4
	drum_speed 12
.mainloop:
	drum_note 11, 4
	drum_note 11, 4
	drum_note 11, 4
	drum_note 11, 4
	sound_loop 0, .mainloop
	