Music_DragonsDen:
	channel_count 4
	channel 1, Music_DragonsDen_Ch1
	channel 2, Music_DragonsDen_Ch2
	channel 3, Music_DragonsDen_Ch3
	channel 4, Music_DragonsDen_Ch4

Music_DragonsDen_Ch1:
	tempo 192
	duty_cycle 1
	vibrato 16, 2, 2
	notetype 12, $a7
.mainloop:
	octave 3
	note C_, 2
	octave 2
	note A_, 6
	note F_, 2
	note G_, 4
	octave 3
	note C_, 4
;Bar 2
	octave 2
	note A_, 6
	note G_, 4
	note F_, 4
;Bar 3
	note D_, 4
	note F_, 4
	note G_, 2
	note F_, 4
	note G_, 6
;Bar 4
	note A_, 4
	note G_, 8
;Bar 5
	octave 3
	note E_, 2
	note F_, 6
	note E_, 2
	note C_, 6
;Bar 6
	note D_, 4
	octave 2
	note A_, 4
	octave 3
	note C_, 8
;Bar 7
	octave 2
	note A_, 2
	note G_, 2
	note F_, 2
	note D_, 2
	note G_, 2
	note F_, 2
	note D_, 2
	note C_, 2
;Bar 8
	note D_, 4
	note C_, 4
	note D_, 8
;Bar 9
	octave 3
	note D_, 2
	octave 2
	note A_, 4
	octave 3
	note D_, 4
	note F_, 4
	note E_, 4
;Bar 10
	note C_, 14
;Bar 11
	octave 2
	note A_, 2
	octave 3
	note C_, 4
	octave 2
	note A_, 4
	octave 3
	note D_, 4
	note C_, 16
	note C_, 2
;Bar 13
	note F_, 2
	note G_, 4
	note F_, 4
	note G_, 4
	note A_, 4
;Bar 14
	note G_, 14
;Bar 15
	note F_, 2
	note E_, 6
	note D_, 2
	note C_, 4
	note D_, 16
	note D_, 2
;Bar 17
	note D_, 2
	octave 2
	note A_, 4
	octave 3
	note D_, 4
	note F_, 4
	note E_, 4
;Bar 18
	note C_, 14
;Bar 19
	octave 2
	note A_, 2
	octave 3
	note C_, 4
	octave 2
	note A_, 4
	octave 3
	note D_, 4
	note C_, 16
	note C_, 2
;Bar 21
	note F_, 2
	note G_, 4
	note F_, 4
	note G_, 4
	note A_, 4
;Bar 22
	note G_, 14
;Bar 23
	note F_, 2
	note E_, 6
	note D_, 2
	note C_, 4
	note D_, 16
	note D_, 2
;Bar 25
	note D_, 4
	octave 2
	note A_, 6
	octave 3
	note D_, 2
	note F_, 4
;Bar 26
	note E_, 4
	note C_, 12
;Bar 27
	note D_, 4
	octave 2
	note A_, 6
	octave 3
	note D_, 2
	note F_, 4
;Bar 28
	note E_, 4
	note G_, 12
;Bar 29
	note D_, 4
	octave 2
	note A_, 6
	octave 3
	note D_, 2
	note F_, 4
;Bar 30
	note E_, 4
	note C_, 12
;Bar 31
	note D_, 4
	note F_, 6
	note G_, 2
	note A_, 4
;Bar 32
	note G_, 4
	note E_, 12
	sound_loop 0, .mainloop

Music_DragonsDen_Ch2:
	transpose 2, 0
	duty_cycle 0
	vibrato 28, 1, 2
	notetype 12, $a7
.mainloop:
	octave 4
	note D_, 8
	octave 3
	note A_, 16
;Bar 2
	octave 4
	note D_, 4
	note F_, 4
;Bar 3
	note E_, 8
	note C_, 16
	note C_, 8
;Bar 5
	note D_, 8
	octave 3
	note A_, 16
;Bar 6
	octave 4
	note D_, 4
	note F_, 4
;Bar 7
	note E_, 8
	note C_, 8
	sound_loop 0, .mainloop

Music_DragonsDen_Ch3:
	notetype 12, $a6
.mainloop:
	octave 1
	note D_, 2
	note F_, 2
	note G_, 2
	octave 2
	note D_, 2
	octave 1
	note D_, 2
	note F_, 2
	note G_, 2
	octave 2
	note D_, 2
;Bar 2
	octave 1
	note C_, 2
	note E_, 2
	note G_, 2
	octave 2
	note C_, 2
	octave 1
	note C_, 2
	note E_, 2
	note G_, 2
	octave 2
	note C_, 2
;Bar 3
	octave 1
	note D_, 2
	note F_, 2
	note G_, 2
	octave 2
	note D_, 2
	octave 1
	note D_, 2
	note F_, 2
	note G_, 2
	octave 2
	note D_, 2
;Bar 4
	octave 1
	note F_, 2
	note A_, 2
	octave 2
	note C_, 2
	note E_, 2
	octave 1
	note F_, 2
	note A_, 2
	octave 2
	note C_, 2
	note E_, 2
;Bar 5
	octave 1
	note D_, 2
	note F_, 2
	note G_, 2
	octave 2
	note D_, 2
	octave 1
	note D_, 2
	note F_, 2
	note G_, 2
	octave 2
	note D_, 2
;Bar 6
	octave 1
	note C_, 2
	note E_, 2
	note G_, 2
	octave 2
	note C_, 2
	octave 1
	note C_, 2
	note E_, 2
	note G_, 2
	octave 2
	note C_, 2
;Bar 7
	octave 1
	note D_, 2
	note F_, 2
	note G_, 2
	octave 2
	note D_, 2
	octave 1
	note D_, 2
	note F_, 2
	note G_, 2
	octave 2
	note D_, 2
;Bar 8
	octave 1
	note F_, 2
	note A_, 2
	octave 2
	note C_, 2
	note E_, 2
	octave 1
	note F_, 2
	note A_, 2
	octave 2
	note C_, 2
	note E_, 2
	sound_loop 0, .mainloop

Music_DragonsDen_Ch4:
	toggle_noise 4
	drum_speed 12
.mainloop:
	drum_note 11, 2
	drum_note 11, 1
	drum_note 11, 1
	drum_note 3, 2
	drum_note 11, 1
	drum_note 3, 1
	sound_loop 0, .mainloop
