Music_EcruteakCity:
	channel_count 4
	channel 1, Music_EcruteakCity_Ch1
	channel 2, Music_EcruteakCity_Ch2
	channel 3, Music_EcruteakCity_Ch3
	channel 4, Music_EcruteakCity_Ch4
	
Music_EcruteakCity_Ch1:
	tempo 184
	duty_cycle 0
	notetype 12, $a7
	vibrato 18, 2, 5
.mainloop:
	octave 3
	note C_, 16
;Bar 2
	octave 2
	note A#, 2
	octave 3
	note C_, 2
	note D#, 2
	note C_, 2
	note D#, 4
	note F_, 4
;Bar 3
	note G_, 16
;Bar 4
	note F_, 2
	note G_, 2
	note F_, 2
	note G_, 2
	note F_, 2
	note D#, 2
	note C_, 2
	octave 2
	note A#, 2
	octave 3
	note C_, 16
;Bar 2
	octave 2
	note A#, 2
	octave 3
	note C_, 2
	note D#, 2
	note C_, 2
	note D#, 4
	note F_, 4
;Bar 3
	note G_, 16
;Bar 4
	note F_, 2
	note G_, 2
	note F_, 2
	note G_, 2
	note F_, 2
	note D#, 2
	note C_, 2
	octave 2
	note A#, 2
;Bar 5
	octave 3
	note C_, 1
	note C_, 1
	note __, 1
	note C_, 1
	note C_, 1
	note __, 1
	note C_, 1
	note __, 1
	octave 2
	note A#, 1
	octave 3
	note C_, 1
	note __, 1
	octave 2
	note G_, 1
	note A#, 1
	note __, 3
;Bar 6
	note A#, 1
	octave 3
	note C_, 1
	note __, 1
	octave 2
	note G_, 1
	note A#, 1
	note __, 1
	note G_, 1
	note __, 1
	note F_, 1
	note A#, 1
	note __, 1
	note G_, 1
	note A#, 1
	note __, 3
;Bar 7
	octave 3
	note C_, 1
	note C_, 1
	note __, 1
	note C_, 1
	note C_, 1
	note __, 1
	note C_, 1
	note __, 1
	octave 2
	note A#, 1
	octave 3
	note C_, 1
	note __, 1
	octave 2
	note G_, 1
	note A#, 1
	note __, 3
;Bar 8
	octave 3
	note F_, 1
	note D#, 1
	note __, 1
	note C_, 1
	note D#, 1
	note __, 1
	note C_, 1
	note __, 1
	note D#, 1
	note C_, 1
	note __, 1
	octave 2
	note A#, 1
	octave 3
	note C_, 1
	note __, 3
;Bar 9
	note C_, 16
;Bar 10
	octave 2
	note A#, 2
	octave 3
	note C_, 2
	note D#, 2
	note C_, 2
	note D#, 4
	note F_, 4
;Bar 11
	note G_, 16
;Bar 12
	note F_, 2
	note G_, 2
	note F_, 2
	note G_, 2
	note F_, 2
	note D#, 2
	note C_, 2
	octave 2
	note A#, 2
;Bar 13
	octave 3
	note C_, 2
	note __, 1
	note C_, 2
	note __, 1
	note C_, 2
	octave 2
	note A#, 2
	note __, 1
	note G_, 2
	note __, 1
	note A#, 2
;Bar 14
	note G_, 2
	note __, 1
	note A#, 2
	note __, 1
	octave 3
	note C_, 2
	octave 2
	note A#, 2
	note __, 1
	octave 3
	note C_, 2
	note __, 1
	note C_, 2
;Bar 15
	note F_, 2
	note __, 1
	note G_, 2
	note __, 1
	note F_, 2
	note A#, 2
	note __, 1
	note G_, 2
	note __, 1
	note F_, 2
;Bar 16
	note A#, 2
	note __, 1
	note G_, 2
	note __, 1
	note F_, 2
	note A#, 2
	note __, 2
	octave 4
	note C_, 4
	note C_, 16
;Bar 10
	octave 2
	note A#, 2
	octave 3
	note C_, 2
	note D#, 2
	note C_, 2
	note D#, 4
	note F_, 4
;Bar 11
	note G_, 16
;Bar 12
	note F_, 2
	note G_, 2
	note F_, 2
	note G_, 2
	note F_, 2
	note D#, 2
	note C_, 2
	octave 2
	note A#, 2
;Bar 13
	octave 3
	note C_, 2
	note __, 1
	note C_, 2
	note __, 1
	note C_, 2
	octave 2
	note A#, 2
	note __, 1
	note G_, 2
	note __, 1
	note A#, 2
;Bar 14
	note G_, 2
	note __, 1
	note A#, 2
	note __, 1
	octave 3
	note C_, 2
	octave 2
	note A#, 2
	note __, 1
	octave 3
	note C_, 2
	note __, 1
	note C_, 2
;Bar 15
	note F_, 2
	note __, 1
	note G_, 2
	note __, 1
	note F_, 2
	note A#, 2
	note __, 1
	note G_, 2
	note __, 1
	note F_, 2
;Bar 16
	note A#, 2
	note __, 1
	note G_, 2
	note __, 1
	note F_, 2
	note A#, 2
	note __, 2
	octave 4
	note C_, 4
	octave 3
	note C_, 1
	note C_, 1
	note __, 1
	note C_, 1
	note C_, 1
	note __, 1
	note C_, 1
	note __, 1
	octave 2
	note A#, 1
	octave 3
	note C_, 1
	note __, 1
	octave 2
	note G_, 1
	note A#, 1
	note __, 3
	sound_loop 0, .mainloop

Music_EcruteakCity_Ch2:
	duty_cycle 1
	notetype 12, $a7
	vibrato 18, 2, 5
.mainloop:
	octave 1
	note A#, 2
	octave 2
	note C_, 2
	note D#, 2
	note G_, 2
	note F_, 2
	note D#, 2
	note C_, 2
	octave 1
	note A#, 2
;Bar 2
	octave 2
	note F_, 2
	note D#, 2
	note F_, 2
	note D#, 2
	note G_, 4
	note A#, 4
;Bar 3
	octave 3
	note C_, 2
	octave 2
	note A#, 2
	note G_, 2
	note D#, 2
	note F_, 2
	note G_, 2
	note F_, 2
	note G_, 2
;Bar 4
	note D#, 2
	note C_, 2
	octave 1
	note A#, 2
	note G_, 2
	note A#, 4
	octave 2
	note C_, 4
	sound_loop 0, .mainloop


Music_EcruteakCity_Ch3:
	notetype 12, $a6
.mainloop:
	octave 1
	note A#, 2
	octave 2
	note C_, 2
	note D#, 2
	note G_, 2
	note F_, 2
	note D#, 2
	note C_, 2
	octave 1
	note A#, 2
;Bar 2
	octave 2
	note F_, 2
	note D#, 2
	note F_, 2
	note D#, 2
	note G_, 4
	note A#, 4
;Bar 3
	octave 3
	note C_, 2
	octave 2
	note A#, 2
	note G_, 2
	note D#, 2
	note F_, 2
	note G_, 2
	note F_, 2
	note G_, 2
;Bar 4
	note D#, 2
	note C_, 2
	octave 1
	note A#, 2
	note G_, 2
	note A#, 4
	octave 2
	note C_, 4
	sound_loop 0, .mainloop

Music_EcruteakCity_Ch4:
	toggle_noise 4
	drum_speed 12
.mainloop:
	drum_note 11, 4
	drum_note 3, 3
	drum_note 11, 1
	drum_note 11, 2
	drum_note 11, 2
	drum_note 3, 4
	drum_note 11, 3
	drum_note 11, 1
	drum_note 3, 3
	drum_note 11, 1
	drum_note 11, 2
	drum_note 11, 2
	drum_note 3, 2
	drum_note 11, 2
	sound_loop 0, .mainloop
	