Music_Evolution:
	channel_count 4
	channel 1, Music_Evolution_Ch1
	channel 2, Music_Evolution_Ch2
	channel 3, Music_Evolution_Ch3
	channel 4, Music_Evolution_Ch4

Music_Evolution_Ch1:
	tempo 132
	vibrato 22, 1, 1
	duty_cycle 3
	note_type 12, 8, 3	
	transpose 1,0
.mainloop:
	octave 4
	note C_, 4
	note __, 2
	octave 3
	note A#, 4
	note __, 2
	octave 4
	note C_, 4
;Bar 2
	note __, 2
	note D#, 4
	note __, 2
	note F_, 4
	note D#, 4
;Bar 3
	note C_, 4
	note __, 2
	octave 3
	note A#, 4
	note __, 2
	octave 4
	note C_, 4
;Bar 4
	note __, 2
	octave 3
	note A#, 4
	note __, 2
	note G_, 4
	note A#, 4
;Bar 5
	note A#, 2
	note A#, 2
	note __, 2
	note G_, 2
	note __, 2
	note F_, 2
	note D#, 2
	note C_, 2
;Bar 6
	note __, 2
	note C_, 2
	note C_, 2
	note C_, 2
	octave 2
	note A#, 2
	note __, 2
	octave 3
	note C_, 2
	note __, 2
;Bar 7
	octave 4
	note C_, 2
	note C_, 2
	note __, 2
	octave 3
	note A#, 2
	note __, 2
	note G_, 2
	note A#, 2
	octave 4
	note C_, 2
;Bar 8
	note __, 2
	octave 3
	note A#, 2
	note A#, 2
	note A#, 2
	note G_, 2
	note __, 2
	note A#, 2
	note __, 2
;Bar 9
	note A#, 1
	note __, 1
	note G_, 1
	note __, 1
	note A#, 1
	note __, 1
	note G_, 1
	note __, 1
	note F_, 1
	note __, 1
	note D#, 1
	note __, 1
	note F_, 1
	note __, 1
	note D#, 1
	note __, 1
;Bar 11
	note A#, 1
	note __, 1
	note G_, 1
	note __, 1
	note A#, 1
	note __, 1
	note G_, 1
	note __, 1
	note F_, 1
	note __, 1
	note D#, 1
	note __, 1
	note F_, 1
	note __, 1
	note D#, 1
	note __, 1
;Bar 13
	octave 4
	note C_, 4
	note __, 2
	octave 3
	note A#, 4
	note __, 2
	octave 4
	note C_, 4
;Bar 14
	note __, 2
	note D#, 4
	note __, 2
	note F_, 4
	note D#, 4
;Bar 15
	note C_, 4
	note __, 2
	octave 3
	note A#, 4
	note __, 2
	octave 4
	note C_, 4
;Bar 16
	note __, 2
	octave 3
	note A#, 4
	note __, 2
	note G_, 4
	note A#, 4
;Bar 17
	octave 4
	note C_, 1
	note C_, 1
	note __, 1
	note C_, 1
	note __, 4
	note C_, 1
	note C_, 1
	note __, 1
	note C_, 1
	note __, 4
;Bar 18
	octave 3
	note A#, 1
	note A#, 1
	note __, 1
	note A#, 1
	note __, 4
	note A#, 1
	note A#, 1
	note __, 1
	note A#, 1
	note __, 4
;Bar 19
	note G_, 1
	note A#, 1
	note __, 1
	note A#, 1
	note __, 4
	note G_, 1
	note A#, 1
	note __, 1
	note A#, 1
	note __, 4
;Bar 20
	octave 4
	note C_, 1
	octave 3
	note A#, 1
	note __, 1
	note G_, 1
	note __, 2
	note F_, 1
	note G_, 1
	note A#, 1
	note __, 1
	note D#, 1
	note __, 1
	note F_, 1
	note __, 3
;Bar 21
	note A#, 1
	note __, 1
	note G_, 1
	note __, 1
	note A#, 1
	note __, 1
	note G_, 1
	note __, 1
	note F_, 1
	note __, 1
	note D#, 1
	note __, 1
	note F_, 1
	note __, 1
	note D#, 1
	note __, 1
;Bar 23
	note A#, 1
	note __, 1
	note G_, 1
	note __, 1
	note A#, 1
	note __, 1
	note G_, 1
	note __, 1
	note F_, 1
	note __, 1
	note D#, 1
	note __, 1
	note F_, 1
	note __, 1
	note D#, 2
	sound_loop 0, .mainloop
	
Music_Evolution_Ch2:
	duty_cycle 2
	transpose 1,0
	vibrato 18, 2, 2
	note_type 12, 9, 2
.mainloop:	
	octave 2
	note A#, 1
	note __, 5
	note A#, 1
	note __, 5
	note A#, 1
	note __, 1
	note F_, 1
	note __, 3
;Bar 2
	note F_, 1
	note __, 1
	note F_, 1
	note __, 1
	note F_, 1
	note __, 1
	note F_, 1
	note __, 3
	note G_, 1
	note __, 3
;Bar 3
	octave 3
	note C_, 1
	note __, 5
	note C_, 1
	note __, 5
	note C_, 1
	note __, 1
	octave 2
	note A#, 1
	note __, 3
;Bar 4
	note A#, 1
	note __, 1
	note A#, 1
	note __, 1
	note A#, 1
	note __, 1
	note A#, 1
	note __, 3
	octave 3
	note C_, 4
	sound_loop 0, .mainloop	

Music_Evolution_Ch3:
	vibrato 16, 2, 3
	note_type 12, 2, 5
.mainloop:
	octave 1
	note C_, 2
	octave 2
	note C_, 2
	note __, 2
	octave 1
	note C_, 2
	note A#, 2
	note __, 2
	note C_, 2
	note G_, 2
;Bar 2
	note __, 2
	note C_, 2
	note G_, 2
	note __, 2
	note A#, 2
	note __, 2
	note G_, 2
	note __, 2
;Bar 3
	note C_, 2
	octave 2
	note C_, 2
	note __, 2
	octave 1
	note C_, 2
	note A#, 2
	note __, 2
	note C_, 2
	note G_, 2
;Bar 4
	note __, 2
	note C_, 2
	note G_, 2
	note __, 2
	note A#, 2
	note __, 2
	note G_, 4
	sound_loop 0, .mainloop

Music_Evolution_Ch4:
	toggle_noise 3
	drum_speed 12
.mainloop:
	drum_note 11, 4
	drum_note 3, 3
	drum_note 11, 2
	drum_note 11, 3
	drum_note 3, 4
	drum_note 11, 4
	drum_note 3, 3
	drum_note 11, 2
	drum_note 11, 3
	drum_note 3, 2
	drum_note 11, 2
	sound_loop 0, .mainloop
