Music_GoldenrodCity:
	channel_count 4
	channel 1, Music_GoldenrodCity_Ch1
	channel 2, Music_GoldenrodCity_Ch2
	channel 3, Music_GoldenrodCity_Ch3
	channel 4, Music_GoldenrodCity_Ch4

Music_GoldenrodCity_Ch1:
	tempo 192
	vibrato 18, 2, 4
	duty_cycle 1
	note_type 12, 11, 7
.mainloop:
	octave 3
	note C_, 2
	note __, 1
	note D_, 2
	note __, 1
	note E_, 2
	note F#, 2
	note __, 2
	note G_, 4
;Bar 2
	note __, 2
	note B_, 2
	note A_, 2
	note E_, 2
	note G_, 6
	note __, 2
;Bar 3
	note B_, 2
	note __, 1
	note A_, 2
	note __, 1
	note E_, 2
	note B_, 4
	note A_, 4
;Bar 4
	note __, 2
	note B_, 2
	octave 4
	note D_, 2
	note E_, 2
	note D_, 6
	note __, 2
;Bar 5
	note G_, 2
	note __, 1
	note F#, 2
	note __, 1
	note D_, 2
	note E_, 2
	note __, 2
	note D_, 4
;Bar 6
	note __, 2
	octave 3
	note B_, 2
	octave 4
	note D_, 2
	octave 3
	note B_, 2
	octave 4
	note D_, 6
	note __, 2
;Bar 7
	note E_, 2
	note __, 1
	note D_, 2
	note __, 1
	octave 3
	note B_, 2
	octave 4
	note D_, 2
	note __, 2
	octave 3
	note B_, 4
;Bar 8
	note __, 2
	note B_, 2
	note A_, 2
	note E_, 2
	note G_, 6
	note __, 2
;Bar 9
	note C_, 2
	note __, 2
	note D_, 2
	note E_, 2
	note __, 2
	note C_, 2
	note __, 4
;Bar 10
	note D_, 2
	note __, 1
	octave 2
	note B_, 2
	note __, 1
	octave 3
	note D_, 6
	note __, 4
;Bar 11
	note F#, 2
	note G_, 2
	note __, 2
	note F#, 2
	note __, 2
	note D_, 2
	note __, 4
;Bar 12
	note E_, 2
	note __, 1
	note D_, 2
	note __, 1
	note E_, 6
	note __, 4
;Bar 13
	note A_, 2
	note G_, 2
	note __, 2
	note F#, 2
	note __, 2
	note G_, 4
	note __, 2
;Bar 14
	note F#, 2
	note G_, 2
	note __, 2
	note D_, 4
	note __, 6
;Bar 15
	note D_, 2
	octave 2
	note B_, 2
	note __, 2
	octave 3
	note D_, 2
	note __, 2
	note E_, 4
	note __, 2
;Bar 16
	octave 2
	note B_, 2
	note A_, 2
	note E_, 2
	note G_, 6
	note __, 4
;Bar 17
	octave 3
	note F#, 2
	note G_, 4
	note F#, 4
	note D_, 6
;Bar 18
	note E_, 2
	note D_, 4
	note E_, 6
	note __, 4
;Bar 19
	note F#, 2
	note G_, 4
	note F#, 4
	note D_, 6
;Bar 20
	note A_, 2
	note G_, 4
	note F#, 6
	note __, 4
;Bar 21
	octave 4
	note D_, 2
	octave 3
	note B_, 4
	octave 4
	note D_, 4
	octave 3
	note B_, 6
;Bar 22
	octave 4
	note E_, 2
	octave 3
	note B_, 4
	octave 4
	note D_, 6
	note __, 4
;Bar 23
	octave 3
	note G_, 2
	note E_, 4
	note G_, 4
	note A_, 6
;Bar 24
	note B_, 2
	note A_, 4
	note G_, 6
	note __, 4
;Bar 25
	note C_, 8
	octave 2
	note B_, 4
	note G_, 8
;Bar 26
	note E_, 2
	note F#, 2
	note A_, 4
	note G_, 4
;Bar 27
	note F#, 2
	note G_, 2
	note F#, 2
	note D_, 16
	note D_, 2
;Bar 28
	note __, 8
;Bar 29
	octave 3
	note C_, 8
	note D_, 4
	octave 2
	note B_, 8
;Bar 30
	note G_, 2
	note E_, 2
	note G_, 2
	note A_, 2
	note B_, 4
;Bar 31
	octave 3
	note D_, 2
	note E_, 4
	note D_, 16
	note D_, 2
;Bar 32
	note __, 8
;Bar 33
	note F#, 2
	note G_, 2
	note F#, 2
	note E_, 4
	note D_, 4
	note __, 2
;Bar 34
	note D_, 2
	octave 2
	note B_, 4
	octave 3
	note D_, 6
	note __, 4
;Bar 35
	note F#, 2
	note G_, 2
	note F#, 2
	note A_, 4
	note F#, 4
	note __, 2
;Bar 36
	note B_, 2
	note A_, 4
	note G_, 6
	note __, 4
;Bar 37
	note E_, 2
	note F#, 2
	note E_, 2
	note D_, 4
	note E_, 4
	note __, 2
;Bar 38
	note A_, 2
	note G_, 2
	note F#, 2
	note D_, 6
	note __, 4
;Bar 39
	note E_, 2
	note F#, 2
	note E_, 2
	note D_, 4
	octave 2
	note B_, 4
	note __, 2
;Bar 40
	note B_, 2
	note A_, 4
	note G_, 8
	note __, 2
;Bar 41
	octave 3
	note F#, 2
	note G_, 4
	note F#, 4
	note D_, 6
;Bar 42
	note E_, 2
	note D_, 4
	note E_, 6
	note __, 4
;Bar 43
	note F#, 2
	note G_, 4
	note F#, 4
	note D_, 6
;Bar 44
	note A_, 2
	note G_, 4
	note F#, 6
	note __, 4
;Bar 45
	octave 4
	note D_, 2
	octave 3
	note B_, 4
	octave 4
	note D_, 4
	octave 3
	note B_, 6
;Bar 46
	octave 4
	note E_, 2
	octave 3
	note B_, 4
	octave 4
	note D_, 6
	note __, 4
;Bar 47
	octave 3
	note G_, 2
	note E_, 4
	note G_, 4
	note A_, 6
;Bar 48
	note B_, 2
	note A_, 4
	note G_, 6
	note __, 4
;Bar 49
	note C_, 12
	note D_, 4
;Bar 50
	octave 2
	note B_, 16
;Bar 51
	octave 3
	note C_, 12
	note D_, 4
;Bar 52
	note E_, 6
	note D_, 10
;Bar 53
	note C_, 12
	note D_, 4
;Bar 54
	octave 2
	note B_, 16
;Bar 55
	octave 3
	note C_, 12
	octave 2
	note B_, 4
;Bar 56
	note G_, 16
;Bar 57
	octave 3
	note F#, 2
	note G_, 4
	note F#, 4
	note D_, 6
;Bar 58
	note E_, 2
	note D_, 4
	note E_, 6
	note __, 4
;Bar 59
	note F#, 2
	note G_, 4
	note F#, 4
	note D_, 6
;Bar 60
	note A_, 2
	note G_, 4
	note F#, 6
	note __, 4
;Bar 61
	octave 4
	note D_, 2
	octave 3
	note B_, 4
	octave 4
	note D_, 4
	octave 3
	note B_, 6
;Bar 62
	octave 4
	note E_, 2
	octave 3
	note B_, 4
	octave 4
	note D_, 6
	note __, 4
;Bar 63
	octave 3
	note G_, 2
	note E_, 4
	note G_, 4
	note A_, 6
;Bar 64
	note B_, 2
	note A_, 4
	note G_, 10
	sound_loop 0, .mainloop

Music_GoldenrodCity_Ch2:
	duty_cycle 0
	note_type 12, 12, 3
.mainloop:
	octave 2
	note G_, 2
	note C_, 1
	note E_, 2
	note __, 1
	note C_, 2
	note __, 2
	note D_, 2
	note F#, 2
	octave 1
	note B_, 2
;Bar 2
	note G_, 2
	note __, 1
	note B_, 2
	note __, 1
	note G_, 2
	note __, 2
	octave 2
	note D_, 2
	note F#, 2
	note __, 2
;Bar 3
	octave 1
	note A_, 2
	note __, 1
	octave 2
	note C_, 2
	note __, 1
	note E_, 2
	note __, 2
	octave 1
	note B_, 2
	octave 2
	note D_, 2
	note __, 2
;Bar 4
	note G_, 2
	note __, 1
	note E_, 2
	note __, 1
	note C_, 2
	note __, 2
	note A_, 2
	sound_loop 0, .mainloop

Music_GoldenrodCity_Ch3:
	note_type 12, 2, 5
.mainloop:
	octave 2
	note C_, 4
	note __, 2
	note C_, 4
	note __, 2
	note C_, 4
;Bar 2
	octave 1 ;WARNING: octave 1 isn't supported, won't work correctly
	note B_, 4
	note __, 2
	note B_, 4
	note __, 2
	note B_, 4
;Bar 3
	note A_, 4
	note __, 2
	note A_, 4
	note __, 2
	note A_, 4
;Bar 4
	octave 2
	note C_, 4
	note __, 2
	note C_, 4
	note __, 2
	octave 1 ;WARNING: octave 1 isn't supported, won't work correctly
	note B_, 4
;Bar 5
	octave 2
	note C_, 4
	note __, 2
	note C_, 4
	note __, 2
	note C_, 4
;Bar 6
	octave 1 ;WARNING: octave 1 isn't supported, won't work correctly
	note B_, 4
	note __, 2
	note B_, 4
	note __, 2
	note B_, 4
;Bar 7
	note A_, 4
	note __, 2
	note A_, 4
	note __, 2
	note A_, 4
;Bar 8
	octave 2
	note C_, 4
	note __, 2
	note C_, 4
	note __, 2
	sound_loop 0, .mainloop

Music_GoldenrodCity_Ch4:
	volume $77
	toggle_noise 4
	drum_speed 12
.mainloop:
	drum_note 11, 2
	drum_note 11, 2
	drum_note 3, 4
	drum_note 11, 1
	drum_note 11, 2
	drum_note 11, 1
	drum_note 3, 4
	sound_loop 0, .mainloop
