Music_HallOfFame:
	channel_count 4
	channel 1, Music_HallOfFame_Ch1
	channel 2, Music_HallOfFame_Ch2
	channel 3, Music_HallOfFame_Ch3
	channel 4, Music_HallOfFame_Ch4

Music_HallOfFame_Ch1:
	tempo 174
	duty_cycle 2
	vibrato 12, 2, 2
	pitch_offset 1
	note_type 12, 9, 3
	transpose 1,0

.mainloop:
	octave 3
	note F_, 1
	note __, 1
	note F_, 1
	note __, 1
	note F_, 1
	note __, 2
	note F_, 1
	note __, 2
	note F_, 1
	note __, 1
	note F_, 1
	note __, 1
	note F_, 1
	note __, 1
;Bar 2
	note D#, 1
	note __, 1
	note D#, 1
	note __, 1
	note D#, 1
	note __, 2
	note D#, 1
	note __, 2
	note D#, 1
	note __, 1
	note D#, 1
	note __, 1
	note D#, 1
	note __, 1
;Bar 3
	note C_, 1
	note __, 1
	note D#, 1
	note __, 1
	note D#, 1
	note __, 2
	note D#, 1
	note __, 2
	note D#, 1
	note __, 1
	note D#, 1
	note __, 1
	note D#, 1
	note __, 1
;Bar 4
	note F_, 1
	note __, 1
	note G#, 1
	note __, 1
	note F_, 1
	note __, 2
	note D#, 1
	note __, 2
	note F_, 1
	note __, 1
	note F_, 1
	note __, 1
	note F_, 1
	note __, 1
;Bar 5
	note F_, 6
	note C_, 4
	note D#, 6
;Bar 6
	note D#, 4
	note F_, 2
	note D#, 8
	note __, 2
;Bar 7
	note C_, 6
	octave 2
	note A#, 4
	octave 3
	note C_, 6
;Bar 8
	note F_, 4
	note C_, 2
	note D#, 8
	note __, 2
;Bar 9
	note G_, 4
	note G#, 2
	note G_, 4
	note D#, 6
;Bar 10
	note F_, 4
	note D#, 2
	note F_, 6
	note __, 4
;Bar 11
	note G#, 4
	note G_, 2
	note D#, 6
	note F_, 4
;Bar 12
	note D#, 2
	note F_, 2
	note D#, 4
	note F_, 4
	note __, 4
;Bar 13
	note F_, 1
	note __, 1
	note F_, 1
	note __, 1
	note F_, 1
	note __, 2
	note F_, 1
	note __, 2
	note F_, 1
	note __, 1
	note F_, 1
	note __, 1
	note F_, 1
	note __, 1
;Bar 14
	note D#, 1
	note __, 1
	note D#, 1
	note __, 1
	note D#, 1
	note __, 2
	note D#, 1
	note __, 2
	note D#, 1
	note __, 1
	note D#, 1
	note __, 1
	note D#, 1
	note __, 1
;Bar 15
	note C_, 1
	note __, 1
	note D#, 1
	note __, 1
	note D#, 1
	note __, 2
	note D#, 1
	note __, 2
	note D#, 1
	note __, 1
	note D#, 1
	note __, 1
	note D#, 1
	note __, 1
;Bar 16
	note F_, 1
	note __, 1
	note G#, 1
	note __, 1
	note F_, 1
	note __, 2
	note D#, 1
	note __, 2
	note F_, 1
	note __, 1
	note F_, 1
	note __, 1
	note F_, 1
	note __, 1
;Bar 17
	note G_, 2
	note __, 1
	note F_, 2
	note __, 1
	note G_, 2
	note G#, 2
	note A#, 2
	octave 4
	note C_, 4
;Bar 18
	octave 3
	note F_, 2
	note __, 1
	note D#, 2
	note __, 1
	note F_, 2
	note C_, 2
	note D#, 2
	note F_, 4
;Bar 19
	note G_, 2
	note __, 1
	note G#, 2
	note __, 1
	note G_, 2
	note D#, 2
	note C_, 2
	note D#, 4
;Bar 20
	note G_, 2
	note __, 1
	note G#, 2
	note __, 1
	note G_, 2
	note A#, 2
	octave 4
	note C_, 2
	octave 3
	note A#, 4
	sound_loop 0, .mainloop
	
Music_HallOfFame_Ch2:
	transpose 1,0
	vibrato 8, 2, 5
	duty_cycle 3
	note_type 12, 12, 4
.mainloop:
	octave 2
	note F_, 1
	note F_, 1
	note __, 1
	note F_, 1
	note F_, 1
	note __, 1
	note F_, 1
	note F_, 1
	note __, 1
	note F_, 1
	note F_, 1
	note __, 1
	note F_, 1
	note __, 1
	note F_, 1
	note __, 1
;Bar 2
	note D#, 1
	note D#, 1
	note __, 1
	note D#, 1
	note D#, 1
	note __, 1
	note D#, 1
	note D#, 1
	note __, 1
	note D#, 1
	note D#, 1
	note __, 1
	note D#, 1
	note __, 1
	note D#, 1
	note __, 1
;Bar 3
	note G#, 1
	note G#, 1
	note __, 1
	note G#, 1
	note G#, 1
	note __, 1
	note G#, 1
	note G#, 1
	note __, 1
	note G#, 1
	note G#, 1
	note __, 1
	note G_, 1
	note __, 1
	note D#, 1
	note __, 1
;Bar 4
	note C_, 1
	note D#, 1
	note __, 1
	note C_, 1
	note D#, 1
	note __, 1
	note D#, 1
	note C_, 1
	note __, 1
	note D#, 1
	note F_, 1
	note __, 1
	note D#, 1
	note __, 1
	note F_, 1
	note __, 1
;Bar 5
	note F_, 6
	note C_, 4
	note D#, 6
;Bar 6
	note D#, 4
	note F_, 2
	note D#, 8
	note __, 2
;Bar 7
	note C_, 6
	octave 1
	note A#, 4
	octave 2
	note C_, 6
;Bar 8
	note F_, 4
	note C_, 2
	note D#, 8
	note __, 2
;Bar 9
	note G_, 4
	note G#, 2
	note G_, 4
	note D#, 6
;Bar 10
	note F_, 4
	note D#, 2
	note F_, 6
	note __, 4
;Bar 11
	note G#, 4
	note G_, 2
	note D#, 6
	note F_, 4
;Bar 12
	note D#, 2
	note F_, 2
	note D#, 4
	note F_, 4
	note __, 4
;Bar 13
	note F_, 1
	note F_, 1
	note __, 1
	note F_, 1
	note F_, 1
	note __, 1
	note F_, 1
	note F_, 1
	note __, 1
	note F_, 1
	note F_, 1
	note __, 1
	note F_, 1
	note __, 1
	note F_, 1
	note __, 1
;Bar 14
	note D#, 1
	note D#, 1
	note __, 1
	note D#, 1
	note D#, 1
	note __, 1
	note D#, 1
	note D#, 1
	note __, 1
	note D#, 1
	note D#, 1
	note __, 1
	note D#, 1
	note __, 1
	note D#, 1
	note __, 1
;Bar 15
	note G#, 1
	note G#, 1
	note __, 1
	note G#, 1
	note G#, 1
	note __, 1
	note G#, 1
	note G#, 1
	note __, 1
	note G#, 1
	note G#, 1
	note __, 1
	note G_, 1
	note __, 1
	note D#, 1
	note __, 1
;Bar 16
	note C_, 1
	note D#, 1
	note __, 1
	note C_, 1
	note D#, 1
	note __, 1
	note D#, 1
	note C_, 1
	note __, 1
	note D#, 1
	note F_, 1
	note __, 1
	note D#, 1
	note __, 1
	note F_, 1
	note __, 1
;Bar 17
	note F_, 1
	note F_, 1
	note __, 1
	note F_, 1
	note F_, 1
	note __, 1
	note F_, 1
	note F_, 1
	note __, 1
	note F_, 1
	note F_, 1
	note __, 1
	note F_, 1
	note __, 1
	note F_, 1
	note __, 1
;Bar 18
	note D#, 1
	note D#, 1
	note __, 1
	note D#, 1
	note D#, 1
	note __, 1
	note D#, 1
	note D#, 1
	note __, 1
	note D#, 1
	note D#, 1
	note __, 1
	note D#, 1
	note __, 1
	note D#, 1
	note __, 1
;Bar 19
	note G#, 1
	note G#, 1
	note __, 1
	note G#, 1
	note G#, 1
	note __, 1
	note G#, 1
	note G#, 1
	note __, 1
	note G#, 1
	note G#, 1
	note __, 1
	note G_, 1
	note __, 1
	note D#, 1
	note __, 1
;Bar 20
	note C_, 1
	note D#, 1
	note __, 1
	note C_, 1
	note D#, 1
	note __, 1
	note D#, 1
	note C_, 1
	note __, 1
	note D#, 1
	note F_, 1
	note __, 1
	note D#, 1
	note __, 1
	note F_, 2
	sound_loop 0, .mainloop	

Music_HallOfFame_Ch3:
	note_type 12, 2, 8
.mainloop:
	octave 1
	note F_, 1
	note D#, 2
	note F_, 2
	note __, 1
	note G#, 2
	note __, 2
	note F_, 2
	note D#, 2
	note F_, 2
;Bar 2
	note C_, 1
	note D#, 2
	note D#, 2
	note __, 1
	note D#, 2
	note __, 2
	note C_, 2
	note D#, 2
	note F_, 2
;Bar 3
	note C_, 1
	note D#, 2
	note D#, 2
	note __, 1
	note D#, 2
	note __, 2
	note C_, 2
	note A#, 2
	note D#, 2
;Bar 4
	note C_, 1
	note D#, 2
	note C_, 2
	note __, 1
	note A#, 2
	note __, 2
	note G#, 2
	note F_, 2
	note D#, 2
;Bar 5
	note F_, 1
	note D#, 2
	note F_, 2
	note __, 1
	note G#, 2
	note __, 2
	note F_, 2
	note D#, 2
	note F_, 2
;Bar 6
	note C_, 1
	note D#, 2
	note D#, 2
	note __, 1
	note D#, 2
	note __, 2
	note C_, 2
	note D#, 2
	note F_, 2
;Bar 7
	note C_, 1
	note D#, 2
	note D#, 2
	note __, 1
	note D#, 2
	note __, 2
	note C_, 2
	note A#, 2
	note D#, 2
;Bar 8
	note C_, 1
	note D#, 2
	note C_, 2
	note __, 1
	note A#, 2
	note __, 2
	note G#, 2
	note F_, 2
	note D#, 2
;Bar 9
	note F_, 1
	note D#, 2
	note F_, 2
	note __, 1
	note G#, 2
	note __, 2
	note F_, 2
	note D#, 2
	note F_, 2
;Bar 10
	note C_, 1
	note D#, 2
	note D#, 2
	note __, 1
	note D#, 2
	note __, 2
	note C_, 2
	note D#, 2
	note F_, 2
;Bar 11
	note C_, 1
	note D#, 2
	note D#, 2
	note __, 1
	note D#, 2
	note __, 2
	note C_, 2
	note A#, 2
	note D#, 2
;Bar 12
	note C_, 1
	note D#, 2
	note C_, 2
	note __, 1
	note A#, 2
	note __, 2
	note G#, 2
	note F_, 2
	note D#, 2
;Bar 13
	note F_, 1
	note D#, 2
	note F_, 2
	note __, 1
	note G#, 2
	note __, 2
	note F_, 2
	note D#, 2
	note F_, 2
;Bar 14
	note C_, 1
	note D#, 2
	note D#, 2
	note __, 1
	note D#, 2
	note __, 2
	note C_, 2
	note D#, 2
	note F_, 2
;Bar 15
	note C_, 1
	note D#, 2
	note D#, 2
	note __, 1
	note D#, 2
	note __, 2
	note C_, 2
	note A#, 2
	note D#, 2
;Bar 16
	note C_, 1
	note D#, 2
	note C_, 2
	note __, 1
	note A#, 2
	note __, 2
	note G#, 2
	note F_, 2
	note D#, 2
;Bar 17
	note F_, 1
	note D#, 2
	note F_, 2
	note __, 1
	note G#, 2
	note __, 2
	note F_, 2
	note D#, 2
	note F_, 2
;Bar 18
	note C_, 1
	note D#, 2
	note D#, 2
	note __, 1
	note D#, 2
	note __, 2
	note C_, 2
	note D#, 2
	note F_, 2
;Bar 19
	note C_, 1
	note D#, 2
	note D#, 2
	note __, 1
	note D#, 2
	note __, 2
	note C_, 2
	note A#, 2
	note D#, 2
;Bar 20
	note C_, 1
	note D#, 2
	note C_, 2
	note __, 1
	note A#, 2
	note __, 2
	note G#, 2
	note F_, 2
	note D#, 2
	sound_loop 0, .mainloop

Music_HallOfFame_Ch4:
	toggle_noise 3
	drum_speed 12
.mainloop:
	drum_note 11, 3
	drum_note 11, 1
	drum_note 3, 3
	drum_note 11, 1
	drum_note 11, 3
	drum_note 11, 1
	drum_note 3, 3
	drum_note 11, 1
	drum_note 11, 3
	drum_note 11, 1
	drum_note 3, 3
	drum_note 11, 1
	drum_note 11, 3
	drum_note 11, 1
	drum_note 3, 3
	drum_note 3, 1
	sound_loop 0, .mainloop
