Music_JohtoWildBattle:
	channel_count 4
	channel 1, Music_JohtoWildBattle_Ch1
	channel 2, Music_JohtoWildBattle_Ch2
	channel 3, Music_JohtoWildBattle_Ch3
	channel 4, Music_JohtoWildBattle_Ch4

Music_JohtoWildBattle_Ch1:
	tempo 128
	volume 7, 7
	duty_cycle 3
	notetype 12, $a7
;Bar 1
	octave 1
	note B_, 1
	octave 2
	note D_, 1
	note E_, 1
	note F_, 1
	octave 1
	note B_, 1
	octave 2
	note D_, 1
	note E_, 1
	note F_, 1
	octave 1
	note B_, 1
	octave 2
	note D_, 1
	note E_, 1
	note F_, 1
	octave 1
	note B_, 1
	octave 2
	note D_, 1
	note E_, 1
	note F_, 1
;Bar 2
	note F_, 1
	note G#, 1
	note A_, 1
	note B_, 1
	note F_, 1
	note G#, 1
	note A_, 1
	note B_, 1
	note F_, 1
	note G#, 1
	note A_, 1
	note B_, 1
	note F_, 1
	note G#, 1
	note A_, 1
	note B_, 1
.mainloop:
	intensity $97
	note B_, 6
	note A_, 4
	note G#, 4
	note B_, 2
;Bar 4
	octave 3
	note C_, 2
	note D_, 2
	note C_, 2
	octave 2
	note B_, 2
	note A_, 8
;Bar 5
	note B_, 6
	note A_, 4
	note G#, 4
	note B_, 2
;Bar 6
	octave 3
	note C_, 2
	note D_, 2
	note C_, 2
	octave 2
	note G#, 2
	note A_, 8
;Bar 7
	octave 3
	note E_, 6
	note D_, 4
	note C_, 4
	note E_, 2
;Bar 8
	note F_, 2
	note E_, 2
	note D_, 2
	note F_, 2
	note E_, 8
;Bar 9
	octave 2
	note B_, 6
	note A_, 4
	note G#, 4
	note B_, 2
;Bar 10
	octave 3
	note C_, 2
	note D_, 2
	note C_, 2
	octave 2
	note G#, 2
	note A_, 8
;Bar 11
	note B_, 4
	octave 3
	note C_, 2
	octave 2
	note A_, 2
	note B_, 4
	octave 3
	note C_, 2
	octave 2
	note A_, 2
;Bar 12
	note B_, 4
	octave 3
	note C_, 2
	octave 2
	note B_, 2
	note A_, 2
	note G#, 2
	note A_, 2
	note B_, 2
;Bar 13
	octave 3
	note E_, 4
	note F_, 2
	note D_, 2
	note E_, 4
	note F_, 2
	note D_, 2
;Bar 14
	note E_, 4
	note F_, 2
	note E_, 2
	note D_, 2
	note C_, 2
	note D_, 2
	note E_, 2
;Bar 15
	note F_, 2
	note F_, 4
	note E_, 4
	octave 2
	note B_, 2
	octave 3
	note D_, 2
	note E_, 2
;Bar 16
	note F_, 2
	note F_, 4
	note E_, 4
	note D_, 2
	note C_, 2
	octave 2
	note B_, 2
;Bar 17
	note B_, 2
	octave 3
	note C_, 2
	octave 2
	note B_, 2
	note G#, 2
	note A_, 2
	note G#, 2
	note F_, 2
	note G#, 2
;Bar 18
	note A_, 2
	note A_, 4
	note A_, 4
	note A_, 2
	note G#, 2
	note A_, 2
	sound_loop 0, .mainloop

Music_JohtoWildBattle_Ch2:
	duty_cycle 0
	notetype 12, $a7
;Bar 1
	octave 1
	note B_, 1
	octave 2
	note F_, 1
	note B_, 1
	octave 3
	note F_, 1
	octave 1
	note B_, 1
	octave 2
	note F_, 1
	note B_, 1
	octave 3
	note F_, 1
	octave 1
	note B_, 1
	octave 2
	note F_, 1
	note B_, 1
	octave 3
	note F_, 1
	octave 1
	note B_, 1
	octave 2
	note F_, 1
	note B_, 1
	octave 3
	note F_, 1
;Bar 2
	octave 1
	note B_, 1
	octave 2
	note F_, 1
	note B_, 1
	octave 3
	note F_, 1
	octave 1
	note B_, 1
	octave 2
	note F_, 1
	note B_, 1
	octave 3
	note F_, 1
	octave 1
	note B_, 1
	octave 2
	note F_, 1
	note B_, 1
	octave 3
	note F_, 1
	octave 1
	note B_, 1
	octave 2
	note F_, 1
	note B_, 1
	octave 3
	note F_, 1
.mainloop:
	octave 1
	note B_, 3
	note B_, 3
	note B_, 4
	note B_, 4
	octave 2
	note C_, 2
;Bar 4
	octave 1
	note B_, 3
	note B_, 3
	note A_, 2
	note G#, 2
	note G#, 2
	note A_, 2
	note B_, 2
;Bar 5
	note B_, 3
	note B_, 3
	note B_, 4
	note B_, 4
	octave 2
	note C_, 2
;Bar 6
	octave 1
	note B_, 3
	note B_, 3
	note A_, 2
	note G#, 2
	note G#, 2
	note A_, 2
	note B_, 2
;Bar 7
	note B_, 3
	note B_, 3
	note B_, 4
	note B_, 4
	octave 2
	note C_, 2
;Bar 8
	octave 1
	note B_, 3
	note B_, 3
	note A_, 2
	note G#, 2
	note G#, 2
	note A_, 2
	note B_, 2
;Bar 9
	note B_, 3
	note B_, 3
	note B_, 4
	note B_, 4
	octave 2
	note C_, 2
;Bar 10
	octave 1
	note B_, 3
	note B_, 3
	note A_, 2
	note G#, 2
	note G#, 2
	note A_, 2
	note B_, 2
;Bar 11
	note B_, 3
	note B_, 3
	note B_, 4
	note B_, 4
	octave 2
	note C_, 2
;Bar 12
	octave 1
	note B_, 3
	note B_, 3
	note A_, 2
	note G#, 2
	note G#, 2
	note A_, 2
	note B_, 2
;Bar 13
	note B_, 3
	note B_, 3
	note B_, 4
	note B_, 4
	octave 2
	note C_, 2
;Bar 14
	octave 1
	note B_, 3
	note B_, 3
	note A_, 2
	note G#, 2
	note G#, 2
	note A_, 2
	note B_, 2
;Bar 15
	note B_, 3
	note B_, 3
	note B_, 4
	note B_, 4
	octave 2
	note C_, 2
;Bar 16
	octave 1
	note B_, 3
	note B_, 3
	note A_, 2
	note G#, 2
	note G#, 2
	note A_, 2
	note B_, 2
;Bar 17
	note B_, 3
	note B_, 3
	note B_, 4
	note B_, 4
	octave 2
	note C_, 2
;Bar 18
	octave 1
	note B_, 3
	note B_, 3
	note A_, 2
	note G#, 2
	note G#, 2
	note A_, 2
	note B_, 2
	sound_loop 0, .mainloop

Music_JohtoWildBattle_Ch3:
	notetype 12, $a6
;Bar 1
	octave 5
	note B_, 1
	note A_, 1
	note G#, 1
	note F_, 1
	note A_, 1
	note G#, 1
	note F_, 1
	note E_, 1
	note G#, 1
	note F_, 1
	note E_, 1
	note D_, 1
	note F_, 1
	note E_, 1
	note D_, 1
	note C_, 1
;Bar 2
	note E_, 1
	note D_, 1
	note C_, 1
	octave 4
	note B_, 1
	octave 5
	note E_, 1
	note D_, 1
	note C_, 1
	octave 4
	note B_, 1
	octave 5
	note E_, 1
	note D_, 1
	note C_, 1
	octave 4
	note B_, 1
	octave 5
	note E_, 1
	note D_, 1
	note C_, 1
	octave 4
	note B_, 1
.mainloop:
	octave 2
	note F_, 8
	note D_, 8
;Bar 4
	note E_, 8
	note C_, 4
	octave 1
	note B_, 4
;Bar 5
	octave 2
	note D_, 8
	note C_, 8
;Bar 6
	octave 1
	note B_, 8
	note G#, 8
;Bar 7
	octave 2
	note F_, 8
	note D_, 8
;Bar 8
	note E_, 8
	note C_, 4
	octave 1
	note B_, 4
;Bar 9
	octave 2
	note D_, 8
	note E_, 8
;Bar 10
	note C_, 8
	octave 1
	note B_, 8
;Bar 11
	octave 2
	note F_, 8
	note D_, 8
;Bar 12
	note E_, 8
	note C_, 4
	octave 1
	note B_, 4
;Bar 13
	octave 2
	note D_, 8
	note C_, 8
;Bar 14
	octave 1
	note B_, 8
	note G#, 8
;Bar 15
	octave 2
	note F_, 8
	note D_, 8
;Bar 16
	note E_, 8
	note C_, 4
	octave 1
	note B_, 4
;Bar 17
	octave 2
	note D_, 8
	note E_, 8
;Bar 18
	note C_, 8
	octave 1
	note B_, 8
	sound_loop 0, .mainloop

Music_JohtoWildBattle_Ch4:
	toggle_noise 4
	drum_speed 12
.mainloop:
	drum_note 4, 4
	drum_note 3, 3
	drum_note 4, 1
	drum_note 4, 2
	drum_note 4, 2
	drum_note 3, 4
	drum_note 4, 3
	drum_note 4, 1
	drum_note 3, 3
	drum_note 4, 1
	drum_note 4, 2
	drum_note 4, 2
	drum_note 3, 2
	drum_note 4, 2
	sound_loop 0, .mainloop
