Music_JohtoGymBattle:
	channel_count 4
	channel 1, Music_JohtoGymBattle_Ch1
	channel 2, Music_JohtoGymBattle_Ch2
	channel 3, Music_JohtoGymBattle_Ch3
	channel 4, Music_JohtoGymBattle_Ch4
	
Music_JohtoGymBattle_Ch1:
	tempo 153
	duty_cycle 1
	vibrato 8, 1, 5
	notetype 12, $a7 
	octave 2
.mainloop:
	octave 3
	note G_, 1
	note A#, 1
	octave 4
	note D_, 1
	note __, 3
	note C_, 1
	note __, 3
	octave 3
	note A#, 1
	note __, 1
	octave 4
	note C_, 1
	note __, 1
	octave 3
	note A#, 1
	note __, 1
;Bar 2
	note F_, 1
	note A_, 1
	octave 4
	note C_, 1
	note __, 3
	octave 3
	note A#, 1
	note __, 3
	note A_, 1
	note G_, 1
	note A_, 1
	note __, 1
	note F_, 1
	note __, 1
;Bar 3
	note A_, 1
	note G_, 1
	note A_, 1
	note __, 3
	note A#, 1
	note __, 3
	octave 4
	note C_, 1
	note __, 1
	octave 3
	note A#, 1
	note __, 1
	octave 4
	note C_, 1
	note __, 1
;Bar 4
	octave 3
	note A#, 1
	note __, 1
	note A_, 1
	note __, 3
	note G_, 1
	note __, 9
;Bar 5
	octave 4
	note D_, 2
	note __, 4
	note D_, 2
	note __, 8
;Bar 6
	note G_, 2
	note F_, 2
	note D_, 2
	note F_, 2
	note __, 8
;Bar 7
	note A_, 2
	note __, 4
	note A_, 2
	note __, 8
;Bar 8
	note A#, 2
	note A_, 2
	note F_, 2
	note G_, 2
	note __, 8
;Bar 9
	note D_, 2
	note __, 4
	note D_, 2
	note __, 8
;Bar 10
	note C_, 2
	note __, 4
	note C_, 2
	note __, 8
;Bar 11
	octave 3
	note A_, 2
	note __, 4
	note A_, 2
	note __, 8
;Bar 12
	note A#, 2
	note A_, 2
	note F_, 2
	note G_, 2
	note __, 8
;Bar 13
	note G_, 1
	note A#, 1
	octave 4
	note D_, 1
	note __, 3
	note C_, 1
	note __, 3
	octave 3
	note A#, 1
	note __, 1
	octave 4
	note C_, 1
	note __, 1
	octave 3
	note A#, 1
	note __, 1
;Bar 14
	note F_, 1
	note A_, 1
	octave 4
	note C_, 1
	note __, 3
	octave 3
	note A#, 1
	note __, 3
	note A_, 1
	note G_, 1
	note A_, 1
	note __, 1
	note F_, 1
	note __, 1
;Bar 15
	note A_, 1
	note G_, 1
	note A_, 1
	note __, 3
	note A#, 1
	note __, 3
	octave 4
	note C_, 1
	note __, 1
	octave 3
	note A#, 1
	note __, 1
	octave 4
	note C_, 1
	note __, 1
;Bar 16
	octave 3
	note A#, 1
	note __, 1
	note A_, 1
	note __, 3
	note G_, 1
	note __, 9
;Bar 17
	note G_, 1
	note __, 1
	note G_, 1
	note __, 1
	note G_, 1
	note __, 1
	note G_, 1
	note __, 1
	note G_, 1
	note __, 1
	note G_, 1
	note __, 1
	note G_, 1
	note __, 1
	note G_, 1
	note __, 1
;Bar 18
	note A_, 1
	note __, 1
	note A_, 1
	note __, 1
	note A_, 1
	note __, 1
	note A_, 1
	note __, 1
	note A_, 1
	note __, 1
	note A_, 1
	note __, 1
	note A_, 1
	note __, 1
	note A_, 1
	note __, 1
;Bar 19
	note A#, 1
	note __, 1
	note A#, 1
	note __, 1
	note A#, 1
	note __, 1
	note A#, 1
	note __, 1
	note A#, 1
	note __, 1
	note A#, 1
	note __, 1
	note A#, 1
	note __, 1
	note A#, 1
	note __, 1
;Bar 20
	octave 4
	note C_, 1
	note __, 1
	note C_, 1
	note __, 1
	note C_, 1
	note __, 1
	note C_, 1
	note __, 1
	octave 3
	note A_, 1
	note __, 1
	note A_, 1
	note __, 1
	note A_, 1
	note __, 1
	note F_, 1
	note __, 1
;Bar 21
	octave 4
	note G_, 1
	octave 3
	note G_, 1
	octave 4
	note F_, 1
	octave 3
	note G_, 1
	octave 4
	note E_, 1
	octave 3
	note G_, 1
	octave 4
	note F_, 1
	octave 3
	note G_, 1
	octave 4
	note G_, 1
	octave 3
	note G_, 1
	octave 4
	note A_, 1
	octave 3
	note G_, 1
	octave 4
	note G_, 1
	octave 3
	note G_, 1
	octave 4
	note D_, 1
	octave 3
	note G_, 1
;Bar 22
	octave 4
	note C_, 1
	octave 3
	note G_, 1
	note A#, 1
	note G_, 1
	octave 4
	note C_, 1
	octave 3
	note G_, 1
	octave 4
	note D_, 1
	octave 3
	note G_, 1
	octave 4
	note F_, 1
	octave 3
	note G_, 1
	octave 4
	note D_, 1
	octave 3
	note G_, 1
	octave 4
	note F_, 1
	octave 3
	note G_, 1
	octave 4
	note D_, 1
	octave 3
	note G_, 1
;Bar 23
	octave 4
	note C_, 1
	octave 3
	note G_, 1
	note A#, 1
	note G_, 1
	note A_, 1
	note G_, 1
	octave 4
	note C_, 1
	octave 3
	note G_, 1
	octave 4
	note D_, 1
	octave 3
	note G_, 1
	octave 4
	note C_, 1
	octave 3
	note G_, 1
	octave 4
	note D_, 1
	octave 3
	note G_, 1
	octave 4
	note C_, 1
	octave 3
	note G_, 1
;Bar 24
	note A#, 1
	note G_, 1
	octave 4
	note C_, 1
	octave 3
	note G_, 1
	note A_, 1
	note G_, 1
	note __, 1
	note G_, 1
	note A_, 1
	note G_, 1
	octave 4
	note C_, 1
	octave 3
	note G_, 1
	note A#, 1
	note G_, 1
	note F_, 1
	note C_, 1
	sound_loop 0, .mainloop

Music_JohtoGymBattle_Ch2:
	duty_cycle 2
	vibrato 8, 3, 6
	notetype 12, $a6
.mainloop:
	octave 1
	note G_, 2
	octave 2
	note D_, 2
	note C_, 2
	note D_, 4
	note F_, 2
	note D_, 2
	note F_, 2
;Bar 2
	note A#, 4
	note A_, 2
	note F_, 6
	note __, 4
;Bar 3
	octave 3
	note C_, 4
	octave 2
	note A_, 2
	note F_, 4
	note G_, 2
	note F_, 2
	note G_, 2
;Bar 4
	note A_, 2
	note G_, 2
	note F_, 2
	note G_, 6
	note __, 4
;Bar 5
	octave 1
	note G_, 2
	octave 2
	note D_, 2
	note C_, 2
	note D_, 4
	note F_, 2
	note D_, 2
	note F_, 2
;Bar 6
	note A#, 4
	note A_, 2
	note F_, 6
	note __, 4
;Bar 7
	octave 3
	note C_, 4
	octave 2
	note A_, 2
	note F_, 4
	note G_, 2
	note F_, 2
	note G_, 2
;Bar 8
	note A_, 2
	note G_, 2
	note F_, 2
	note G_, 6
	note __, 4
;Bar 9
	octave 1
	note G_, 2
	octave 2
	note D_, 2
	note C_, 2
	note D_, 4
	note F_, 2
	note D_, 2
	note F_, 2
;Bar 10
	note A#, 4
	note A_, 2
	note F_, 6
	note __, 4
;Bar 11
	octave 3
	note C_, 4
	octave 2
	note A_, 2
	note F_, 4
	note G_, 2
	note F_, 2
	note G_, 2
;Bar 12
	note A_, 2
	note G_, 2
	note F_, 2
	note G_, 6
	note __, 4
;Bar 13
	octave 1
	note G_, 2
	octave 2
	note D_, 2
	note C_, 2
	note D_, 4
	note F_, 2
	note D_, 2
	note F_, 2
;Bar 14
	note A#, 4
	note A_, 2
	note F_, 6
	note __, 4
;Bar 15
	octave 3
	note C_, 4
	octave 2
	note A_, 2
	note F_, 4
	note G_, 2
	note F_, 2
	note G_, 2
;Bar 16
	note A_, 2
	note G_, 2
	note F_, 2
	note G_, 6
	note __, 4
;Bar 17
	octave 1
	note G_, 2
	octave 2
	note D_, 2
	note C_, 2
	note D_, 4
	note F_, 2
	note D_, 2
	note F_, 2
;Bar 18
	note A#, 4
	note A_, 2
	note F_, 6
	note __, 4
;Bar 19
	octave 3
	note C_, 4
	octave 2
	note A_, 2
	note F_, 4
	note G_, 2
	note F_, 2
	note G_, 2
;Bar 20
	note A_, 2
	note G_, 2
	note F_, 2
	note G_, 6
	note __, 4
;Bar 21
	octave 1
	note G_, 2
	octave 2
	note D_, 2
	note C_, 2
	note D_, 4
	note F_, 2
	note D_, 2
	note F_, 2
;Bar 22
	note A#, 4
	note A_, 2
	note F_, 6
	note __, 4
;Bar 23
	octave 3
	note C_, 4
	octave 2
	note A_, 2
	note F_, 4
	note G_, 2
	note F_, 2
	note G_, 2
;Bar 24
	note A_, 2
	note G_, 2
	note F_, 2
	note G_, 10
	sound_loop 0, .mainloop


Music_JohtoGymBattle_Ch3:
	note_type 12, 2, 5
.mainloop:
	octave 1
	note G_, 16
;Bar 2
	note F_, 16
;Bar 3
	note A_, 12
	note A#, 4
;Bar 4
	note G_, 8
	note F_, 8
;Bar 5
	note G_, 16
;Bar 6
	note F_, 16
;Bar 7
	note A_, 12
	note A#, 4
;Bar 8
	note G_, 8
	note F_, 8
;Bar 9
	note G_, 16
;Bar 10
	note F_, 16
;Bar 11
	note A_, 12
	note A#, 4
;Bar 12
	note G_, 8
	note F_, 8
;Bar 13
	note G_, 16
;Bar 14
	note F_, 16
;Bar 15
	note A_, 12
	note A#, 4
;Bar 16
	note G_, 8
	note F_, 8
;Bar 17
	note G_, 16
;Bar 18
	note F_, 16
;Bar 19
	note A_, 12
	note A#, 4
;Bar 20
	note G_, 8
	note F_, 8
;Bar 21
	note G_, 16
;Bar 22
	note F_, 16
;Bar 23
	note A_, 12
	note A#, 4
;Bar 24
	note G_, 8
	note F_, 8
	sound_loop 0, .mainloop

Music_JohtoGymBattle_Ch4:
	toggle_noise 4
	drum_speed 12
.mainloop:
	drum_note 11, 4
	drum_note 3, 3
	drum_note 11, 2
	drum_note 11, 3
	drum_note 3, 4
	drum_note 11, 4
	drum_note 3, 3
	drum_note 11, 2
	drum_note 11, 3
	drum_note 3, 2
	drum_note 11, 2
	sound_loop 0, .mainloop
	