Music_KantoWildBattle:
	channel_count 4
	channel 1, Music_KantoWildBattle_Ch1
	channel 2, Music_KantoWildBattle_Ch2
	channel 3, Music_KantoWildBattle_Ch3
	channel 4, Music_KantoWildBattle_Ch4

Music_KantoWildBattle_Ch1:
	tempo 182
	duty_cycle 1
	transpose 1,0
	vibrato 18, 1, 5
	note_type 12, 11, 7
.mainloop:
	octave 3
	note D_, 1
	note __, 1
	note E_, 1
	note __, 1
	note D_, 2
	note __, 1
	note F_, 2
	note __, 1
	note G_, 1
	note F_, 1
	note E_, 2
	note D_, 2
;Bar 2
	note C#, 1
	note __, 1
	note E_, 1
	note __, 1
	note C#, 2
	note __, 1
	note G_, 2
	note __, 1
	note F_, 1
	note G_, 1
	note A_, 2
	note G_, 2
;Bar 3
	note D_, 1
	note __, 1
	note E_, 1
	note __, 1
	note D_, 2
	note __, 1
	note F_, 2
	note __, 1
	note G_, 1
	note F_, 1
	note E_, 2
	note D_, 2
;Bar 4
	note F_, 2
	note G_, 2
	note A_, 1
	note A#, 2
	note A_, 2
	note G_, 1
	note F_, 1
	note E_, 1
	note D_, 4
;Bar 5
	note D_, 4
	note __, 2
	note F_, 4
	note E_, 2
	note F_, 2
	note G_, 2
;Bar 6
	note A_, 4
	note __, 2
	note G_, 6
	note __, 4
;Bar 7
	octave 4
	note D_, 4
	note __, 2
	note C#, 4
	octave 3
	note A#, 2
	note A_, 2
	note A#, 2
;Bar 8
	note G_, 4
	note __, 2
	note A_, 6
	note __, 4
;Bar 9
	note D_, 6
	note E_, 2
	note F_, 4
	note E_, 4
;Bar 10
	note G_, 2
	note A_, 2
	octave 4
	note D_, 2
	note C#, 4
	octave 3
	note A_, 6
;Bar 11
	note A#, 6
	note A_, 2
	note G_, 4
	note A_, 4
;Bar 12
	note F_, 2
	note E_, 2
	note D_, 2
	note E_, 4
	note C#, 6
;Bar 13
	octave 2
	note D_, 2
	octave 3
	note D_, 2
	octave 4
	note D_, 2
	note C#, 4
	octave 3
	note A_, 2
	note A#, 4
;Bar 14
	octave 2
	note C#, 2
	octave 3
	note C#, 2
	octave 4
	note C#, 2
	octave 3
	note A_, 4
	note G_, 2
	note F_, 2
	note G_, 2
;Bar 15
	octave 2
	note D_, 2
	octave 3
	note D_, 2
	octave 4
	note F_, 2
	note E_, 4
	note D_, 2
	note E_, 2
	note D_, 2
;Bar 16
	note F_, 2
	note G_, 2
	note F_, 2
	note E_, 8
	note __, 2
;Bar 17
	octave 2
	note D_, 2
	octave 3
	note D_, 2
	octave 4
	note D_, 2
	note C#, 4
	octave 3
	note A_, 2
	note A#, 4
;Bar 18
	octave 2
	note C#, 2
	octave 3
	note C#, 2
	octave 4
	note C#, 2
	octave 3
	note A_, 4
	note G_, 2
	note F_, 2
	note G_, 2
;Bar 19
	octave 2
	note D_, 2
	octave 3
	note D_, 2
	octave 4
	note F_, 2
	note E_, 4
	note D_, 2
	note E_, 2
	note D_, 2
;Bar 20
	note F_, 2
	note G_, 2
	note F_, 2
	note E_, 8
	note __, 2
;Bar 21
	octave 3
	note D_, 4
	note __, 2
	note F_, 4
	note E_, 2
	note F_, 2
	note G_, 2
;Bar 22
	note A_, 4
	note __, 2
	note G_, 6
	note __, 4
;Bar 23
	octave 4
	note D_, 4
	note __, 2
	note C#, 4
	octave 3
	note A#, 2
	note A_, 2
	note A#, 2
;Bar 24
	note G_, 4
	note __, 2
	note A_, 6
	note __, 4
;Bar 25
	note D_, 6
	note E_, 2
	note F_, 4
	note E_, 4
;Bar 26
	note G_, 2
	note A_, 2
	octave 4
	note D_, 2
	note C#, 4
	octave 3
	note A_, 6
;Bar 27
	note A#, 6
	note A_, 2
	note G_, 4
	note A_, 4
;Bar 28
	note F_, 2
	note E_, 2
	note D_, 2
	note E_, 4
	note C#, 6
;Bar 29
	octave 2
	note D_, 2
	octave 3
	note D_, 2
	octave 4
	note D_, 2
	note C#, 4
	octave 3
	note A_, 2
	note A#, 4
;Bar 30
	octave 2
	note C#, 2
	octave 3
	note C#, 2
	octave 4
	note C#, 2
	octave 3
	note A_, 4
	note G_, 2
	note F_, 2
	note G_, 2
;Bar 31
	octave 2
	note D_, 2
	octave 3
	note D_, 2
	octave 4
	note F_, 2
	note E_, 4
	note D_, 2
	note E_, 2
	note D_, 2
;Bar 32
	note F_, 2
	note G_, 2
	note F_, 2
	note E_, 8
	note __, 2
;Bar 33
	octave 3
	note D_, 2
	note __, 1
	note F_, 2
	note __, 1
	note E_, 2
	note G_, 2
	note __, 1
	note F_, 2
	note __, 1
	note G_, 2
;Bar 34
	note A_, 2
	note __, 1
	note G_, 2
	note __, 1
	note F_, 2
	note E_, 6
	note __, 2
;Bar 35
	note F_, 2
	note __, 1
	note G_, 2
	note __, 1
	note F_, 2
	note A_, 2
	note __, 1
	note G_, 2
	note __, 1
	note A_, 2
;Bar 36
	octave 4
	note C#, 2
	note __, 1
	octave 3
	note A#, 2
	note __, 1
	note A_, 2
	note G_, 8
	sound_loop 0, .mainloop
	
Music_KantoWildBattle_Ch2:
	duty_cycle 1
	transpose 1,0
	vibrato 20, 3, 4
	note_type 12, 12, 3

.mainloop:
	octave 2
	note A_, 16
;Bar 2
	note G_, 16
;Bar 3
	note A_, 16
;Bar 4
	note F_, 8
	note E_, 8
;Bar 5
	note D_, 1
	note __, 1
	note A_, 1
	note __, 3
	note A_, 4
	note G_, 2
	note A_, 2
	note G_, 2
;Bar 6
	note C#, 1
	note __, 1
	note G_, 1
	note __, 3
	note G_, 4
	note A_, 1
	note G_, 1
	note F_, 2
	note G_, 2
;Bar 7
	note D_, 1
	note __, 1
	note A_, 1
	note __, 3
	note A_, 4
	note G_, 2
	note A_, 2
	note G_, 2
;Bar 8
	octave 1
	note A#, 1
	note __, 1
	octave 2
	note F_, 1
	note __, 3
	note F_, 4
	note F_, 1
	note __, 1
	note E_, 4
;Bar 9
	note D_, 1
	note __, 1
	note A_, 1
	note __, 3
	note A_, 4
	note G_, 2
	note A_, 2
	note G_, 2
;Bar 10
	note C#, 1
	note __, 1
	note G_, 1
	note __, 3
	note G_, 4
	note A_, 1
	note G_, 1
	note F_, 2
	note G_, 2
;Bar 11
	note D_, 1
	note __, 1
	note A_, 1
	note __, 3
	note A_, 4
	note G_, 2
	note A_, 2
	note G_, 2
;Bar 12
	octave 1
	note A#, 1
	note __, 1
	octave 2
	note F_, 1
	note __, 3
	note F_, 4
	note F_, 1
	note __, 1
	note E_, 4
;Bar 13
	note D_, 1
	note __, 1
	note A_, 1
	note __, 3
	note A_, 4
	note G_, 2
	note A_, 2
	note G_, 2
;Bar 14
	note C#, 1
	note __, 1
	note G_, 1
	note __, 3
	note G_, 4
	note A_, 1
	note G_, 1
	note F_, 2
	note G_, 2
;Bar 15
	note D_, 1
	note __, 1
	note A_, 1
	note __, 3
	note A_, 4
	note G_, 2
	note A_, 2
	note G_, 2
;Bar 16
	octave 1
	note A#, 1
	note __, 1
	octave 2
	note F_, 1
	note __, 3
	note F_, 4
	note F_, 1
	note __, 1
	note E_, 4
;Bar 17
	note D_, 1
	note __, 1
	note A_, 1
	note __, 3
	note A_, 4
	note G_, 2
	note A_, 2
	note G_, 2
;Bar 18
	note C#, 1
	note __, 1
	note G_, 1
	note __, 3
	note G_, 4
	note A_, 1
	note G_, 1
	note F_, 2
	note G_, 2
;Bar 19
	note D_, 1
	note __, 1
	note A_, 1
	note __, 3
	note A_, 4
	note G_, 2
	note A_, 2
	note G_, 2
;Bar 20
	octave 1
	note A#, 1
	note __, 1
	octave 2
	note F_, 1
	note __, 3
	note F_, 4
	note F_, 1
	note __, 1
	note E_, 4
;Bar 21
	note A_, 16
;Bar 22
	note G_, 16
;Bar 23
	note A_, 16
;Bar 24
	note F_, 8
	note E_, 8
;Bar 25
	note A_, 16
;Bar 26
	note G_, 16
;Bar 27
	note A_, 16
;Bar 28
	note F_, 8
	note E_, 8
;Bar 29
	note A_, 16
;Bar 30
	note G_, 16
;Bar 31
	note A_, 16
;Bar 32
	note F_, 8
	note E_, 8
;Bar 33
	note A_, 16
;Bar 34
	note G_, 16
;Bar 35
	note A_, 16
;Bar 36
	note F_, 8
	note E_, 8
	sound_loop 0, .mainloop	

Music_KantoWildBattle_Ch3:
	notetype 12, $a6
.mainloop:
	octave 1
	note D_, 1
	note G_, 1
	note A#, 1
	note A_, 1
	note __, 2
	note A_, 1
	note A#, 1
	note __, 1
	note G_, 1
	octave 2
	note D_, 2
	note C#, 2
	octave 1
	note A#, 1
	note __, 1
;Bar 2
	note C#, 1
	note D_, 1
	note G_, 1
	note A_, 1
	note __, 2
	note D_, 1
	note G_, 1
	note __, 1
	note G_, 1
	note A#, 2
	note A_, 2
	note D_, 2
;Bar 3
	note F_, 1
	note E_, 1
	note G_, 1
	note A_, 1
	note __, 2
	note A#, 1
	note A_, 1
	note __, 1
	note G_, 1
	note A_, 1
	note __, 1
	octave 2
	note C#, 2
	octave 1
	note A#, 2
;Bar 4
	octave 2
	note C#, 1
	octave 1
	note A#, 1
	note A_, 1
	note A#, 1
	note __, 2
	note A_, 1
	note A#, 1
	note __, 1
	note A#, 1
	octave 2
	note C#, 1
	octave 1
	note A#, 1
	octave 2
	note D_, 4
;Bar 5
	octave 1
	note D_, 1
	note D_, 1
	note __, 1
	note D_, 1
	note D_, 1
	note __, 1
	note D_, 1
	note __, 1
	note D_, 1
	note D_, 1
	note D_, 1
	note __, 1
	note D_, 1
	note __, 1
	note D_, 1
	note __, 1
;Bar 6
	note C#, 1
	note C#, 1
	note __, 1
	note C#, 1
	note C#, 1
	note __, 1
	note C#, 1
	note __, 1
	note C#, 1
	note C#, 1
	note C#, 1
	note __, 1
	note C#, 1
	note __, 1
	note C#, 1
	note __, 1
;Bar 7
	note D_, 1
	note D_, 1
	note __, 1
	note D_, 1
	note D_, 1
	note __, 1
	note D_, 1
	note __, 1
	note D_, 1
	note D_, 1
	note D_, 1
	note __, 1
	note D_, 1
	note __, 1
	note D_, 1
	note __, 1
;Bar 8
	note F_, 1
	note F_, 1
	note __, 1
	note F_, 1
	note F_, 1
	note __, 1
	note F_, 1
	note __, 1
	note E_, 1
	note E_, 1
	note E_, 1
	note __, 1
	note E_, 1
	note __, 1
	note E_, 1
	note __, 1
;Bar 9
	note D_, 1
	note D_, 1
	note __, 1
	note D_, 1
	note D_, 1
	note __, 1
	note D_, 1
	note __, 1
	note D_, 1
	note D_, 1
	note D_, 1
	note __, 1
	note D_, 1
	note __, 1
	note D_, 1
	note __, 1
;Bar 10
	note C#, 1
	note C#, 1
	note __, 1
	note C#, 1
	note C#, 1
	note __, 1
	note C#, 1
	note __, 1
	note C#, 1
	note C#, 1
	note C#, 1
	note __, 1
	note C#, 1
	note __, 1
	note C#, 1
	note __, 1
;Bar 11
	note D_, 1
	note D_, 1
	note __, 1
	note D_, 1
	note D_, 1
	note __, 1
	note D_, 1
	note __, 1
	note D_, 1
	note D_, 1
	note D_, 1
	note __, 1
	note D_, 1
	note __, 1
	note D_, 1
	note __, 1
;Bar 12
	note F_, 1
	note F_, 1
	note __, 1
	note F_, 1
	note F_, 1
	note __, 1
	note F_, 1
	note __, 1
	note E_, 1
	note E_, 1
	note E_, 1
	note __, 1
	note E_, 1
	note __, 1
	note E_, 1
	note __, 1
;Bar 13
	note D_, 1
	note D_, 1
	note __, 1
	note D_, 1
	note D_, 1
	note __, 1
	note D_, 1
	note __, 1
	note D_, 1
	note D_, 1
	note D_, 1
	note __, 1
	note D_, 1
	note __, 1
	note D_, 1
	note __, 1
;Bar 14
	note C#, 1
	note C#, 1
	note __, 1
	note C#, 1
	note C#, 1
	note __, 1
	note C#, 1
	note __, 1
	note C#, 1
	note C#, 1
	note C#, 1
	note __, 1
	note C#, 1
	note __, 1
	note C#, 1
	note __, 1
;Bar 15
	note D_, 1
	note D_, 1
	note __, 1
	note D_, 1
	note D_, 1
	note __, 1
	note D_, 1
	note __, 1
	note D_, 1
	note D_, 1
	note D_, 1
	note __, 1
	note D_, 1
	note __, 1
	note D_, 1
	note __, 1
;Bar 16
	note F_, 1
	note F_, 1
	note __, 1
	note F_, 1
	note F_, 1
	note __, 1
	note F_, 1
	note __, 1
	note E_, 1
	note E_, 1
	note E_, 1
	note __, 1
	note E_, 1
	note __, 1
	note E_, 1
	note __, 1
;Bar 17
	note D_, 1
	note D_, 1
	note __, 1
	note D_, 1
	note D_, 1
	note __, 1
	note D_, 1
	note __, 1
	note D_, 1
	note D_, 1
	note D_, 1
	note __, 1
	note D_, 1
	note __, 1
	note D_, 1
	note __, 1
;Bar 18
	note C#, 1
	note C#, 1
	note __, 1
	note C#, 1
	note C#, 1
	note __, 1
	note C#, 1
	note __, 1
	note C#, 1
	note C#, 1
	note C#, 1
	note __, 1
	note C#, 1
	note __, 1
	note C#, 1
	note __, 1
;Bar 19
	note D_, 1
	note D_, 1
	note __, 1
	note D_, 1
	note D_, 1
	note __, 1
	note D_, 1
	note __, 1
	note D_, 1
	note D_, 1
	note D_, 1
	note __, 1
	note D_, 1
	note __, 1
	note D_, 1
	note __, 1
;Bar 20
	note F_, 1
	note F_, 1
	note __, 1
	note F_, 1
	note F_, 1
	note __, 1
	note F_, 1
	note __, 1
	note E_, 1
	note E_, 1
	note E_, 1
	note __, 1
	note E_, 1
	note __, 1
	note E_, 1
	note __, 1
;Bar 21
	note D_, 1
	note D_, 1
	note __, 1
	note D_, 1
	note D_, 1
	note __, 1
	note D_, 1
	note __, 1
	note D_, 1
	note D_, 1
	note D_, 1
	note __, 1
	note D_, 1
	note __, 1
	note D_, 1
	note __, 1
;Bar 22
	note C#, 1
	note C#, 1
	note __, 1
	note C#, 1
	note C#, 1
	note __, 1
	note C#, 1
	note __, 1
	note C#, 1
	note C#, 1
	note C#, 1
	note __, 1
	note C#, 1
	note __, 1
	note C#, 1
	note __, 1
;Bar 23
	note D_, 1
	note D_, 1
	note __, 1
	note D_, 1
	note D_, 1
	note __, 1
	note D_, 1
	note __, 1
	note D_, 1
	note D_, 1
	note D_, 1
	note __, 1
	note D_, 1
	note __, 1
	note D_, 1
	note __, 1
;Bar 24
	note F_, 1
	note F_, 1
	note __, 1
	note F_, 1
	note F_, 1
	note __, 1
	note F_, 1
	note __, 1
	note E_, 1
	note E_, 1
	note E_, 1
	note __, 1
	note E_, 1
	note __, 1
	note E_, 1
	note __, 1
;Bar 25
	note D_, 1
	note D_, 1
	note __, 1
	note D_, 1
	note D_, 1
	note __, 1
	note D_, 1
	note __, 1
	note D_, 1
	note D_, 1
	note D_, 1
	note __, 1
	note D_, 1
	note __, 1
	note D_, 1
	note __, 1
;Bar 26
	note C#, 1
	note C#, 1
	note __, 1
	note C#, 1
	note C#, 1
	note __, 1
	note C#, 1
	note __, 1
	note C#, 1
	note C#, 1
	note C#, 1
	note __, 1
	note C#, 1
	note __, 1
	note C#, 1
	note __, 1
;Bar 27
	note D_, 1
	note D_, 1
	note __, 1
	note D_, 1
	note D_, 1
	note __, 1
	note D_, 1
	note __, 1
	note D_, 1
	note D_, 1
	note D_, 1
	note __, 1
	note D_, 1
	note __, 1
	note D_, 1
	note __, 1
;Bar 28
	note F_, 1
	note F_, 1
	note __, 1
	note F_, 1
	note F_, 1
	note __, 1
	note F_, 1
	note __, 1
	note E_, 1
	note E_, 1
	note E_, 1
	note __, 1
	note E_, 1
	note __, 1
	note E_, 1
	note __, 1
;Bar 29
	note D_, 1
	note D_, 1
	note __, 1
	note D_, 1
	note D_, 1
	note __, 1
	note D_, 1
	note __, 1
	note D_, 1
	note D_, 1
	note D_, 1
	note __, 1
	note D_, 1
	note __, 1
	note D_, 1
	note __, 1
;Bar 30
	note C#, 1
	note C#, 1
	note __, 1
	note C#, 1
	note C#, 1
	note __, 1
	note C#, 1
	note __, 1
	note C#, 1
	note C#, 1
	note C#, 1
	note __, 1
	note C#, 1
	note __, 1
	note C#, 1
	note __, 1
;Bar 31
	note D_, 1
	note D_, 1
	note __, 1
	note D_, 1
	note D_, 1
	note __, 1
	note D_, 1
	note __, 1
	note D_, 1
	note D_, 1
	note D_, 1
	note __, 1
	note D_, 1
	note __, 1
	note D_, 1
	note __, 1
;Bar 32
	note F_, 1
	note F_, 1
	note __, 1
	note F_, 1
	note F_, 1
	note __, 1
	note F_, 1
	note __, 1
	note E_, 1
	note E_, 1
	note E_, 1
	note __, 1
	note E_, 1
	note __, 1
	note E_, 1
	note __, 1
;Bar 33
	note D_, 1
	note D_, 1
	note __, 1
	note D_, 1
	note D_, 1
	note __, 1
	note D_, 1
	note __, 1
	note D_, 1
	note D_, 1
	note D_, 1
	note __, 1
	note D_, 1
	note __, 1
	note D_, 1
	note __, 1
;Bar 34
	note C#, 1
	note C#, 1
	note __, 1
	note C#, 1
	note C#, 1
	note __, 1
	note C#, 1
	note __, 1
	note C#, 1
	note C#, 1
	note C#, 1
	note __, 1
	note C#, 1
	note __, 1
	note C#, 1
	note __, 1
;Bar 35
	note D_, 1
	note D_, 1
	note __, 1
	note D_, 1
	note D_, 1
	note __, 1
	note D_, 1
	note __, 1
	note D_, 1
	note D_, 1
	note D_, 1
	note __, 1
	note D_, 1
	note __, 1
	note D_, 1
	note __, 1
;Bar 36
	note F_, 1
	note F_, 1
	note __, 1
	note F_, 1
	note F_, 1
	note __, 1
	note F_, 1
	note __, 1
	note E_, 1
	note E_, 1
	note E_, 1
	note __, 1
	note E_, 1
	note __, 1
	note E_, 2
	sound_loop 0, .mainloop

Music_KantoWildBattle_Ch4:
	toggle_noise 3
	drum_speed 12
.mainloop:
	drum_note 11, 3
	drum_note 11, 1
	drum_note 3, 3
	drum_note 11, 1
	drum_note 11, 3
	drum_note 11, 1
	drum_note 3, 3
	drum_note 11, 1
	drum_note 11, 3
	drum_note 11, 1
	drum_note 3, 3
	drum_note 11, 1
	drum_note 11, 3
	drum_note 11, 1
	drum_note 3, 3
	drum_note 3, 1
	sound_loop 0, .mainloop
