Music_LakeOfRageRocketRadio:
	channel_count 4
	channel 1, Music_LakeOfRageRocketRadio_Ch1
	channel 2, Music_LakeOfRageRocketRadio_Ch2
	channel 3, Music_LakeOfRageRocketRadio_Ch3
	channel 4, Music_LakeOfRageRocketRadio_Ch4

Music_LakeOfRageRocketRadio_Ch1:
	tempo 166
	duty_cycle 1
	transpose 1,0
	vibrato 18, 1, 5
	note_type 12, 11, 7
.mainloop:
	octave 3
	note A_, 2
	note __, 2
	note A_, 3
	octave 4
	note C_, 2
	octave 3
	note A_, 2
	note __, 1
	note G_, 2
	note A_, 2
;Bar 2
	note A_, 2
	octave 4
	note C_, 2
	note D_, 1
	note D_, 2
	octave 3
	note B_, 7
	note __, 2
;Bar 3
	octave 4
	note D_, 2
	note C_, 2
	octave 3
	note B_, 2
	note B_, 1
	octave 4
	note C_, 2
	octave 3
	note B_, 2
	note A_, 2
	note G_, 2
	note __, 1
;Bar 4
	note A_, 2
	note B_, 2
	note A_, 2
	note B_, 1
	note A_, 7
	note __, 2
;Bar 5
	note A_, 2
	note __, 2
	note A_, 3
	octave 4
	note C_, 2
	octave 3
	note A_, 2
	note __, 1
	note G_, 2
	note A_, 2
;Bar 6
	octave 4
	note D_, 2
	note C_, 2
	note D_, 1
	note E_, 2
	note D_, 7
	note __, 2
;Bar 7
	note D_, 2
	note C_, 2
	octave 3
	note B_, 2
	note B_, 1
	octave 4
	note C_, 2
	octave 3
	note B_, 2
	note A_, 2
	note E_, 3
;Bar 8
	note G_, 2
	note A_, 2
	note G_, 2
	note E_, 1
	note A_, 7
	note E_, 2
;Bar 9
	note A_, 1
	note __, 1
	note A_, 1
	note __, 1
	octave 4
	note C_, 1
	octave 3
	note B_, 1
	note __, 1
	note A_, 1
	note E_, 1
	note __, 1
	note D_, 1
	note __, 1
	note E_, 1
	note __, 1
	note A_, 1
	note G_, 1
;Bar 10
	note A_, 1
	note G_, 1
	note A_, 1
	note __, 1
	note G_, 1
	note A_, 4
	note __, 5
	note A_, 1
	octave 4
	note C_, 1
;Bar 11
	note D_, 2
	note C_, 1
	note __, 1
	note E_, 1
	note D_, 1
	note __, 1
	note E_, 1
	note G_, 1
	note __, 1
	note D_, 1
	note __, 1
	note C_, 2
	octave 3
	note B_, 1
	note A_, 1
;Bar 12
	note B_, 1
	note A_, 1
	note B_, 1
	note __, 1
	note G_, 1
	note A_, 4
	note __, 7
;Bar 13
	note A_, 2
	note __, 2
	note A_, 3
	octave 4
	note C_, 2
	octave 3
	note A_, 2
	note __, 1
	note G_, 2
	note A_, 2
;Bar 14
	note A_, 2
	octave 4
	note C_, 2
	note D_, 1
	note D_, 2
	octave 3
	note B_, 7
	note __, 2
;Bar 15
	octave 4
	note D_, 2
	note C_, 2
	octave 3
	note B_, 2
	note B_, 1
	octave 4
	note C_, 2
	octave 3
	note B_, 2
	note A_, 2
	note G_, 2
	note __, 1
;Bar 16
	note A_, 2
	note B_, 2
	note A_, 2
	note B_, 1
	note A_, 7
	note __, 2
;Bar 17
	note A_, 2
	note __, 2
	note A_, 3
	octave 4
	note C_, 2
	octave 3
	note A_, 2
	note __, 1
	note G_, 2
	note A_, 2
;Bar 18
	octave 4
	note D_, 2
	note C_, 2
	note D_, 1
	note E_, 2
	note D_, 7
	note __, 2
;Bar 19
	note D_, 2
	note C_, 2
	octave 3
	note B_, 2
	note B_, 1
	octave 4
	note C_, 2
	octave 3
	note B_, 2
	note A_, 2
	note E_, 3
;Bar 20
	note G_, 2
	note A_, 2
	note G_, 2
	note E_, 1
	note A_, 7
	note E_, 2
;Bar 21
	note A_, 1
	note __, 1
	note A_, 1
	note __, 1
	octave 4
	note C_, 1
	octave 3
	note B_, 1
	note __, 1
	note A_, 1
	note E_, 1
	note __, 1
	note D_, 1
	note __, 1
	note E_, 1
	note __, 1
	note A_, 1
	note G_, 1
;Bar 22
	note A_, 1
	note G_, 1
	note A_, 1
	note __, 1
	note G_, 1
	note A_, 4
	note __, 5
	note A_, 1
	octave 4
	note C_, 1
;Bar 23
	note D_, 2
	note C_, 1
	note __, 1
	note E_, 1
	note D_, 1
	note __, 1
	note E_, 1
	note G_, 1
	note __, 1
	note D_, 1
	note __, 1
	note C_, 2
	octave 3
	note B_, 1
	note A_, 1
;Bar 24
	note B_, 1
	note A_, 1
	note B_, 1
	note __, 1
	note G_, 1
	note A_, 4
	note __, 7
;Bar 25
	note A_, 1
	octave 4
	note C_, 1
	note __, 1
	note D_, 1
	note E_, 1
	note __, 1
	note D_, 1
	note C_, 1
	note __, 1
	note C_, 1
	octave 3
	note B_, 1
	note __, 1
	note B_, 1
	note __, 1
	note G_, 1
	note __, 1
;Bar 26
	note G_, 1
	note B_, 1
	note __, 1
	note B_, 1
	octave 4
	note C_, 1
	note __, 1
	note C_, 1
	octave 3
	note B_, 1
	note __, 1
	octave 4
	note C_, 1
	octave 3
	note B_, 1
	note __, 1
	note A_, 1
	note __, 1
	note B_, 1
	note __, 1
;Bar 27
	octave 4
	note E_, 1
	note D_, 1
	note __, 1
	note E_, 1
	note D_, 1
	note __, 1
	note E_, 1
	note D_, 1
	note __, 1
	note D_, 1
	note E_, 1
	note __, 1
	note G_, 1
	note __, 1
	note E_, 1
	note __, 1
;Bar 28
	note G_, 1
	note A_, 1
	note G_, 1
	note E_, 1
	note G_, 1
	note E_, 1
	note D_, 1
	note C_, 1
	note D_, 1
	note C_, 1
	note D_, 1
	note C_, 1
	octave 3
	note B_, 1
	octave 4
	note C_, 1
	octave 3
	note A_, 2
;Bar 29
	note A_, 1
	octave 4
	note C_, 1
	note __, 1
	note D_, 1
	note E_, 1
	note __, 1
	note D_, 1
	note C_, 1
	note __, 1
	note C_, 1
	octave 3
	note B_, 1
	note __, 1
	note B_, 1
	note __, 1
	note G_, 1
	note __, 1
;Bar 30
	note G_, 1
	note B_, 1
	note __, 1
	note B_, 1
	octave 4
	note C_, 1
	note __, 1
	note C_, 1
	octave 3
	note B_, 1
	note __, 1
	octave 4
	note C_, 1
	octave 3
	note B_, 1
	note __, 1
	note A_, 1
	note __, 1
	note B_, 1
	note __, 1
;Bar 31
	octave 4
	note E_, 1
	note D_, 1
	note __, 1
	note E_, 1
	note D_, 1
	note __, 1
	note E_, 1
	note D_, 1
	note __, 1
	note D_, 1
	note E_, 1
	note __, 1
	note G_, 1
	note __, 1
	note E_, 1
	note __, 1
;Bar 32
	note G_, 1
	note A_, 1
	note G_, 1
	note E_, 1
	note G_, 1
	note E_, 1
	note D_, 1
	note C_, 1
	note D_, 1
	note C_, 1
	note D_, 1
	note C_, 1
	octave 3
	note B_, 1
	octave 4
	note C_, 1
	octave 3
	note A_, 2
	sound_loop 0, .mainloop
	
Music_LakeOfRageRocketRadio_Ch2:
	duty_cycle 1
	transpose 1,0
	vibrato 20, 3, 4
	note_type 12, 12, 3

.mainloop:
	octave 3
	note E_, 1
	note C_, 2
	octave 2
	note A_, 3
	octave 3
	note E_, 1
	note C_, 3
	octave 2
	note A_, 3
	note __, 1
	note A_, 2
;Bar 2
	octave 3
	note D_, 1
	octave 2
	note B_, 2
	note G_, 3
	octave 3
	note D_, 1
	octave 2
	note B_, 3
	note G_, 3
	note __, 1
	note G_, 2
;Bar 3
	octave 3
	note C_, 1
	octave 2
	note A_, 2
	note F_, 3
	octave 3
	note C_, 1
	octave 2
	note A_, 3
	note F_, 3
	note __, 1
	note F_, 1
	note __, 1
;Bar 4
	note B_, 1
	note G_, 2
	note E_, 3
	note B_, 1
	note G_, 3
	note B_, 1
	note G_, 1
	octave 3
	note C_, 1
	octave 2
	note A_, 1
	octave 3
	note C_, 1
	octave 2
	note A_, 1
	sound_loop 0, .mainloop	

Music_LakeOfRageRocketRadio_Ch3:
	notetype 12, $a6
.mainloop:
	octave 1
	note A_, 2
	note __, 2
	note A_, 2
	note A_, 1
	note A_, 2
	note __, 1
	note A_, 2
	octave 2
	note D_, 2
	note C_, 2
;Bar 2
	octave 1
	note A_, 2
	note __, 2
	note A_, 2
	note A_, 1
	note A_, 2
	note __, 1
	note A_, 2
	note G_, 2
	note G_, 2
;Bar 3
	note A_, 2
	note __, 2
	note A_, 2
	note A_, 1
	note A_, 2
	note __, 1
	note A_, 2
	octave 2
	note D_, 2
	note C_, 2
;Bar 4
	octave 1
	note A_, 2
	note __, 2
	note A_, 2
	note A_, 1
	note A_, 2
	note __, 1
	note A_, 2
	note G_, 2
	note G_, 2
	sound_loop 0, .mainloop

Music_LakeOfRageRocketRadio_Ch4:
	toggle_noise 3
	drum_speed 12
.mainloop:
	drum_note 11, 4
	drum_note 11, 4
	drum_note 11, 4
	drum_note 11, 4

	sound_loop 0, .mainloop
