Music_MtMoonSquare:
	channel_count 2
	channel 1, Music_MtMoonSquare_Ch1
	channel 2, Music_MtMoonSquare_Ch2

Music_MtMoonSquare_Ch1:
	tempo 274
	duty_cycle 2
	notetype 12, $a7
.mainloop:
;Bar 1
	octave 3
	note F#, 2
	octave 4
	note C#, 2
	octave 3
	note G#, 2
	note B_, 4
	note G#, 2
	note F#, 2
	note G#, 2
;Bar 2
	note F#, 2
	octave 4
	note C#, 2
	octave 3
	note G#, 2
	note B_, 6
	note __, 4
;Bar 3
	octave 4
	note C#, 2
	octave 3
	note B_, 2
	note G#, 2
	note B_, 4
	octave 4
	note C#, 2
	octave 3
	note B_, 4
;Bar 4
	note F#, 2
	note E_, 2
	octave 2
	note B_, 2
	octave 3
	note C#, 6
	note __, 4
;Bar 5
	note C#, 2
	note D#, 2
	note E_, 2
	note F#, 4
	note G#, 2
	note F#, 2
	note E_, 2
;Bar 6
	note B_, 2
	note G#, 2
	note F#, 2
	note G#, 4
	note B_, 2
	note G#, 4
;Bar 7
	octave 4
	note C#, 2
	octave 3
	note B_, 2
	note G#, 2
	note B_, 4
	note G#, 2
	note F#, 2
	note G#, 2
;Bar 8
	note F#, 2
	note D#, 2
	octave 2
	note B_, 2
	octave 3
	note C#, 4
	note D#, 2
	octave 2
	note B_, 4
;Bar 9
	octave 3
	note C#, 2
	note D#, 4
	note E_, 4
	note F#, 4
	note E_, 6
;Bar 10
	note C#, 2
	octave 2
	note B_, 2
	note G#, 4
	note B_, 4
;Bar 11
	octave 3
	note D#, 2
	octave 2
	note B_, 4
	note G#, 4
	note B_, 4
	octave 3
	note C#, 4
;Bar 12
	note D#, 2
	octave 2
	note B_, 2
	note G#, 2
	note B_, 4
	octave 3
	note C#, 4
;Bar 13
	note F#, 2
	octave 4
	note C#, 2
	octave 3
	note G#, 2
	note B_, 4
	note G#, 2
	note F#, 2
	note G#, 2
;Bar 14
	note F#, 2
	octave 4
	note C#, 2
	octave 3
	note G#, 2
	note B_, 6
	note __, 4
;Bar 15
	octave 4
	note C#, 2
	octave 3
	note B_, 2
	note G#, 2
	note B_, 4
	octave 4
	note C#, 2
	octave 3
	note B_, 4
;Bar 16
	note F#, 2
	note E_, 2
	octave 2
	note B_, 2
	octave 3
	note C#, 6
	note __, 4
;Bar 17
	note C#, 2
	note D#, 2
	note E_, 2
	note F#, 4
	note G#, 2
	note F#, 2
	note E_, 2
;Bar 18
	note B_, 2
	note G#, 2
	note F#, 2
	note G#, 4
	note B_, 2
	note G#, 4
;Bar 19
	octave 4
	note C#, 2
	octave 3
	note B_, 2
	note G#, 2
	note B_, 4
	note G#, 2
	note F#, 2
	note G#, 2
;Bar 20
	note F#, 2
	note D#, 2
	octave 2
	note B_, 2
	octave 3
	note C#, 4
	note D#, 2
	octave 2
	note B_, 4
;Bar 21
	octave 3
	note C#, 2
	note D#, 4
	note E_, 4
	note F#, 4
	note E_, 6
;Bar 22
	note C#, 2
	octave 2
	note B_, 2
	note G#, 4
	note B_, 4
;Bar 23
	octave 3
	note D#, 2
	octave 2
	note B_, 4
	note G#, 4
	note B_, 4
	octave 3
	note C#, 4
;Bar 24
	note D#, 2
	octave 2
	note B_, 2
	note G#, 2
	note B_, 4
	octave 3
	note C#, 4
;Bar 25
	note C#, 8
	octave 2
	note B_, 8
;Bar 26
	octave 3
	note D#, 8
	octave 2
	note B_, 8
;Bar 27
	octave 3
	note E_, 8
	note D#, 8
;Bar 28
	note C#, 8
	octave 2
	note B_, 8
;Bar 29
	octave 3
	note C#, 8
	octave 2
	note B_, 8
;Bar 30
	octave 3
	note D#, 8
	octave 2
	note B_, 8
;Bar 31
	octave 3
	note E_, 8
	note D#, 8
;Bar 32
	note C#, 8
	octave 2
	note B_, 8	
	sound_loop 0, .mainloop

Music_MtMoonSquare_Ch2:
	duty_cycle 2
	notetype 12, $a7
.mainloop:
	octave 2
	note C#, 2
	note G#, 1
	note __, 1
	note F#, 2
	note E_, 2
	note F#, 1
	note __, 1
	note E_, 2
	note C#, 2
	note E_, 2
;Bar 2
	note C#, 2
	note G#, 1
	note __, 1
	note F#, 2
	note E_, 2
	note F#, 1
	note __, 1
	note E_, 2
	note C#, 2
	note E_, 2
;Bar 3
	note B_, 2
	note F#, 1
	note __, 1
	note E_, 2
	note D#, 2
	note E_, 1
	note __, 1
	note D#, 2
	note B_, 2
	note D#, 2
;Bar 4
	note B_, 2
	note F#, 1
	note __, 1
	note E_, 2
	note D#, 2
	note E_, 1
	note __, 1
	note D#, 2
	note B_, 2
	sound_loop 0, .mainloop
