Music_Peely:
	channel_count 4
	channel 1, Music_Peely_Ch1
	channel 2, Music_Peely_Ch2
	channel 3, Music_Peely_Ch3
	channel 4, Music_Peely_Ch4

Music_Peely_Ch1:
	tempo 213
	duty_cycle 2
	transpose 1,0
	vibrato 18, 1, 5
	note_type 12, 11, 7
.mainloop:
	octave 4
	note C_, 4
	octave 3
	note A#, 1
	note __, 1
	octave 4
	note C_, 1
	octave 3
	note A#, 1
	note __, 8
;Bar 2
	note A#, 4
	note G_, 1
	note __, 1
	note A#, 1
	note A#, 1
	note __, 8
;Bar 3
	octave 4
	note C_, 4
	octave 3
	note A#, 1
	note __, 1
	octave 4
	note C_, 1
	octave 3
	note A#, 1
	note __, 8
;Bar 4
	octave 4
	note D#, 4
	note D_, 1
	note __, 1
	octave 3
	note A#, 1
	octave 4
	note C_, 1
	note __, 8
;Bar 5
	note C_, 4
	octave 3
	note A#, 1
	note __, 1
	octave 4
	note C_, 1
	octave 3
	note A#, 1
	note __, 8
;Bar 6
	note A#, 4
	note G_, 1
	note __, 1
	note A#, 1
	note A#, 1
	note __, 8
;Bar 7
	octave 4
	note C_, 4
	octave 3
	note A#, 1
	note __, 1
	octave 4
	note C_, 1
	octave 3
	note A#, 1
	note __, 8
;Bar 8
	octave 4
	note D#, 4
	note D_, 1
	note __, 1
	octave 3
	note A#, 1
	octave 4
	note C_, 1
	note __, 8
;Bar 9
	note C_, 4
	note __, 2
	octave 3
	note A#, 4
	note __, 2
	note G_, 2
	note A#, 2
;Bar 10
	octave 4
	note D_, 4
	note __, 2
	note D#, 4
	note __, 2
	octave 3
	note A#, 4
;Bar 11
	octave 4
	note F_, 4
	note __, 2
	note D#, 4
	note __, 2
	note D_, 2
	note D#, 2
;Bar 12
	note D_, 4
	note __, 2
	octave 3
	note A#, 4
	note __, 2
	note G_, 4
;Bar 13
	octave 4
	note C_, 4
	octave 3
	note A#, 1
	note __, 1
	octave 4
	note C_, 1
	octave 3
	note A#, 1
	note __, 8
;Bar 14
	note A#, 4
	note G_, 1
	note __, 1
	note A#, 1
	note A#, 1
	note __, 8
;Bar 15
	octave 4
	note C_, 4
	octave 3
	note A#, 1
	note __, 1
	octave 4
	note C_, 1
	octave 3
	note A#, 1
	note __, 8
;Bar 16
	octave 4
	note D#, 4
	note D_, 1
	note __, 1
	octave 3
	note A#, 1
	octave 4
	note C_, 1
	note __, 8
;Bar 17
	note C_, 4
	octave 3
	note A#, 1
	note __, 1
	octave 4
	note C_, 1
	octave 3
	note A#, 1
	note __, 8
;Bar 18
	note A#, 4
	note G_, 1
	note __, 1
	note A#, 1
	note A#, 1
	note __, 8
;Bar 19
	octave 4
	note C_, 4
	octave 3
	note A#, 1
	note __, 1
	octave 4
	note C_, 1
	octave 3
	note A#, 1
	note __, 8
;Bar 20
	octave 4
	note D#, 4
	note D_, 1
	note __, 1
	octave 3
	note A#, 1
	octave 4
	note C_, 1
	note __, 8
;Bar 21
	note C_, 4
	note __, 2
	octave 3
	note A#, 4
	note __, 2
	note G_, 2
	note A#, 2
;Bar 22
	octave 4
	note D_, 4
	note __, 2
	note D#, 4
	note __, 2
	octave 3
	note A#, 4
;Bar 23
	octave 4
	note F_, 4
	note __, 2
	note D#, 4
	note __, 2
	note D_, 2
	note D#, 2
;Bar 24
	note D_, 4
	note __, 2
	octave 3
	note A#, 4
	note __, 2
	note G_, 4
;Bar 25
	octave 4
	note C_, 1
	note D#, 1
	note __, 1
	note C_, 1
	note __, 3
	octave 3
	note A#, 1
	octave 4
	note C_, 1
	note __, 1
	note C_, 1
	note __, 1
	octave 3
	note A#, 1
	octave 4
	note D_, 1
	note __, 1
	octave 3
	note G_, 1
;Bar 26
	note __, 16
;Bar 27
	octave 4
	note C_, 1
	note D#, 1
	note __, 1
	note C_, 1
	note __, 3
	octave 3
	note A#, 1
	octave 4
	note C_, 1
	note __, 1
	note C_, 1
	note __, 1
	octave 3
	note A#, 1
	octave 4
	note D_, 1
	note __, 1
	octave 3
	note G_, 1
;Bar 28
	note __, 16
;Bar 29
	octave 4
	note C_, 1
	note D#, 1
	note __, 1
	note C_, 1
	note __, 3
	octave 3
	note A#, 1
	octave 4
	note C_, 1
	note __, 1
	note C_, 1
	note __, 1
	octave 3
	note A#, 1
	octave 4
	note D_, 1
	note __, 1
	octave 3
	note G_, 1
;Bar 30
	note __, 16
;Bar 31
	octave 4
	note C_, 1
	note D#, 1
	note __, 1
	note C_, 1
	note __, 3
	octave 3
	note A#, 1
	octave 4
	note C_, 1
	note __, 1
	note C_, 1
	note __, 1
	octave 3
	note A#, 1
	octave 4
	note D_, 1
	note __, 1
	octave 3
	note G_, 16
	note G_, 1
	sound_loop 0, .mainloop
	
Music_Peely_Ch2:
	duty_cycle 0
	transpose 1,0
	vibrato 20, 3, 4
	note_type 12, 12, 3

.mainloop:
	octave 2
	note G_, 4
	note C_, 2
	note G_, 4
	note C_, 2
	note G_, 2
	note C_, 2
;Bar 2
	octave 3
	note D_, 4
	octave 2
	note G_, 2
	octave 3
	note D_, 4
	octave 2
	note G_, 2
	octave 3
	note D_, 2
	octave 2
	note G_, 2
;Bar 3
	octave 3
	note C_, 4
	octave 2
	note D#, 2
	octave 3
	note C_, 4
	octave 2
	note D#, 2
	octave 3
	note C_, 2
	octave 2
	note D#, 2
;Bar 4
	note A_, 4
	note C_, 2
	note A_, 4
	note C_, 2
	note A_, 2
	note C_, 2
	sound_loop 0, .mainloop	

Music_Peely_Ch3:
	notetype 12, $a6
.mainloop:
	octave 1
	note C_, 1
	note __, 3
	note D_, 1
	note C_, 1
	note __, 1
	note C_, 1
	note __, 2
	note C_, 1
	note F_, 1
	note D_, 1
	note __, 1
	note F_, 1
	note __, 1
;Bar 2
	note G_, 1
	note __, 3
	note F_, 1
	note G_, 1
	note __, 1
	note G_, 1
	note __, 2
	note A_, 1
	note A#, 1
	note A_, 1
	note __, 1
	note F_, 1
	note __, 1
;Bar 3
	octave 2
	note C_, 1
	note __, 3
	octave 1
	note A#, 1
	octave 2
	note C_, 1
	note __, 1
	note C_, 1
	note __, 2
	note C_, 1
	octave 1
	note A#, 1
	octave 2
	note D_, 1
	note __, 1
	octave 1
	note A#, 1
	note __, 1
;Bar 4
	note F_, 1
	note __, 3
	note D#, 1
	note F_, 1
	note __, 1
	note F_, 1
	note __, 2
	note D#, 1
	note D_, 1
	note C_, 1
	note __, 1
	note D_, 2	
	sound_loop 0, .mainloop

Music_Peely_Ch4:
	toggle_noise 3
	drum_speed 12
.mainloop:
	drum_note 11, 4
	drum_note 3, 3
	drum_note 11, 2
	drum_note 11, 3
	drum_note 3, 4
	drum_note 11, 4
	drum_note 3, 3
	drum_note 11, 2
	drum_note 11, 3
	drum_note 3, 2
	drum_note 11, 2
	sound_loop 0, .mainloop
