Music_RocketTheme:
	channel_count 4
	channel 1, Music_RocketTheme_Ch1
	channel 2, Music_RocketTheme_Ch2
	channel 3, Music_RocketTheme_Ch3
	channel 4, Music_RocketTheme_Ch4

Music_RocketTheme_Ch1:
	tempo 142
	duty_cycle 1
	notetype 12, $a7
.mainloop:
	octave 3
	note F_, 4
	note D#, 2
	note F_, 4
	note G#, 6
;Bar 2
	note __, 2
	note C_, 2
	note D#, 4
	note C_, 6
	note __, 2
;Bar 3
	note F_, 4
	note D#, 2
	note F_, 4
	note G#, 6
;Bar 4
	note __, 2
	note G#, 2
	octave 4
	note C_, 4
	octave 3
	note A#, 6
	note __, 2
;Bar 5
	note F_, 4
	note D#, 2
	note F_, 4
	note G#, 6
;Bar 6
	note __, 2
	note C_, 2
	note D#, 4
	note C_, 6
	note __, 2
;Bar 7
	octave 4
	note C_, 2
	octave 3
	note A#, 2
	note G#, 2
	note D#, 2
	note A#, 2
	note G#, 2
	note G_, 2
	note F_, 2
;Bar 8
	note C_, 2
	note D#, 2
	note F_, 2
	note D#, 2
	note F_, 8
;Bar 9
	note F_, 6
	note D#, 2
	note G#, 6
	note F_, 2
;Bar 10
	note A#, 4
	note G#, 2
	note G_, 4
	note D#, 2
	note __, 4
;Bar 11
	note F_, 6
	note D#, 2
	note G#, 6
	note F_, 2
;Bar 12
	note A#, 4
	octave 4
	note C_, 2
	octave 3
	note G#, 4
	note G_, 2
	note __, 4
;Bar 13
	note F_, 6
	note D#, 2
	note G#, 6
	note F_, 2
;Bar 14
	note A#, 4
	note G#, 2
	note G_, 4
	note D#, 2
	note __, 4
;Bar 15
	note A#, 6
	note G#, 2
	note A#, 6
	note G#, 2
;Bar 16
	octave 4
	note C_, 4
	octave 3
	note G#, 2
	note F_, 4
	note D#, 6
;Bar 17
	note F_, 1
	note __, 1
	note F_, 1
	note __, 1
	note F_, 1
	note __, 1
	note F_, 1
	note __, 1
	note F_, 1
	note __, 1
	note F_, 1
	note __, 5
;Bar 18
	note D#, 1
	note __, 1
	note D#, 1
	note __, 1
	note D#, 1
	note __, 1
	note D#, 4
	note __, 6
;Bar 19
	note C_, 1
	note __, 1
	note C_, 1
	note __, 1
	note C_, 1
	note __, 1
	note C_, 1
	note __, 1
	note C_, 1
	note __, 1
	note C_, 1
	note __, 5
;Bar 20
	note D#, 1
	note __, 1
	note F_, 1
	note __, 1
	note G_, 1
	note __, 1
	note D#, 4
	note __, 6
;Bar 21
	note F_, 1
	note __, 1
	note F_, 1
	note __, 1
	note F_, 1
	note __, 1
	note F_, 1
	note __, 1
	note F_, 1
	note __, 1
	note F_, 1
	note __, 5
;Bar 22
	note D#, 1
	note __, 1
	note D#, 1
	note __, 1
	note D#, 1
	note __, 1
	note D#, 4
	note __, 6
;Bar 23
	note G#, 1
	note __, 1
	note G#, 1
	note __, 1
	note G#, 1
	note __, 1
	note G#, 1
	note __, 1
	note G#, 1
	note __, 1
	note G#, 1
	note __, 5
;Bar 24
	note A#, 1
	note __, 1
	octave 4
	note C_, 1
	note __, 1
	octave 3
	note A#, 1
	note __, 1
	note G#, 4
	note G_, 2
	note D#, 4
	sound_loop 0, .mainloop

Music_RocketTheme_Ch2:
	transpose 1, 0
	duty_cycle 0
	notetype 12, $a7
.mainloop:
	octave 2
	note F_, 2
	note __, 2
	octave 3
	note C_, 2
	note __, 2
	note C_, 2
	note __, 2
	octave 2
	note F_, 2
	octave 3
	note C_, 2
;Bar 2
	note __, 2
	octave 2
	note F_, 2
	octave 3
	note D_, 2
	note __, 2
	note D_, 2
	note __, 2
	note C_, 2
	note __, 2
;Bar 3
	octave 2
	note G#, 2
	note __, 2
	note G#, 2
	note __, 2
	note G#, 2
	note __, 2
	note F_, 2
	note G#, 2
;Bar 4
	note __, 2
	note A#, 2
	note G#, 2
	note __, 2
	note F_, 2
	note __, 2
	sound_loop 0, .mainloop

Music_RocketTheme_Ch3:
	note_type 12, 2, 5
.mainloop:
	octave 1
	note F_, 2
	note __, 2
	note G#, 2
	note __, 2
	note F_, 2
	note __, 2
	note G#, 2
	note __, 2
;Bar 2
	note F_, 2
	note __, 2
	note G#, 2
	note A#, 2
	note __, 2
	octave 2
	note C_, 2
	octave 1
	note A#, 2
	note G#, 2
;Bar 3
	note F_, 2
	note __, 2
	note G#, 2
	note __, 2
	note F_, 2
	note __, 2
	note G#, 2
	note __, 2
;Bar 4
	note F_, 2
	note __, 2
	octave 2
	note D_, 2
	note D#, 2
	note __, 2
	note D_, 2
	octave 1
	note A#, 2
	sound_loop 0, .mainloop
	
Music_RocketTheme_Ch4:
	toggle_noise 3
	drum_speed 12
.mainloop:
	drum_note 11, 4
	drum_note 11, 4
	drum_note 11, 4
	drum_note 11, 4	
	sound_loop 0, .mainloop
