Music_RocketBattle:
	channel_count 4
	channel 1, Music_RocketBattle_Ch1
	channel 2, Music_RocketBattle_Ch2
	channel 3, Music_RocketBattle_Ch3
	channel 4, Music_RocketBattle_Ch4

Music_RocketBattle_Ch1:
	tempo 169
	transpose 1, 0
	duty_cycle 3
	notetype 12, $a7
.mainloop:
	octave 4
	note A_, 2
	note __, 2
	note G_, 2
	note __, 2
	note E_, 2
	note __, 1
	note G_, 2
	note __, 3
;Bar 2
	note G_, 2
	note A_, 2
	note __, 2
	note G_, 8
	note __, 2
;Bar 3
	note G_, 2
	note __, 2
	note G_, 2
	note __, 2
	note E_, 2
	note __, 1
	note D_, 2
	note __, 1
	note E_, 10
;Bar 4
	note __, 8
;Bar 5
	note C_, 2
	note __, 2
	note D_, 2
	note __, 2
	note E_, 2
	note __, 1
	note D_, 2
	note __, 3
;Bar 6
	note E_, 2
	note G_, 2
	note __, 2
	note E_, 8
	note __, 2
;Bar 7
	note C_, 2
	note __, 2
	note D_, 2
	note __, 2
	note E_, 2
	note __, 1
	note D_, 2
	note __, 1
	octave 3
	note A_, 9
;Bar 8
	note __, 9
;Bar 9
	note A_, 2
	note B_, 2
	octave 4
	note C_, 2
	note D_, 2
	note E_, 2
	note __, 2
	note D_, 2
	note __, 2
;Bar 10
	note B_, 2
	note __, 1
	note G_, 2
	note __, 1
	note E_, 8
	note __, 2
;Bar 11
	note G_, 4
	note E_, 4
	note G_, 4
	note A_, 2
	note G_, 12
;Bar 12
	note __, 6
;Bar 13
	octave 5
	note C_, 2
	octave 4
	note B_, 2
	note G_, 2
	note E_, 2
	note A_, 2
	note G_, 2
	note E_, 2
	note D_, 2
;Bar 14
	note G_, 2
	note __, 1
	note E_, 2
	note __, 1
	note G_, 8
	note __, 2
;Bar 15
	octave 3
	note B_, 2
	octave 4
	note C_, 2
	octave 3
	note B_, 2
	note G_, 2
	note A_, 2
	note __, 1
	note G_, 2
	note __, 1
	note A_, 14
;Bar 16
	note __, 4
;Bar 17
	note A_, 2
	note __, 2
	octave 4
	note A_, 2
	note __, 2
	note G_, 2
	note __, 2
	note E_, 2
	note __, 2
;Bar 18
	note G_, 2
	note __, 1
	note E_, 2
	note __, 1
	note G_, 6
	note __, 4
;Bar 19
	note D_, 2
	note __, 2
	note D_, 2
	note __, 2
	note E_, 2
	note __, 1
	note A_, 2
	note __, 1
	note B_, 14
;Bar 20
	note __, 4
;Bar 21
	octave 5
	note C_, 2
	note __, 2
	note C_, 2
	note __, 2
	octave 4
	note B_, 2
	note __, 2
	note G_, 2
	note __, 2
;Bar 22
	note A_, 2
	note __, 1
	note G_, 2
	note __, 1
	note A_, 6
	note __, 4
;Bar 23
	note B_, 2
	octave 5
	note C_, 2
	octave 4
	note B_, 2
	note A_, 2
	note G_, 2
	note __, 1
	note A_, 2
	note __, 1
	note A_, 14
;Bar 24
	note __, 4
;Bar 25
	octave 3
	note A_, 2
	note B_, 2
	octave 4
	note C_, 2
	note D_, 2
	note E_, 2
	note __, 2
	note D_, 2
	note __, 2
;Bar 26
	note B_, 2
	note __, 1
	note G_, 2
	note __, 1
	note E_, 8
	note __, 2
;Bar 27
	note G_, 4
	note E_, 4
	note G_, 4
	note A_, 2
	note G_, 12
;Bar 28
	note __, 6
;Bar 29
	octave 5
	note C_, 2
	octave 4
	note B_, 2
	note G_, 2
	note E_, 2
	note A_, 2
	note G_, 2
	note E_, 2
	note D_, 2
;Bar 30
	note G_, 2
	note __, 1
	note E_, 2
	note __, 1
	note G_, 8
	note __, 2
;Bar 31
	octave 3
	note B_, 2
	octave 4
	note C_, 2
	octave 3
	note B_, 2
	note G_, 2
	note A_, 2
	note __, 1
	note G_, 2
	note __, 1
	note A_, 16
	note A_, 2
	sound_loop 0, .mainloop

Music_RocketBattle_Ch2:
	duty_cycle 0
	transpose 1, 0
	notetype 12, $a7
.mainloop:
	octave 2
	note A_, 8
	note E_, 8
;Bar 2
	note G_, 6
	note A_, 6
	note __, 4
;Bar 3
	note B_, 8
	note G_, 8
;Bar 4
	note E_, 6
	note D_, 6
	note __, 4
;Bar 5
	note G_, 8
	note E_, 8
;Bar 6
	note D_, 6
	note E_, 6
	note __, 4
;Bar 7
	octave 3
	note C_, 4
	octave 2
	note B_, 4
	note A_, 4
	note G_, 2
	note A_, 14
;Bar 8
	note __, 4
;Bar 9
	note A_, 8
	note E_, 8
;Bar 10
	note G_, 6
	note A_, 6
	note __, 4
;Bar 11
	note B_, 8
	note G_, 8
;Bar 12
	note E_, 6
	note D_, 6
	note __, 4
;Bar 13
	note G_, 8
	note E_, 8
;Bar 14
	note D_, 6
	note E_, 6
	note __, 4
;Bar 15
	octave 3
	note C_, 4
	octave 2
	note B_, 4
	note A_, 4
	note G_, 2
	note A_, 14
;Bar 16
	note __, 4
;Bar 17
	note A_, 8
	note E_, 8
;Bar 18
	note G_, 6
	note A_, 6
	note __, 4
;Bar 19
	note B_, 8
	note G_, 8
;Bar 20
	note E_, 6
	note D_, 6
	note __, 4
;Bar 21
	note G_, 8
	note E_, 8
;Bar 22
	note D_, 6
	note E_, 6
	note __, 4
;Bar 23
	octave 3
	note C_, 4
	octave 2
	note B_, 4
	note A_, 4
	note G_, 2
	note A_, 14
;Bar 24
	note __, 4
;Bar 25
	note A_, 8
	note E_, 8
;Bar 26
	note G_, 6
	note A_, 6
	note __, 4
;Bar 27
	note B_, 8
	note G_, 8
;Bar 28
	note E_, 6
	note D_, 6
	note __, 4
;Bar 29
	note G_, 8
	note E_, 8
;Bar 30
	note D_, 6
	note E_, 6
	note __, 4
;Bar 31
	octave 2
	note C_, 4
	octave 1
	note B_, 4
	note A_, 4
	note G_, 2
	note A_, 16
	note A_, 2
	sound_loop 0, .mainloop

Music_RocketBattle_Ch3:
	notetype 12, $a3
.mainloop:
	octave 1
	note A_, 1
	note __, 2
	note A_, 1
	note __, 2
	note A_, 1
	note __, 3
	note A_, 1
	note __, 3
	note A_, 1
	note __, 1
;Bar 2
	note A_, 1
	note __, 2
	note A_, 1
	note __, 2
	note A_, 1
	note __, 3
	note A_, 1
	note __, 3
	note A_, 1
	note __, 1
;Bar 3
	note A_, 1
	note __, 2
	note A_, 1
	note __, 2
	note A_, 1
	note __, 3
	note A_, 1
	note __, 3
	note A_, 1
	note __, 1
;Bar 4
	note B_, 1
	note __, 3
	note B_, 1
	note __, 3
	note A_, 1
	note __, 7
;Bar 5
	note G_, 1
	note __, 2
	note G_, 1
	note __, 2
	note G_, 1
	note __, 3
	note G_, 1
	note __, 3
	note G_, 1
	note __, 1
;Bar 6
	note G_, 1
	note __, 2
	note G_, 1
	note __, 2
	note G_, 1
	note __, 3
	note G_, 1
	note __, 3
	note G_, 1
	note __, 1
;Bar 7
	note G_, 1
	note __, 2
	note G_, 1
	note __, 2
	note G_, 1
	note __, 3
	note G_, 1
	note __, 3
	note G_, 1
	note __, 1
;Bar 8
	note A_, 1
	note __, 3
	note A_, 1
	note __, 3
	note G_, 1
	note __, 7
;Bar 9
	note A_, 1
	note __, 2
	note A_, 1
	note __, 2
	note A_, 1
	note __, 3
	note A_, 1
	note __, 3
	note A_, 1
	note __, 1
;Bar 10
	note A_, 1
	note __, 2
	note A_, 1
	note __, 2
	note A_, 1
	note __, 3
	note A_, 1
	note __, 3
	note A_, 1
	note __, 1
;Bar 11
	note A_, 1
	note __, 2
	note A_, 1
	note __, 2
	note A_, 1
	note __, 3
	note A_, 1
	note __, 3
	note A_, 1
	note __, 1
;Bar 12
	note B_, 1
	note __, 3
	note B_, 1
	note __, 3
	note A_, 1
	note __, 7
;Bar 13
	note G_, 1
	note __, 2
	note G_, 1
	note __, 2
	note G_, 1
	note __, 3
	note G_, 1
	note __, 3
	note G_, 1
	note __, 1
;Bar 14
	note G_, 1
	note __, 2
	note G_, 1
	note __, 2
	note G_, 1
	note __, 3
	note G_, 1
	note __, 3
	note G_, 1
	note __, 1
;Bar 15
	note G_, 1
	note __, 2
	note G_, 1
	note __, 2
	note G_, 1
	note __, 3
	note G_, 1
	note __, 3
	note G_, 1
	note __, 1
;Bar 16
	note A_, 1
	note __, 3
	note A_, 1
	note __, 3
	note G_, 1
	note __, 7
;Bar 17
	note A_, 1
	note __, 2
	note A_, 1
	note __, 2
	note A_, 1
	note __, 3
	note A_, 1
	note __, 3
	note A_, 1
	note __, 1
;Bar 18
	note A_, 1
	note __, 2
	note A_, 1
	note __, 2
	note A_, 1
	note __, 3
	note A_, 1
	note __, 3
	note A_, 1
	note __, 1
;Bar 19
	note A_, 1
	note __, 2
	note A_, 1
	note __, 2
	note A_, 1
	note __, 3
	note A_, 1
	note __, 3
	note A_, 1
	note __, 1
;Bar 20
	note B_, 1
	note __, 3
	note B_, 1
	note __, 3
	note A_, 1
	note __, 7
;Bar 21
	note G_, 1
	note __, 2
	note G_, 1
	note __, 2
	note G_, 1
	note __, 3
	note G_, 1
	note __, 3
	note G_, 1
	note __, 1
;Bar 22
	note G_, 1
	note __, 2
	note G_, 1
	note __, 2
	note G_, 1
	note __, 3
	note G_, 1
	note __, 3
	note G_, 1
	note __, 1
;Bar 23
	note G_, 1
	note __, 2
	note G_, 1
	note __, 2
	note G_, 1
	note __, 3
	note G_, 1
	note __, 3
	note G_, 1
	note __, 1
;Bar 24
	note A_, 1
	note __, 3
	note A_, 1
	note __, 3
	note G_, 1
	note __, 7
;Bar 25
	note A_, 1
	note __, 2
	note A_, 1
	note __, 2
	note A_, 1
	note __, 3
	note A_, 1
	note __, 3
	note A_, 1
	note __, 1
;Bar 26
	note A_, 1
	note __, 2
	note A_, 1
	note __, 2
	note A_, 1
	note __, 3
	note A_, 1
	note __, 3
	note A_, 1
	note __, 1
;Bar 27
	note A_, 1
	note __, 2
	note A_, 1
	note __, 2
	note A_, 1
	note __, 3
	note A_, 1
	note __, 3
	note A_, 1
	note __, 1
;Bar 28
	note B_, 1
	note __, 3
	note B_, 1
	note __, 3
	note A_, 1
	note __, 7
;Bar 29
	note G_, 1
	note __, 2
	note G_, 1
	note __, 2
	note G_, 1
	note __, 3
	note G_, 1
	note __, 3
	note G_, 1
	note __, 1
;Bar 30
	note G_, 1
	note __, 2
	note G_, 1
	note __, 2
	note G_, 1
	note __, 3
	note G_, 1
	note __, 3
	note G_, 1
	note __, 1
;Bar 31
	note G_, 1
	note __, 2
	note G_, 1
	note __, 2
	note G_, 1
	note __, 3
	note G_, 1
	note __, 3
	note G_, 1
	note __, 1
;Bar 32
	note A_, 1
	note __, 3
	note A_, 1
	note __, 3
	note G_, 8
	sound_loop 0, .mainloop

Music_RocketBattle_Ch4:
	toggle_noise 4
	drum_speed 12
.mainloop:
	drum_note 11, 4
	drum_note 3, 3
	drum_note 11, 2
	drum_note 11, 3
	drum_note 3, 4
	drum_note 11, 4
	drum_note 3, 3
	drum_note 11, 2
	drum_note 11, 3
	drum_note 3, 2
	drum_note 11, 2
	sound_loop 0, .mainloop
