Music_Route3:
	channel_count 4
	channel 1, Music_Route3_Ch1
	channel 2, Music_Route3_Ch2
	channel 3, Music_Route3_Ch3
	channel 4, Music_Route3_Ch4

Music_Route3_Ch1:
	tempo 169
	duty_cycle 0
	transpose 1,0
	vibrato 16, 2, 2
	notetype 12, $a7
.mainloop:
	octave 3
	note C_, 16
;Bar 2
	note D#, 4
	note F_, 2
	note A_, 14
;Bar 3
	note A#, 2
	note __, 2
	note A_, 2
	note __, 2
	note A#, 2
	note __, 2
;Bar 4
	octave 4
	note C_, 2
	note __, 1
	octave 3
	note A#, 2
	note __, 1
	note A_, 10
;Bar 5
	octave 4
	note D#, 16
;Bar 6
	note G_, 2
	note F_, 2
	note D#, 2
	note F_, 10
;Bar 7
	note __, 4
	note F_, 2
	note __, 2
	note F_, 2
	note __, 2
	note D#, 2
	note __, 2
;Bar 8
	note G_, 2
	note F_, 2
	note D#, 2
	note C_, 8
	note __, 2
;Bar 9
	octave 3
	note F_, 16
;Bar 10
	note A_, 4
	note A#, 2
	note F_, 12
;Bar 11
	note __, 2
	note A_, 2
	note __, 2
	note A_, 2
	note __, 2
	note G_, 2
	note __, 2
;Bar 12
	note A_, 2
	note A#, 4
	octave 4
	note C_, 10
;Bar 13
	octave 3
	note F_, 16
;Bar 14
	note A_, 4
	note A#, 2
	octave 4
	note C_, 14
;Bar 15
	note D#, 2
	note D_, 2
	octave 3
	note A#, 4
	note A_, 4
;Bar 16
	note D#, 2
	note __, 1
	note A_, 2
	note __, 1
	note F_, 8
	note __, 2
;Bar 17
	note F_, 4
	note __, 2
	note A_, 4
	note __, 2
	note F_, 4
;Bar 18
	note A#, 2
	note __, 1
	octave 4
	note C_, 2
	note __, 1
	octave 3
	note A_, 6
	note __, 4
;Bar 19
	note F_, 4
	note __, 2
	note D#, 4
	note __, 2
	note F_, 4
;Bar 20
	note A#, 2
	note __, 1
	note A_, 2
	note __, 1
	note F_, 6
	note __, 4
;Bar 21
	note F_, 4
	note __, 2
	note A#, 4
	note __, 2
	note A_, 4
;Bar 22
	note F_, 4
	note D#, 2
	note F_, 6
	note __, 4
;Bar 23
	note A_, 4
	note __, 2
	note F_, 4
	note __, 2
	note D#, 2
	note C_, 2
;Bar 24
	note D#, 2
	note __, 1
	note G_, 2
	note __, 1
	note F_, 6
	note __, 4
;Bar 25
	note C_, 16
;Bar 26
	note D#, 4
	note F_, 2
	note A_, 14
;Bar 27
	note A#, 2
	note __, 2
	note A_, 2
	note __, 2
	note A#, 2
	note __, 2
;Bar 28
	octave 4
	note C_, 2
	note __, 1
	octave 3
	note A#, 2
	note __, 1
	note A_, 10
;Bar 29
	octave 4
	note D#, 16
;Bar 30
	note G_, 2
	note F_, 2
	note D#, 2
	note F_, 10
;Bar 31
	note __, 4
	note F_, 2
	note __, 2
	note F_, 2
	note __, 2
	note D#, 2
	note __, 2
;Bar 32
	note G_, 2
	note F_, 2
	note D#, 2
	note C_, 8
	note __, 2
;Bar 33
	octave 3
	note F_, 16
;Bar 34
	note A_, 4
	note A#, 2
	note F_, 12
;Bar 35
	note __, 2
	note A_, 2
	note __, 2
	note A_, 2
	note __, 2
	note G_, 2
	note __, 2
;Bar 36
	note A_, 2
	note A#, 4
	octave 4
	note C_, 10
;Bar 37
	octave 3
	note F_, 16
;Bar 38
	note A_, 4
	note A#, 2
	octave 4
	note C_, 14
;Bar 39
	note D#, 2
	note D_, 2
	octave 3
	note A#, 4
	note A_, 4
;Bar 40
	note D#, 2
	note __, 1
	note A_, 2
	note __, 1
	note F_, 8
	note __, 2
;Bar 41
	note F_, 4
	note __, 2
	note A_, 4
	note __, 2
	note F_, 4
;Bar 42
	note A#, 2
	note __, 1
	octave 4
	note C_, 2
	note __, 1
	octave 3
	note A_, 6
	note __, 4
;Bar 43
	note F_, 4
	note __, 2
	note D#, 4
	note __, 2
	note F_, 4
;Bar 44
	note A#, 2
	note __, 1
	note A_, 2
	note __, 1
	note F_, 6
	note __, 4
;Bar 45
	note F_, 4
	note __, 2
	note A#, 4
	note __, 2
	note A_, 4
;Bar 46
	note F_, 4
	note D#, 2
	note F_, 6
	note __, 4
;Bar 47
	note A_, 4
	note __, 2
	note F_, 4
	note __, 2
	note D#, 2
	note C_, 2
;Bar 48
	note D#, 2
	note __, 1
	note G_, 2
	note __, 1
	note F_, 6
	note __, 4
;Bar 49
	note A#, 4
	note __, 2
	note A_, 4
	note __, 2
	note F_, 4
;Bar 50
	note D#, 2
	note F_, 2
	note D#, 2
	note F_, 6
	note __, 4
;Bar 51
	note A#, 4
	note __, 2
	note A_, 4
	note __, 2
	note A#, 4
;Bar 52
	octave 4
	note C_, 2
	note __, 1
	octave 3
	note A#, 2
	note __, 1
	note A_, 6
	note __, 4
;Bar 53
	note A#, 4
	note __, 2
	note A_, 4
	note __, 2
	note F_, 4
;Bar 54
	note D#, 2
	note F_, 2
	note D#, 2
	note C_, 6
	note __, 4
;Bar 55
	note D#, 4
	note __, 2
	note F_, 4
	note __, 2
	note D#, 4
;Bar 56
	note F_, 2
	note __, 1
	note A_, 2
	note __, 1
	note F_, 6
	note __, 4
;Bar 57
	note A#, 4
	note __, 2
	note A_, 4
	note __, 2
	note F_, 4
;Bar 58
	note D#, 2
	note F_, 2
	note D#, 2
	note F_, 6
	note __, 4
;Bar 59
	note A#, 4
	note __, 2
	note A_, 4
	note __, 2
	note A#, 4
;Bar 60
	octave 4
	note C_, 2
	note __, 1
	octave 3
	note A#, 2
	note __, 1
	note A_, 6
	note __, 4
;Bar 61
	note A#, 4
	note __, 2
	note A_, 4
	note __, 2
	note F_, 4
;Bar 62
	note D#, 2
	note F_, 2
	note D#, 2
	note C_, 6
	note __, 4
;Bar 63
	note D#, 4
	note __, 2
	note F_, 4
	note __, 2
	note D#, 4
;Bar 64
	note F_, 2
	note __, 1
	note A_, 2
	note __, 1
	note F_, 6
	note __, 4
;Bar 65
	note F_, 4
	note __, 2
	note A_, 4
	note __, 2
	note F_, 4
;Bar 66
	note A#, 2
	note __, 1
	octave 4
	note C_, 2
	note __, 1
	octave 3
	note A_, 6
	note __, 4
;Bar 67
	note F_, 4
	note __, 2
	note D#, 4
	note __, 2
	note F_, 4
;Bar 68
	note A#, 2
	note __, 1
	note A_, 2
	note __, 1
	note F_, 6
	note __, 4
;Bar 69
	note F_, 4
	note __, 2
	note A#, 4
	note __, 2
	note A_, 4
;Bar 70
	note F_, 4
	note D#, 2
	note F_, 6
	note __, 4
;Bar 71
	note A_, 4
	note __, 2
	note F_, 4
	note __, 2
	note D#, 2
	note C_, 2
;Bar 72
	note D#, 2
	note __, 1
	note G_, 2
	note __, 1
	note F_, 10
	sound_loop 0, .mainloop
	
Music_Route3_Ch2:
	duty_cycle 2
	vibrato 28, 1, 2
	notetype 12, 2, 7
	transpose 1, 0 
.mainloop:	
	octave 2
	note A_, 2
	note __, 1
	octave 3
	note C_, 2
	note __, 1
	octave 2
	note A_, 2
	note __, 2
	note F_, 2
	note A_, 2
	note __, 2
;Bar 2
	note G_, 2
	note __, 1
	note A#, 2
	note __, 1
	note G_, 2
	note __, 2
	note D_, 2
	note G_, 2
	note __, 2
;Bar 3
	note D_, 2
	note __, 1
	note F_, 2
	note __, 1
	note D_, 2
	note __, 2
	octave 1
	note A#, 2
	octave 2
	note D_, 2
	note __, 2
;Bar 4
	note F_, 2
	note __, 1
	note F_, 2
	note __, 1
	note F_, 2
	note __, 2
	octave 1
	note A_, 2
	octave 2
	note F_, 2
	note __, 2
;Bar 5
	note A_, 2
	note __, 1
	octave 3
	note C_, 2
	note __, 1
	octave 2
	note A_, 2
	note __, 2
	note F_, 2
	note A_, 2
	note __, 2
;Bar 6
	note A#, 2
	note __, 1
	note D_, 2
	note __, 1
	note A#, 2
	note __, 2
	note A#, 2
	note A#, 2
	note __, 2
;Bar 7
	note G_, 2
	note __, 1
	octave 3
	note C_, 2
	note __, 1
	octave 2
	note G_, 2
	note __, 2
	note G_, 2
	note G_, 2
	note __, 2
;Bar 8
	note F_, 2
	note __, 1
	note A_, 2
	note __, 1
	note F_, 2
	note __, 2
	note F_, 2
	note F_, 4
	sound_loop 0, .mainloop	

Music_Route3_Ch3:
	notetype 12, $a6
.mainloop:
	octave 2
	note F_, 6
	note C_, 6
	note D#, 4
;Bar 2
	note F_, 2
	note __, 1
	note D#, 2
	note __, 1
	note F_, 4
	octave 1 ;WARNING: octave 1 isn't supported, won't work correctly
	note A#, 2
	octave 2
	note C_, 2
	note D#, 2
;Bar 3
	note F_, 6
	note C_, 6
	note D#, 4
;Bar 4
	note F_, 2
	note __, 1
	note D#, 2
	note __, 1
	note F_, 4
	octave 1 ;WARNING: octave 1 isn't supported, won't work correctly
	note A#, 2
	octave 2
	note C_, 2
	note D#, 2
;Bar 5
	note F_, 6
	note C_, 6
	note D#, 4
;Bar 6
	note F_, 2
	note __, 1
	note D#, 2
	note __, 1
	note F_, 4
	octave 1 ;WARNING: octave 1 isn't supported, won't work correctly
	note A#, 2
	octave 2
	note C_, 2
	note D#, 2
;Bar 7
	note F_, 6
	note C_, 6
	note D#, 4
;Bar 8
	note F_, 2
	note __, 1
	note D#, 2
	note __, 1
	note F_, 4
	octave 1 ;WARNING: octave 1 isn't supported, won't work correctly
	note A#, 2
	octave 2
	note C_, 2
	note D#, 2

	sound_loop 0, .mainloop

Music_Route3_Ch4:
	toggle_noise 3
	drum_speed 12
.mainloop:
	rest 4
	drum_note 3, 4
	sound_loop 0, .mainloop
