Music_Route26:
	channel_count 4
	channel 1, Music_Route26_Ch1
	channel 2, Music_Route26_Ch2
	channel 3, Music_Route26_Ch3
	channel 4, Music_Route26_Ch4

Music_Route26_Ch1:
	tempo 220
	transpose 1,0
	vibrato 20, 2, 3
	duty_cycle 1
	note_type 12, 10, 7
.mainloop:
	octave 3
	note G_, 2
	octave 4
	note C_, 2
	note E_, 2
	note F_, 4
	note D_, 2
	note E_, 2
	note A#, 4
;Bar 2
	note A_, 4
	note G_, 8
	note __, 2
;Bar 3
	octave 3
	note G_, 2
	octave 4
	note C_, 2
	note E_, 2
	note D_, 4
	octave 3
	note A#, 2
	octave 4
	note C_, 2
	note D_, 4
;Bar 4
	note C_, 2
	octave 3
	note A#, 2
	octave 4
	note C_, 8
	note __, 2
;Bar 5
	octave 3
	note G_, 2
	octave 4
	note C_, 2
	note E_, 2
	note F_, 4
	note E_, 2
	octave 5
	note C_, 4
;Bar 6
	octave 4
	note A#, 4
	note A_, 2
	note G_, 8
	note __, 2
;Bar 7
	note A#, 2
	note A_, 2
	note G_, 2
	note F_, 4
	note D_, 2
	note E_, 2
	note F_, 4
;Bar 8
	note E_, 2
	note D_, 2
	note C_, 8
	note __, 2
;Bar 9
	octave 3
	note G_, 2
	note __, 1
	octave 4
	note C_, 2
	note __, 1
	note E_, 4
	note __, 4
	note F_, 2
;Bar 10
	note G_, 2
	note __, 1
	note F_, 2
	note __, 1
	note E_, 6
	note __, 4
;Bar 11
	octave 3
	note A#, 2
	note __, 1
	octave 4
	note C_, 2
	note __, 1
	note F_, 4
	note __, 4
	note D_, 2
;Bar 12
	note E_, 2
	note __, 1
	note C_, 2
	note __, 1
	octave 3
	note A#, 4
	octave 4
	note C_, 4
	note __, 2
;Bar 13
	octave 3
	note G_, 2
	note __, 1
	octave 4
	note C_, 2
	note __, 1
	octave 3
	note A#, 4
	note __, 4
	octave 4
	note F_, 2
;Bar 14
	note E_, 2
	note __, 1
	note C_, 2
	note __, 1
	octave 3
	note A#, 6
	note __, 4
;Bar 15
	note G_, 2
	note __, 1
	note A#, 2
	note __, 1
	octave 4
	note C_, 4
	note __, 4
	note D_, 1
	note E_, 1
;Bar 16
	note C_, 1
	note __, 1
	note C_, 1
	octave 3
	note A#, 1
	note __, 1
	note A#, 1
	octave 4
	note C_, 8
	note __, 2
;Bar 17
	note C_, 2
	octave 3
	note A#, 4
	note A_, 4
	note G_, 2
	note A#, 2
	octave 4
	note G_, 4
;Bar 18
	note F_, 2
	note D_, 2
	note E_, 8
	note __, 2
;Bar 19
	octave 3
	note A#, 2
	note A_, 4
	note G_, 4
	note A_, 2
	note A#, 2
	octave 4
	note F_, 4
;Bar 20
	octave 3
	note A#, 4
	octave 4
	note C_, 8
	note __, 2
;Bar 21
	note C_, 4
	note G_, 2
	octave 3
	note A#, 4
	octave 4
	note F_, 4
	note E_, 4
;Bar 22
	note C_, 2
	octave 3
	note A#, 2
	octave 4
	note C_, 8
	note __, 2
;Bar 23
	note A_, 4
	note A#, 2
	note A_, 4
	note G_, 2
	note F_, 4
;Bar 24
	note E_, 4
	note F_, 2
	note G_, 8
	note __, 2
;Bar 25
	note C_, 4
	note G_, 2
	octave 3
	note A#, 4
	octave 4
	note F_, 4
	note E_, 4
;Bar 26
	note C_, 2
	octave 3
	note A#, 2
	octave 4
	note C_, 6
	note __, 4
;Bar 27
	note E_, 4
	note F_, 2
	note E_, 4
	note D_, 2
	note C_, 4
;Bar 28
	octave 3
	note A#, 6
	octave 4
	note C_, 8
	note __, 2
;Bar 29
	note C_, 2
	octave 3
	note A#, 4
	note A_, 4
	note G_, 2
	note A#, 2
	octave 4
	note G_, 4
;Bar 30
	note F_, 2
	note D_, 2
	note E_, 8
	note __, 2
;Bar 31
	octave 3
	note A#, 2
	note A_, 4
	note G_, 4
	note A_, 2
	note A#, 2
	octave 4
	note F_, 4
;Bar 32
	octave 3
	note A#, 4
	octave 4
	note C_, 10
	sound_loop 0, .mainloop
	
Music_Route26_Ch2:
	vibrato 20, 2, 3
	duty_cycle 1
	volume 4, 4
	note_type 12, 12, 7
	transpose 1, 0
.mainloop:	
	octave 2
	note D_, 4
	note __, 2
	note D_, 4
	note __, 2
	note D_, 4
;Bar 2
	note F_, 4
	note __, 2
	note F_, 4
	note __, 2
	note F_, 4
;Bar 3
	note E_, 4
	note __, 2
	note E_, 4
	note __, 2
	note E_, 4
;Bar 4
	note D_, 4
	note __, 2
	note D_, 4
	note __, 2
	note D_, 4
	sound_loop 0, .mainloop	

Music_Route26_Ch3:
	vibrato 18, 2, 3
	note_type 12, 2, 4
	vibrato 24, 2, 3
.mainloop:
	octave 1
	note C_, 1
	note G_, 1
	note __, 1
	note A#, 1
	note __, 1
	note A_, 1
	note __, 1
	note G_, 1
	note F_, 1
	note __, 1
	note D_, 1
	note __, 1
	note A_, 1
	note F_, 1
	note G_, 1
	note __, 1
;Bar 2
	note C_, 1
	note G_, 1
	note __, 1
	note A#, 1
	note __, 1
	note A_, 1
	note __, 1
	octave 2
	note D_, 1
	note C_, 1
	note __, 1
	octave 1
	note A#, 1
	note __, 1
	note A_, 1
	note F_, 1
	note G_, 1
	note __, 1
;Bar 3
	note C_, 1
	note G_, 1
	note __, 1
	note A#, 1
	note __, 1
	note A_, 1
	note __, 1
	note G_, 1
	note F_, 1
	note __, 1
	note D_, 1
	note __, 1
	note G_, 1
	note F_, 1
	note G_, 1
	note __, 1
;Bar 4
	note A#, 1
	note A_, 1
	note __, 1
	note G_, 1
	note __, 1
	note F_, 1
	note __, 1
	note G_, 1
	note __, 1
	note A_, 1
	note G_, 1
	note E_, 1
	note D_, 1
	note F_, 1
	note G_, 1
	note F_, 1

	sound_loop 0, .mainloop

Music_Route26_Ch4:
	toggle_noise 3
	drum_speed 12
.mainloop:
	drum_note 11, 3
	drum_note 8, 1
	
	drum_note 3, 3
	drum_note 8, 1
	
	drum_note 11, 2
	drum_note 8, 1
	drum_note 11, 1

	drum_note 3, 3
	drum_note 8, 1
	
	sound_loop 0, .mainloop
