Music_Route36:
	channel_count 4
	channel 1, Music_Route36_Ch1
	channel 2, Music_Route36_Ch2
	channel 3, Music_Route36_Ch3
	channel 4, Music_Route36_Ch4
	
Music_Route36_Ch1:
	tempo 147
	duty_cycle 2
	notetype 12, $a7
.mainloop:
	octave 3
	note G_, 2
	note __, 2
	note C_, 4
	note E_, 2
	note F_, 2
	note __, 2
	note G_, 2
;Bar 2
	note D_, 8
	note C_, 4
	octave 2
	note A_, 4
;Bar 3
	octave 3
	note G_, 2
	note __, 2
	note C_, 4
	note E_, 2
	note F_, 2
	note __, 2
	note G_, 2
;Bar 4
	note A#, 8
	note A_, 4
	note F_, 4
;Bar 5
	note A#, 2
	note __, 2
	octave 4
	note C_, 2
	note __, 2
	octave 3
	note A#, 2
	note A_, 2
	note F_, 2
	note A_, 4
;Bar 6
	note G_, 6
	note E_, 4
	octave 2
	note A#, 4
;Bar 7
	octave 3
	note C_, 2
	note __, 2
	note E_, 2
	note __, 2
	note C_, 2
	note E_, 2
	octave 2
	note A#, 2
	octave 3
	note C_, 14
;Bar 8
	note __, 4
;Bar 9
	note G_, 2
	note __, 2
	note C_, 4
	note E_, 2
	note F_, 2
	note __, 2
	note G_, 2
;Bar 10
	note D_, 8
	note C_, 4
	octave 2
	note A_, 4
;Bar 11
	octave 3
	note G_, 2
	note __, 2
	note C_, 4
	note E_, 2
	note F_, 2
	note __, 2
	note G_, 2
;Bar 12
	note A#, 8
	note A_, 4
	note F_, 4
;Bar 13
	note A#, 2
	note __, 2
	octave 4
	note C_, 2
	note __, 2
	octave 3
	note A#, 2
	note A_, 2
	note F_, 2
	note A_, 4
;Bar 14
	note G_, 6
	note E_, 4
	octave 2
	note A#, 4
;Bar 15
	octave 3
	note C_, 2
	note __, 2
	note E_, 2
	note __, 2
	note C_, 2
	note E_, 2
	octave 2
	note A#, 2
	octave 3
	note G_, 14
;Bar 16
	note __, 4
;Bar 17
	octave 4
	note C_, 4
	octave 3
	note A#, 4
	note A_, 2
	note A#, 2
	note G_, 2
	note F_, 8
;Bar 18
	note __, 2
	note G_, 2
	note A#, 2
	note __, 4
;Bar 19
	octave 4
	note C_, 4
	octave 3
	note A#, 4
	note A_, 2
	note A#, 2
	note A_, 2
	octave 4
	note C_, 8
;Bar 20
	note D_, 4
	octave 3
	note A#, 6
;Bar 21
	octave 4
	note E_, 10
	note D_, 4
	note C_, 8
;Bar 22
	octave 3
	note A#, 2
	octave 4
	note C_, 2
	note D_, 2
	octave 3
	note A#, 2
	octave 4
	note C_, 8
;Bar 23
	octave 3
	note F_, 2
	note G_, 2
	note F_, 2
	note E_, 2
	note C_, 16
	note C_, 2
	sound_loop 0, .mainloop

Music_Route36_Ch2:
	duty_cycle 2
	vibrato 18, 3, 6
	notetype 12, $a7
.mainloop:
	octave 2
	note C_, 1
	note __, 1
	note C_, 1
	note __, 1
	note C_, 1
	note __, 1
	note C_, 1
	note __, 1
	note C_, 1
	note __, 1
	note C_, 1
	note __, 1
	octave 1 ;WARNING: octave 1 isn't supported, won't work correctly
	note B_, 1
	note __, 1
	note B_, 1
	note __, 1
;Bar 2
	note A#, 1
	note __, 1
	note A#, 1
	note __, 1
	note A#, 1
	note __, 1
	note A#, 1
	note __, 1
	note A_, 1
	note __, 1
	note A_, 1
	note __, 1
	note A_, 1
	note __, 1
	note A_, 1
	note __, 1
;Bar 3
	note G_, 1
	note __, 1
	note G_, 1
	note __, 1
	note G_, 1
	note __, 1
	note G_, 1
	note __, 1
	note E_, 1
	note __, 1
	note E_, 1
	note __, 1
	note E_, 1
	note __, 1
	note E_, 1
	note __, 1
;Bar 4
	note F_, 1
	note __, 1
	note F_, 1
	note __, 1
	note F_, 1
	note __, 1
	note F_, 1
	note __, 1
	note F_, 1
	note __, 1
	note F_, 1
	note __, 1
	note A_, 1
	note __, 1
	note A_, 1
	note __, 1
;Bar 5
	octave 2
	note C_, 1
	note __, 1
	note C_, 1
	note __, 1
	note C_, 1
	note __, 1
	note C_, 1
	note __, 1
	note C_, 1
	note __, 1
	note C_, 1
	note __, 1
	octave 1 ;WARNING: octave 1 isn't supported, won't work correctly
	note B_, 1
	note __, 1
	note B_, 1
	note __, 1
;Bar 6
	note A#, 1
	note __, 1
	note A#, 1
	note __, 1
	note A#, 1
	note __, 1
	note A#, 1
	note __, 1
	note A_, 1
	note __, 1
	note A_, 1
	note __, 1
	note A_, 1
	note __, 1
	note A_, 1
	note __, 1
;Bar 7
	note G_, 1
	note __, 1
	note G_, 1
	note __, 1
	note G_, 1
	note __, 1
	note G_, 1
	note __, 1
	note E_, 1
	note __, 1
	note E_, 1
	note __, 1
	note E_, 1
	note __, 1
	note E_, 1
	note __, 1
;Bar 8
	note F_, 1
	note __, 1
	note F_, 1
	note __, 1
	note F_, 1
	note __, 1
	note F_, 1
	note __, 1
	note F_, 1
	note __, 1
	note F_, 1
	note __, 1
	note A_, 1
	note __, 1
	note A_, 1
	note __, 1
;Bar 9
	octave 2
	note C_, 1
	note __, 1
	note C_, 1
	note __, 1
	note C_, 1
	note __, 1
	note C_, 1
	note __, 1
	note C_, 1
	note __, 1
	note C_, 1
	note __, 1
	octave 1 ;WARNING: octave 1 isn't supported, won't work correctly
	note B_, 1
	note __, 1
	note B_, 1
	note __, 1
;Bar 10
	note A#, 1
	note __, 1
	note A#, 1
	note __, 1
	note A#, 1
	note __, 1
	note A#, 1
	note __, 1
	note A_, 1
	note __, 1
	note A_, 1
	note __, 1
	note A_, 1
	note __, 1
	note A_, 1
	note __, 1
;Bar 11
	note G_, 1
	note __, 1
	note G_, 1
	note __, 1
	note G_, 1
	note __, 1
	note G_, 1
	note __, 1
	note E_, 1
	note __, 1
	note E_, 1
	note __, 1
	note E_, 1
	note __, 1
	note E_, 1
	note __, 1
;Bar 12
	note F_, 1
	note __, 1
	note F_, 1
	note __, 1
	note F_, 1
	note __, 1
	note F_, 1
	note __, 1
	note F_, 1
	note __, 1
	note F_, 1
	note __, 1
	note A_, 1
	note __, 1
	note A_, 1
	note __, 1
;Bar 13
	octave 2
	note C_, 1
	note __, 1
	note C_, 1
	note __, 1
	note C_, 1
	note __, 1
	note C_, 1
	note __, 1
	note C_, 1
	note __, 1
	note C_, 1
	note __, 1
	octave 1 ;WARNING: octave 1 isn't supported, won't work correctly
	note B_, 1
	note __, 1
	note B_, 1
	note __, 1
;Bar 14
	note A#, 1
	note __, 1
	note A#, 1
	note __, 1
	note A#, 1
	note __, 1
	note A#, 1
	note __, 1
	note A_, 1
	note __, 1
	note A_, 1
	note __, 1
	note A_, 1
	note __, 1
	note A_, 1
	note __, 1
;Bar 15
	note G_, 1
	note __, 1
	note G_, 1
	note __, 1
	note G_, 1
	note __, 1
	note G_, 1
	note __, 1
	note E_, 1
	note __, 1
	note E_, 1
	note __, 1
	note E_, 1
	note __, 1
	note E_, 1
	note __, 1
;Bar 16
	note F_, 1
	note __, 1
	note F_, 1
	note __, 1
	note F_, 1
	note __, 1
	note F_, 1
	note __, 1
	note F_, 1
	note __, 1
	note F_, 1
	note __, 1
	note A_, 1
	note __, 1
	note A_, 1
	note __, 1
;Bar 17
	octave 2
	note C_, 1
	note __, 1
	note C_, 1
	note __, 1
	note C_, 1
	note __, 1
	note C_, 1
	note __, 1
	note C_, 1
	note __, 1
	note C_, 1
	note __, 1
	octave 1 ;WARNING: octave 1 isn't supported, won't work correctly
	note B_, 1
	note __, 1
	note B_, 1
	note __, 1
;Bar 18
	note A#, 1
	note __, 1
	note A#, 1
	note __, 1
	note A#, 1
	note __, 1
	note A#, 1
	note __, 1
	note A_, 1
	note __, 1
	note A_, 1
	note __, 1
	note A_, 1
	note __, 1
	note A_, 1
	note __, 1
;Bar 19
	note G_, 1
	note __, 1
	note G_, 1
	note __, 1
	note G_, 1
	note __, 1
	note G_, 1
	note __, 1
	note E_, 1
	note __, 1
	note E_, 1
	note __, 1
	note E_, 1
	note __, 1
	note E_, 1
	note __, 1
;Bar 20
	note F_, 1
	note __, 1
	note F_, 1
	note __, 1
	note F_, 1
	note __, 1
	note F_, 1
	note __, 1
	note F_, 1
	note __, 1
	note F_, 1
	note __, 1
	note A_, 1
	note __, 1
	note A_, 1
	note __, 1
;Bar 21
	octave 2
	note C_, 1
	note __, 1
	note C_, 1
	note __, 1
	note C_, 1
	note __, 1
	note C_, 1
	note __, 1
	note C_, 1
	note __, 1
	note C_, 1
	note __, 1
	octave 1 ;WARNING: octave 1 isn't supported, won't work correctly
	note B_, 1
	note __, 1
	note B_, 1
	note __, 1
;Bar 22
	note A#, 1
	note __, 1
	note A#, 1
	note __, 1
	note A#, 1
	note __, 1
	note A#, 1
	note __, 1
	note A_, 1
	note __, 1
	note A_, 1
	note __, 1
	note A_, 1
	note __, 1
	note A_, 1
	note __, 1
;Bar 23
	note G_, 1
	note __, 1
	note G_, 1
	note __, 1
	note G_, 1
	note __, 1
	note G_, 1
	note __, 1
	note E_, 1
	note __, 1
	note E_, 1
	note __, 1
	note E_, 1
	note __, 1
	note E_, 1
	note __, 1
;Bar 24
	note F_, 1
	note __, 1
	note F_, 1
	note __, 1
	note F_, 1
	note __, 1
	note F_, 1
	note __, 1
	note F_, 1
	note __, 1
	note F_, 1
	note __, 1
	note A_, 1
	note __, 1
	note A_, 2
	sound_loop 0, .mainloop

Music_Route36_Ch3:
	note_type 12, 2, 5
	volume $55
.mainloop:
	octave 1
	note C_, 8
	note E_, 4
	note G_, 4
;Bar 2
	note A#, 8
	note A_, 4
	note F_, 4
;Bar 3
	note C_, 8
	note G_, 4
	note E_, 4
;Bar 4
	note A#, 8
	octave 2
	note C_, 4
	octave 1
	note A_, 4
;Bar 5
	note C_, 8
	note E_, 4
	note G_, 4
;Bar 6
	note A#, 8
	note A_, 4
	note F_, 4
;Bar 7
	note C_, 8
	note G_, 4
	note E_, 4
;Bar 8
	note A#, 8
	octave 2
	note C_, 4
	octave 1
	note A_, 4
;Bar 9
	note C_, 8
	note E_, 4
	note G_, 4
;Bar 10
	note A#, 8
	note A_, 4
	note F_, 4
;Bar 11
	note C_, 8
	note G_, 4
	note E_, 4
;Bar 12
	note A#, 8
	octave 2
	note C_, 4
	octave 1
	note A_, 4
;Bar 13
	note C_, 8
	note E_, 4
	note G_, 4
;Bar 14
	note A#, 8
	note A_, 4
	note F_, 4
;Bar 15
	note C_, 8
	note G_, 4
	note E_, 4
;Bar 16
	note A#, 8
	octave 2
	note C_, 4
	octave 1
	note A_, 4
;Bar 17
	note C_, 8
	note E_, 4
	note G_, 4
;Bar 18
	note A#, 8
	note A_, 4
	note F_, 4
;Bar 19
	note C_, 8
	note G_, 4
	note E_, 4
;Bar 20
	note A#, 8
	octave 2
	note C_, 4
	octave 1
	note A_, 4
;Bar 21
	note C_, 8
	note E_, 4
	note G_, 4
;Bar 22
	note A#, 8
	note A_, 4
	note F_, 4
;Bar 23
	note C_, 8
	note G_, 4
	note E_, 4
;Bar 24
	note A#, 8
	octave 2
	note C_, 4
	octave 1
	note A_, 4
	sound_loop 0, .mainloop

Music_Route36_Ch4:
	toggle_noise 4
	drum_speed 12
.mainloop:
	drum_note 11, 3
	drum_note 11, 1
	drum_note 3, 3
	drum_note 11, 1
	drum_note 11, 3
	drum_note 11, 1
	drum_note 3, 3
	drum_note 11, 1
	sound_loop 0, .mainloop
	