Music_Route12:
	channel_count 4
	channel 1, Music_Route12_Ch1
	channel 2, Music_Route12_Ch2
	channel 3, Music_Route12_Ch3
	channel 4, Music_Route12_Ch4

Music_Route12_Ch1:
	tempo 169
	duty_cycle 2
	transpose 1,0
	vibrato 16, 2, 2
	notetype 12, $a7
.mainloop:
	octave 3
	note F#, 1
	note __, 3
	note F#, 1
	note __, 1
	note G#, 1
	note __, 1
	note E_, 1
	note __, 5
	note E_, 1
	note __, 1
;Bar 2
	note B_, 1
	note __, 2
	note A_, 1
	note __, 2
	note G#, 1
	note __, 1
	note F#, 1
	note __, 5
	note F#, 1
	note __, 1
;Bar 3
	note A_, 1
	note __, 5
	note A_, 1
	note __, 1
	note G#, 1
	note __, 5
	note G#, 1
	note __, 1
;Bar 4
	note B_, 1
	note __, 2
	note A_, 1
	note __, 2
	note G#, 1
	note __, 1
	note A_, 1
	note __, 2
	note G#, 1
	note __, 2
	note E_, 1
	note __, 1
;Bar 5
	note F#, 6
	note G#, 2
	note E_, 6
	note F#, 2
;Bar 6
	note G#, 6
	note A_, 2
	note F#, 6
	note F#, 2
;Bar 7
	note A_, 6
	note B_, 2
	note G#, 6
	note F#, 2
;Bar 8
	note B_, 3
	note A_, 3
	note G#, 2
	note A_, 3
	note G#, 3
	note E_, 2
;Bar 9
	note F#, 6
	note G#, 2
	note E_, 6
	note F#, 2
;Bar 10
	note G#, 6
	note A_, 2
	note F#, 6
	note F#, 2
;Bar 11
	note A_, 6
	note B_, 2
	note G#, 6
	note F#, 2
;Bar 12
	note F#, 3
	note E_, 3
	note D#, 2
	note E_, 3
	note D#, 3
	octave 2
	note B_, 2
;Bar 13
	octave 3
	note F#, 2
	note __, 2
	note F#, 2
	note G#, 2
	note E_, 2
	note __, 4
	note E_, 2
;Bar 14
	note B_, 2
	note __, 1
	note A_, 2
	note __, 1
	note G#, 2
	note F#, 2
	note __, 4
	note F#, 2
;Bar 15
	note A_, 2
	note __, 4
	note A_, 2
	note G#, 2
	note __, 4
	note G#, 2
;Bar 16
	note B_, 2
	note __, 1
	note A_, 2
	note __, 1
	note G#, 2
	note A_, 2
	note __, 1
	note G#, 2
	note __, 1
	note E_, 2
;Bar 17
	note F#, 1
	note F#, 1
	note __, 1
	note F#, 1
	note F#, 1
	note __, 1
	note G#, 2
	note E_, 1
	note E_, 1
	note __, 1
	note E_, 1
	note E_, 1
	note __, 1
	note F#, 2
;Bar 18
	note G#, 1
	note G#, 1
	note __, 1
	note G#, 1
	note G#, 1
	note __, 1
	note A_, 2
	note F#, 1
	note F#, 1
	note __, 1
	note F#, 1
	note F#, 1
	note __, 1
	note F#, 2
;Bar 19
	note A_, 1
	note A_, 1
	note __, 1
	note A_, 1
	note A_, 1
	note __, 1
	note B_, 2
	note G#, 1
	note G#, 1
	note __, 1
	note G#, 1
	note G#, 1
	note __, 1
	note F#, 2
;Bar 20
	note B_, 1
	note __, 2
	note A_, 1
	note __, 2
	note G#, 1
	note __, 1
	note A_, 1
	note __, 2
	note G#, 1
	note __, 2
	note E_, 2
	sound_loop 0, .mainloop
	
Music_Route12_Ch2:
	duty_cycle 1
	notetype 12, $a7
	vibrato 1, 4, 4
	transpose 1, 0 
.mainloop:	
	octave 2
	note F#, 1
	note __, 1
	note F#, 1
	note __, 1
	note F#, 1
	note __, 1
	note F#, 1
	note __, 1
	note E_, 1
	note __, 1
	note E_, 1
	note __, 1
	note E_, 1
	note __, 1
	note E_, 1
	note __, 1
;Bar 2
	note G#, 1
	note __, 1
	note G#, 1
	note __, 1
	note G#, 1
	note __, 1
	note G#, 1
	note __, 1
	note F#, 1
	note __, 1
	note F#, 1
	note __, 1
	note F#, 1
	note __, 1
	note F#, 1
	note __, 1
;Bar 3
	note A_, 1
	note __, 1
	note A_, 1
	note __, 1
	note A_, 1
	note __, 1
	note A_, 1
	note __, 1
	note G#, 1
	note __, 1
	note G#, 1
	note __, 1
	note G#, 1
	note __, 1
	note G#, 1
	note __, 1
;Bar 4
	note B_, 1
	note __, 2
	note A_, 1
	note __, 2
	note G#, 1
	note __, 1
	note A_, 1
	note __, 2
	note G#, 1
	note __, 2
	note E_, 1
	note __, 1
;Bar 5
	octave 3
	note C#, 8
	octave 2
	note B_, 8
;Bar 6
	octave 3
	note D#, 8
	note C#, 8
;Bar 7
	note E_, 8
	note D#, 8
;Bar 8
	octave 2
	note B_, 6
	octave 3
	note C#, 10
;Bar 9
	note C#, 8
	octave 2
	note B_, 8
;Bar 10
	octave 3
	note D#, 8
	note C#, 8
;Bar 11
	note E_, 8
	note D#, 8
;Bar 12
	octave 2
	note B_, 6
	octave 3
	note C#, 10
;Bar 13
	note C#, 8
	octave 2
	note B_, 8
;Bar 14
	octave 3
	note D#, 8
	note C#, 8
;Bar 15
	note E_, 8
	note D#, 8
;Bar 16
	octave 2
	note B_, 6
	octave 3
	note C#, 10
;Bar 17
	note C#, 8
	octave 2
	note B_, 8
;Bar 18
	octave 3
	note D#, 8
	note C#, 8
;Bar 19
	note E_, 8
	note D#, 8
;Bar 20
	octave 2
	note B_, 6
	octave 3
	note C#, 10
	sound_loop 0, .mainloop	

Music_Route12_Ch3:
	note_type 12, 2, 6
.mainloop:
	octave 1
	note F#, 1
	note __, 2
	note F#, 1
	note __, 2
	note F#, 1
	note __, 3
	note F#, 1
	note __, 1
	note F#, 1
	note __, 1
	note E_, 1
	note __, 1
;Bar 2
	note G#, 1
	note __, 2
	note G#, 1
	note __, 2
	note G#, 1
	note __, 3
	note G#, 1
	note __, 1
	note G#, 1
	note __, 1
	note F#, 1
	note __, 1
;Bar 3
	note A_, 1
	note __, 2
	note A_, 1
	note __, 2
	note A_, 1
	note __, 3
	note A_, 1
	note __, 1
	note A_, 1
	note __, 1
	note A_, 1
	note __, 1
;Bar 4
	note B_, 1
	note __, 2
	note A_, 1
	note __, 2
	note G#, 1
	note __, 2
	note A_, 1
	note __, 2
	note G#, 1
	note __, 1
	note E_, 1
	note __, 1
;Bar 5
	note F#, 1
	note __, 2
	note F#, 1
	note __, 2
	note F#, 1
	note __, 3
	note F#, 1
	note __, 1
	note F#, 1
	note __, 1
	note E_, 1
	note __, 1
;Bar 6
	note G#, 1
	note __, 2
	note G#, 1
	note __, 2
	note G#, 1
	note __, 3
	note G#, 1
	note __, 1
	note G#, 1
	note __, 1
	note F#, 1
	note __, 1
;Bar 7
	note A_, 1
	note __, 2
	note A_, 1
	note __, 2
	note A_, 1
	note __, 3
	note A_, 1
	note __, 1
	note A_, 1
	note __, 1
	note A_, 1
	note __, 1
;Bar 8
	note B_, 1
	note __, 2
	note A_, 1
	note __, 2
	note G#, 1
	note __, 2
	note A_, 1
	note __, 2
	note G#, 1
	note __, 1
	note E_, 1
	note __, 1
;Bar 9
	note F#, 1
	note __, 2
	note F#, 1
	note __, 2
	note F#, 1
	note __, 3
	note F#, 1
	note __, 1
	note F#, 1
	note __, 1
	note E_, 1
	note __, 1
;Bar 10
	note G#, 1
	note __, 2
	note G#, 1
	note __, 2
	note G#, 1
	note __, 3
	note G#, 1
	note __, 1
	note G#, 1
	note __, 1
	note F#, 1
	note __, 1
;Bar 11
	note A_, 1
	note __, 2
	note A_, 1
	note __, 2
	note A_, 1
	note __, 3
	note A_, 1
	note __, 1
	note A_, 1
	note __, 1
	note A_, 1
	note __, 1
;Bar 12
	note B_, 1
	note __, 2
	note A_, 1
	note __, 2
	note G#, 1
	note __, 2
	note A_, 1
	note __, 2
	note G#, 1
	note __, 1
	note E_, 1
	note __, 1
;Bar 13
	note F#, 1
	note __, 2
	note F#, 1
	note __, 2
	note F#, 1
	note __, 3
	note F#, 1
	note __, 1
	note F#, 1
	note __, 1
	note E_, 1
	note __, 1
;Bar 14
	note G#, 1
	note __, 2
	note G#, 1
	note __, 2
	note G#, 1
	note __, 3
	note G#, 1
	note __, 1
	note G#, 1
	note __, 1
	note F#, 1
	note __, 1
;Bar 15
	note A_, 1
	note __, 2
	note A_, 1
	note __, 2
	note A_, 1
	note __, 3
	note A_, 1
	note __, 1
	note A_, 1
	note __, 1
	note A_, 1
	note __, 1
;Bar 16
	note B_, 1
	note __, 2
	note A_, 1
	note __, 2
	note G#, 1
	note __, 2
	note A_, 1
	note __, 2
	note G#, 1
	note __, 1
	note E_, 1
	note __, 1
;Bar 17
	note F#, 1
	note __, 2
	note F#, 1
	note __, 2
	note F#, 1
	note __, 3
	note F#, 1
	note __, 1
	note F#, 1
	note __, 1
	note E_, 1
	note __, 1
;Bar 18
	note G#, 1
	note __, 2
	note G#, 1
	note __, 2
	note G#, 1
	note __, 3
	note G#, 1
	note __, 1
	note G#, 1
	note __, 1
	note F#, 1
	note __, 1
;Bar 19
	note A_, 1
	note __, 2
	note A_, 1
	note __, 2
	note A_, 1
	note __, 3
	note A_, 1
	note __, 1
	note A_, 1
	note __, 1
	note A_, 1
	note __, 1
;Bar 20
	note B_, 1
	note __, 2
	note A_, 1
	note __, 2
	note G#, 1
	note __, 2
	note A_, 1
	note __, 2
	note G#, 1
	note __, 1
	note E_, 2
	sound_loop 0, .mainloop

Music_Route12_Ch4:
	toggle_noise 3
	drum_speed 12
.mainloop:
	drum_note 11, 2
	drum_note 8, 2
	drum_note 3, 2
	drum_note 8, 2
	sound_loop 0, .mainloop
