Music_Route2:
	channel_count 4
	channel 1, Music_Route2_Ch1
	channel 2, Music_Route2_Ch2
	channel 3, Music_Route2_Ch3
	channel 4, Music_Route2_Ch4

Music_Route2_Ch1:
	tempo 147
	duty_cycle 1
	vibrato 6, 2, 3
	note_type 12, 11, 1
	transpose 1,0
.mainloop:
	octave 4
	note D_, 4
	note C_, 2
	note __, 2
	octave 3
	note A_, 2
	octave 4
	note C_, 2
	note __, 2
	octave 3
	note G_, 2
;Bar 2
	note A_, 2
	octave 4
	note C_, 2
	note D_, 2
	note C_, 4
	note __, 6
;Bar 3
	note D_, 2
	note C_, 2
	note D_, 2
	note C_, 2
	octave 3
	note A_, 2
	octave 4
	note C_, 2
	note __, 2
	octave 3
	note F_, 2
;Bar 4
	note G_, 2
	note A_, 2
	note G_, 2
	note D_, 4
	note __, 6
;Bar 5
	note D_, 2
	note F_, 2
	note A_, 2
	note G_, 4
	note F_, 4
	note __, 2
;Bar 6
	note C_, 2
	note D_, 2
	note G_, 2
	note F_, 4
	note E_, 4
	note __, 2
;Bar 7
	octave 2
	note A_, 2
	octave 3
	note C_, 2
	note F_, 2
	note E_, 4
	note D_, 4
	note __, 2
;Bar 8
	note D_, 2
	note C_, 2
	note D_, 2
	note D_, 4
	note __, 6
;Bar 9
	note A_, 2
	octave 4
	note C_, 2
	octave 3
	note G_, 2
	note A_, 2
	note __, 2
	note A_, 2
	note G_, 2
	note A_, 2
;Bar 10
	octave 4
	note C_, 2
	note D_, 2
	octave 3
	note A_, 2
	octave 4
	note C_, 2
	note __, 8
;Bar 11
	octave 3
	note A_, 2
	octave 4
	note C_, 2
	octave 3
	note G_, 2
	note A_, 2
	note __, 2
	note A_, 2
	note G_, 2
	note A_, 2
;Bar 12
	octave 4
	note D_, 2
	note C_, 2
	octave 3
	note A_, 2
	octave 4
	note C_, 2
	note __, 8
;Bar 13
	note D_, 4
	note C_, 2
	note __, 2
	octave 3
	note A_, 2
	octave 4
	note C_, 2
	note __, 2
	octave 3
	note G_, 2
;Bar 14
	note A_, 2
	octave 4
	note C_, 2
	note D_, 2
	note C_, 4
	note __, 6
;Bar 15
	note D_, 2
	note C_, 2
	note D_, 2
	note C_, 2
	octave 3
	note A_, 2
	octave 4
	note C_, 2
	note __, 2
	octave 3
	note F_, 2
;Bar 16
	note G_, 2
	note A_, 2
	note G_, 2
	note D_, 4
	note __, 6
;Bar 17
	octave 4
	note D_, 2
	note F_, 2
	note A_, 2
	note G_, 4
	note F_, 4
	note __, 2
;Bar 18
	note C_, 2
	note D_, 2
	note G_, 2
	note F_, 4
	note E_, 4
	note __, 2
;Bar 19
	octave 3
	note A_, 2
	octave 4
	note C_, 2
	note F_, 2
	note E_, 4
	note D_, 4
	note __, 2
;Bar 20
	note D_, 2
	note C_, 2
	note D_, 2
	note D_, 4
	note __, 6
;Bar 21
	octave 3
	note A_, 2
	octave 4
	note C_, 2
	octave 3
	note G_, 2
	note A_, 2
	note __, 2
	note A_, 2
	note G_, 2
	note A_, 2
;Bar 22
	octave 4
	note C_, 2
	note D_, 2
	octave 3
	note A_, 2
	octave 4
	note C_, 2
	note __, 8
;Bar 23
	octave 3
	note A_, 2
	octave 4
	note C_, 2
	octave 3
	note G_, 2
	note A_, 2
	note __, 2
	note A_, 2
	note G_, 2
	note A_, 2
;Bar 24
	octave 4
	note D_, 2
	note C_, 2
	octave 3
	note A_, 2
	octave 4
	note C_, 2
	note __, 8
;Bar 25
	octave 5
	note C_, 2
	octave 4
	note A_, 2
	note G_, 2
	note F_, 2
	note __, 8
;Bar 26
	octave 5
	note D_, 2
	note C_, 2
	octave 4
	note A_, 2
	octave 5
	note C_, 2
	note __, 8
;Bar 27
	note D_, 2
	note C_, 2
	octave 4
	note A_, 2
	octave 5
	note C_, 2
	note __, 8
;Bar 28
	octave 4
	note A_, 2
	note G_, 2
	note D_, 2
	note F_, 2
	note __, 8
;Bar 29
	note C_, 2
	octave 3
	note A_, 2
	note G_, 2
	note F_, 2
	note __, 8
;Bar 30
	octave 4
	note D_, 2
	note C_, 2
	octave 3
	note A_, 2
	octave 4
	note C_, 2
	note __, 8
;Bar 31
	note D_, 2
	note C_, 2
	octave 3
	note A_, 2
	octave 4
	note C_, 2
	note __, 8
;Bar 32
	octave 3
	note A_, 2
	note G_, 2
	note D_, 2
	note F_, 10
	sound_loop 0, .mainloop
	
Music_Route2_Ch2:
	duty_cycle 2
	transpose 1,0
	vibrato 8, 2, 4
	note_type 12, 11, 2
.mainloop:	
	octave 2
	note A_, 2
	note D_, 4
	note A_, 2
	note __, 2
	note D_, 4
	note D_, 2
;Bar 2
	note G_, 2
	note C_, 4
	note G_, 2
	note __, 2
	note C_, 4
	note C_, 2
;Bar 3
	octave 3
	note C_, 2
	octave 2
	note F_, 4
	octave 3
	note C_, 2
	note __, 2
	octave 2
	note F_, 4
	note F_, 2
;Bar 4
	note A_, 2
	note D_, 4
	note A_, 2
	note __, 2
	note D_, 4
	note D_, 2
	sound_loop 0, .mainloop	

Music_Route2_Ch3:
	vibrato 22, 1, 5
	note_type 12, 1, 4
.mainloop:
	octave 1
	note D_, 8
	note __, 4
	note D_, 4
;Bar 2
	note C_, 8
	note __, 4
	note C_, 4
;Bar 3
	note F_, 8
	note __, 4
	note F_, 4
;Bar 4
	note D_, 8
	note __, 4
	note D_, 4
	sound_loop 0, .mainloop

Music_Route2_Ch4:
	toggle_noise 3
	drum_speed 12
.mainloop:
	drum_note 11, 4
	drum_note 3, 3
	drum_note 11, 2
	drum_note 11, 3
	drum_note 3, 4
	drum_note 11, 4
	drum_note 3, 3
	drum_note 11, 2
	drum_note 11, 3
	drum_note 3, 2
	drum_note 11, 2
	sound_loop 0, .mainloop
