Music_RuinsOfAlphRadio:
	channel_count 4
	channel 1, Music_RuinsOfAlphRadio_Ch1
	channel 2, Music_RuinsOfAlphRadio_Ch2
	channel 3, Music_RuinsOfAlphRadio_Ch3
	channel 4, Music_RuinsOfAlphRadio_Ch4

Music_RuinsOfAlphRadio_Ch1:
	tempo 240
	duty_cycle 3
	note_type 12, 10, 1
.mainloop:
;Bar 1
	octave 3
	note E_, 3
	note __, 1
	note G_, 5
	note __, 1
	note A_, 2
	note G_, 1
	note __, 1
	note F#, 2
;Bar 2
	note E_, 3
	note __, 1
	note D_, 5
	note __, 1
	note G_, 2
	note B_, 2
	note A_, 2
;Bar 3
	note B_, 3
	note __, 1
	octave 3
	note D_, 5
	note __, 1
	note E_, 2
	note D_, 1
	note __, 1
	note C#, 2
;Bar 4
	octave 2
	note G_, 12
	note __, 4
;Bar 5
	note E_, 3
	note __, 1
	note G_, 5
	note __, 1
	note A_, 2
	note G_, 1
	note __, 1
	note F#, 2
;Bar 6
	note E_, 3
	note __, 1
	note D_, 5
	note __, 1
	note G_, 2
	note B_, 2
	note A_, 2
;Bar 7
	note B_, 3
	note __, 1
	note A_, 5
	note __, 1
	octave 3
	note E_, 2
	note D_, 1
	note __, 1
	note C#, 2
;Bar 8
	octave 2
	note A_, 12
	note __, 4
;Bar 9
	note F#, 6
	note G_, 2
	note A_, 10
;Bar 10
	note __, 2
	note B_, 4
	note A_, 2
	note __, 2
	note G_, 4
;Bar 11
	note E_, 6
	note __, 2
	note F#, 16
	note F#, 4
;Bar 12
	note __, 4
;Bar 13
	note A_, 6
	note G_, 2
	note F#, 10
;Bar 14
	note __, 2
	note G_, 4
	note F#, 2
	note __, 2
	note E_, 4
;Bar 15
	note D_, 6
	note __, 2
	note E_, 16
	note E_, 8
	sound_loop 0, .mainloop

Music_RuinsOfAlphRadio_Ch2:
	duty_cycle 1
	note_type 12, 10, 1
.mainloop:
;Bar 1
	octave 2
	note E_, 8
	note G_, 8
;Bar 2
	note A_, 8
	note G_, 8
;Bar 3
	note F#, 8
	note D_, 8
;Bar 4
	note E_, 16
;Bar 5
	octave 1
	note B_, 8
	octave 2
	note D_, 8
;Bar 6
	note E_, 8
	note D_, 8
;Bar 7
	note C#, 8
	octave 1
	note A_, 8
;Bar 8
	note B_, 16
;Bar 9
	octave 2
	note E_, 8
	note G_, 8
;Bar 10
	note A_, 8
	note G_, 8
;Bar 11
	note F#, 8
	note D_, 8
;Bar 12
	note E_, 16
;Bar 13
	octave 1
	note B_, 8
	octave 2
	note D_, 8
;Bar 14
	note E_, 8
	note D_, 8
;Bar 15
	note C#, 8
	octave 1
	note A_, 8
;Bar 16
	note B_, 16
	sound_loop 0, .mainloop

Music_RuinsOfAlphRadio_Ch3:
	note_type 6, 2, 6
.mainloop:
	octave 1
	note E_, 2
	note B_, 2
	note E_, 2
	note B_, 2
	note G_, 2
	octave 2
	note D_, 2
	octave 1
	note G_, 2
	octave 2
	note D_, 2
;Bar 2
	octave 1
	note A_, 2
	octave 2
	note E_, 2
	octave 1
	note A_, 2
	octave 2
	note E_, 2
	octave 1
	note E_, 2
	note B_, 2
	note E_, 2
	note B_, 2
;Bar 3
	note F#, 2
	octave 2
	note C#, 2
	octave 1
	note F#, 2
	octave 2
	note C#, 2
	octave 1
	note D_, 2
	note A_, 2
	note D_, 2
	note A_, 2
;Bar 4
	note E_, 2
	note B_, 2
	note E_, 2
	note B_, 2
	note E_, 2
	note G_, 2
	note E_, 2
	note B_, 2
;Bar 5
	note E_, 2
	note B_, 2
	note E_, 2
	note B_, 2
	note G_, 2
	octave 2
	note D_, 2
	octave 1
	note G_, 2
	octave 2
	note D_, 2
;Bar 6
	octave 1
	note A_, 2
	octave 2
	note E_, 2
	octave 1
	note A_, 2
	octave 2
	note E_, 2
	octave 1
	note E_, 2
	note B_, 2
	note E_, 2
	note B_, 2
;Bar 7
	note F#, 2
	octave 2
	note C#, 2
	octave 1
	note F#, 2
	octave 2
	note C#, 2
	octave 1
	note D_, 2
	note A_, 2
	note D_, 2
	note A_, 2
;Bar 8
	note E_, 2
	note B_, 2
	note E_, 2
	note B_, 2
	note E_, 2
	note G_, 2
	note E_, 2
	note B_, 2
;Bar 9
	note E_, 2
	note B_, 2
	note E_, 2
	note B_, 2
	note G_, 2
	octave 2
	note D_, 2
	octave 1
	note G_, 2
	octave 2
	note D_, 2
;Bar 10
	octave 1
	note A_, 2
	octave 2
	note E_, 2
	octave 1
	note A_, 2
	octave 2
	note E_, 2
	octave 1
	note E_, 2
	note B_, 2
	note E_, 2
	note B_, 2
;Bar 11
	note F#, 2
	octave 2
	note C#, 2
	octave 1
	note F#, 2
	octave 2
	note C#, 2
	octave 1
	note D_, 2
	note A_, 2
	note D_, 2
	note A_, 2
;Bar 12
	note E_, 2
	note B_, 2
	note E_, 2
	note B_, 2
	note E_, 2
	note G_, 2
	note E_, 2
	note B_, 2
;Bar 13
	note E_, 2
	note B_, 2
	note E_, 2
	note B_, 2
	note G_, 2
	octave 2
	note D_, 2
	octave 1
	note G_, 2
	octave 2
	note D_, 2
;Bar 14
	octave 1
	note A_, 2
	octave 2
	note E_, 2
	octave 1
	note A_, 2
	octave 2
	note E_, 2
	octave 1
	note E_, 2
	note B_, 2
	note E_, 2
	note B_, 2
;Bar 15
	note F#, 2
	octave 2
	note C#, 2
	octave 1
	note F#, 2
	octave 2
	note C#, 2
	octave 1
	note D_, 2
	note A_, 2
	note D_, 2
	note A_, 2
;Bar 16
	note E_, 2
	note B_, 2
	note E_, 2
	note B_, 2
	note E_, 2
	note G_, 2
	note E_, 2
	note B_, 2
	sound_loop 0, .mainloop

Music_RuinsOfAlphRadio_Ch4:
	toggle_noise 4
	drum_speed 12
.mainloop:
	drum_note 11, 4
	drum_note 3, 3
	drum_note 11, 2
	drum_note 11, 3
	drum_note 3, 4
	drum_note 11, 4
	drum_note 3, 3
	drum_note 11, 2
	drum_note 11, 3
	drum_note 3, 2
	drum_note 11, 2
	sound_loop 0, .mainloop
