Music_SproutTower:
	channel_count 4
	channel 1, Music_SproutTower_Ch1
	channel 2, Music_SproutTower_Ch2
	channel 3, Music_SproutTower_Ch3
	channel 4, Music_SproutTower_Ch4
	
Music_SproutTower_Ch1:
	tempo 231
	duty_cycle 0
	vibrato 8, 4, 5
	note_type 12, 10, 3
.mainloop:
	octave 3
	note C_, 10
	octave 2
	note A#, 4
	octave 3
	note C_, 2
;Bar 2
	octave 2
	note A#, 16
;Bar 3
	octave 3
	note D#, 10
	note D#, 4
	note D#, 2
;Bar 4
	note F_, 16
;Bar 5
	note C_, 1
	note C_, 1
	octave 2
	note A#, 1
	octave 3
	note C_, 3
	note C_, 1
	note C_, 2
	note C_, 1
	note C_, 2
	octave 2
	note G_, 2
	note A#, 2
;Bar 6
	note G_, 1
	note G_, 1
	note F_, 1
	note G_, 3
	note A#, 1
	octave 3
	note C_, 2
	octave 2
	note A#, 1
	octave 3
	note C_, 2
	note C_, 2
	octave 2
	note A#, 2
;Bar 7
	octave 3
	note D#, 1
	note D#, 1
	note F_, 1
	note D#, 3
	note D#, 1
	note G_, 2
	note G_, 1
	note F_, 2
	note D#, 2
	note F_, 2
;Bar 8
	note A#, 1
	note A#, 1
	note F_, 1
	note G_, 3
	note D#, 1
	note F_, 2
	note D#, 1
	note C_, 2
	octave 2
	note A#, 2
	octave 3
	note C_, 2
;Bar 9
	note C_, 10
	octave 2
	note A#, 4
	octave 3
	note C_, 2
;Bar 10
	octave 2
	note A#, 16
;Bar 11
	note D#, 10
	note D#, 4
	octave 1
	note A#, 2
;Bar 12
	octave 2
	note C_, 16
;Bar 13
	octave 3
	note C_, 1
	note D#, 1
	note F_, 1
	note G_, 1
	note F_, 1
	note D#, 1
	note F_, 1
	note G_, 1
	note A#, 1
	octave 4
	note C_, 1
	octave 3
	note A#, 1
	note G_, 5
;Bar 14
	note C_, 1
	octave 2
	note A#, 1
	octave 3
	note C_, 1
	note D#, 3
	note C_, 1
	octave 2
	note A#, 1
	octave 3
	note C_, 1
	note D#, 7
;Bar 15
	note C_, 1
	note D#, 1
	note F_, 1
	note G_, 1
	note F_, 1
	note D#, 1
	note F_, 1
	note G_, 1
	note A#, 1
	octave 4
	note C_, 1
	octave 3
	note A#, 1
	note G_, 5
;Bar 16
	octave 4
	note C_, 1
	octave 3
	note A#, 1
	note G_, 1
	note A#, 3
	octave 4
	note C_, 1
	octave 3
	note A#, 1
	note G_, 1
	note A#, 7
	sound_loop 0, .mainloop

Music_SproutTower_Ch2:
	duty_cycle 1
	vibrato 8, 4, 8
	note_type 12, 11, 2
.mainloop:
	octave 2
	note C_, 1
	note __, 1
	note C_, 1
	note A#, 1
	note __, 3
	note G_, 1
	note C_, 1
	note __, 1
	note C_, 1
	note __, 1
	note A#, 1
	note __, 1
	note C_, 1
	note __, 1
;Bar 2
	note D#, 1
	note __, 1
	note D#, 1
	octave 3
	note C_, 1
	note __, 2
	octave 2
	note D#, 1
	note A#, 1
	note D#, 1
	note __, 1
	note D#, 1
	note __, 1
	octave 3
	note C_, 1
	note __, 1
	octave 2
	note A#, 1
	note __, 1
;Bar 3
	note C_, 1
	note __, 1
	note C_, 1
	note A#, 1
	note __, 3
	note G_, 1
	note C_, 1
	note __, 1
	note C_, 1
	note __, 1
	note A#, 1
	note __, 1
	note C_, 1
	note __, 1
;Bar 4
	note G_, 1
	note __, 1
	note F_, 1
	note G_, 1
	note __, 3
	note D#, 1
	note __, 2
	note D#, 1
	note __, 1
	note D#, 1
	note __, 1
	octave 1
	note A#, 1
	note __, 1
;Bar 5
	octave 2
	note C_, 1
	note __, 1
	note C_, 1
	note A#, 1
	note __, 3
	note G_, 1
	note C_, 1
	note __, 1
	note C_, 1
	note __, 1
	note A#, 1
	note __, 1
	note C_, 1
	note __, 1
;Bar 6
	note D#, 1
	note __, 1
	note D#, 1
	octave 3
	note C_, 1
	note __, 2
	octave 2
	note D#, 1
	note A#, 1
	note D#, 1
	note __, 1
	note D#, 1
	note __, 1
	octave 3
	note C_, 1
	note __, 1
	octave 2
	note A#, 1
	note __, 1
;Bar 7
	note C_, 1
	note __, 1
	note C_, 1
	note A#, 1
	note __, 3
	note G_, 1
	note C_, 1
	note __, 1
	note C_, 1
	note __, 1
	note A#, 1
	note __, 1
	note C_, 1
	note __, 1
;Bar 8
	note G_, 1
	note __, 1
	note F_, 1
	note G_, 1
	note __, 3
	note D#, 1
	note __, 2
	note D#, 1
	note __, 1
	note D#, 1
	note __, 1
	octave 1
	note A#, 1
	note __, 1
;Bar 9
	octave 2
	note C_, 1
	note __, 1
	note C_, 1
	note A#, 1
	note __, 3
	note G_, 1
	note C_, 1
	note __, 1
	note C_, 1
	note __, 1
	note A#, 1
	note __, 1
	note C_, 1
	note __, 1
;Bar 10
	note D#, 1
	note __, 1
	note D#, 1
	octave 3
	note C_, 1
	note __, 2
	octave 2
	note D#, 1
	note A#, 1
	note D#, 1
	note __, 1
	note D#, 1
	note __, 1
	octave 3
	note C_, 1
	note __, 1
	octave 2
	note A#, 1
	note __, 1
;Bar 11
	note C_, 1
	note __, 1
	note C_, 1
	note A#, 1
	note __, 3
	note G_, 1
	note C_, 1
	note __, 1
	note C_, 1
	note __, 1
	note A#, 1
	note __, 1
	note C_, 1
	note __, 1
;Bar 12
	note G_, 1
	note __, 1
	note F_, 1
	note G_, 1
	note __, 3
	note D#, 1
	note __, 2
	note D#, 1
	note __, 1
	note D#, 1
	note __, 1
	octave 1
	note A#, 1
	note __, 1
;Bar 13
	octave 2
	note C_, 1
	note __, 1
	note C_, 1
	note A#, 1
	note __, 3
	note G_, 1
	note C_, 1
	note __, 1
	note C_, 1
	note __, 1
	note A#, 1
	note __, 1
	note C_, 1
	note __, 1
;Bar 14
	note D#, 1
	note __, 1
	note D#, 1
	octave 3
	note C_, 1
	note __, 2
	octave 2
	note D#, 1
	note A#, 1
	note D#, 1
	note __, 1
	note D#, 1
	note __, 1
	octave 3
	note C_, 1
	note __, 1
	octave 2
	note A#, 1
	note __, 1
;Bar 15
	note C_, 1
	note __, 1
	note C_, 1
	note A#, 1
	note __, 3
	note G_, 1
	note C_, 1
	note __, 1
	note C_, 1
	note __, 1
	note A#, 1
	note __, 1
	note C_, 1
	note __, 1
;Bar 16
	note G_, 1
	note __, 1
	note F_, 1
	note G_, 1
	note __, 3
	note D#, 1
	note __, 2
	note D#, 1
	note __, 1
	note D#, 1
	note __, 1
	octave 1
	note A#, 2
	sound_loop 0, .mainloop


Music_SproutTower_Ch3:
	vibrato 20, 14, 8
	note_type 12, 1, 4
.mainloop:
	octave 1
	note C_, 1
	note __, 3
	note G_, 1
	note __, 3
	note C_, 1
	note __, 3
	note G_, 1
	note __, 3
;Bar 2
	octave 1 ;WARNING: octave 1 isn't supported, won't work correctly
	note A#, 1
	note __, 3
	octave 1
	note F_, 1
	note __, 3
	octave 1 ;WARNING: octave 1 isn't supported, won't work correctly
	note A#, 1
	note __, 3
	octave 1
	note F_, 1
	note __, 3
;Bar 3
	note C_, 1
	note __, 3
	note G_, 1
	note __, 3
	note C_, 1
	note __, 3
	note G_, 1
	note __, 3
;Bar 4
	octave 1
	note C_, 1
	note __, 3
	octave 1
	note A#, 1
	note __, 3
	note G_, 1
	note __, 3
	note F_, 1
	note __, 3
;Bar 5
	note C_, 1
	note __, 3
	note G_, 1
	note __, 3
	note C_, 1
	note __, 3
	note G_, 1
	note __, 3
;Bar 6
	octave 1 ;WARNING: octave 1 isn't supported, won't work correctly
	note A#, 1
	note __, 3
	octave 1
	note F_, 1
	note __, 3
	octave 1 ;WARNING: octave 1 isn't supported, won't work correctly
	note A#, 1
	note __, 3
	octave 1
	note F_, 1
	note __, 3
;Bar 7
	note C_, 1
	note __, 3
	note G_, 1
	note __, 3
	note C_, 1
	note __, 3
	note G_, 1
	note __, 3
;Bar 8
	octave 1
	note C_, 1
	note __, 3
	octave 1
	note A#, 1
	note __, 3
	note G_, 1
	note __, 3
	note F_, 1
	note __, 3
;Bar 9
	note C_, 1
	note __, 3
	note G_, 1
	note __, 3
	note C_, 1
	note __, 3
	note G_, 1
	note __, 3
;Bar 10
	octave 1 ;WARNING: octave 1 isn't supported, won't work correctly
	note A#, 1
	note __, 3
	octave 1
	note F_, 1
	note __, 3
	octave 1 ;WARNING: octave 1 isn't supported, won't work correctly
	note A#, 1
	note __, 3
	octave 1
	note F_, 1
	note __, 3
;Bar 11
	note C_, 1
	note __, 3
	note G_, 1
	note __, 3
	note C_, 1
	note __, 3
	note G_, 1
	note __, 3
;Bar 12
	octave 1
	note C_, 1
	note __, 3
	octave 1
	note A#, 1
	note __, 3
	note G_, 1
	note __, 3
	note F_, 1
	note __, 3
;Bar 13
	note C_, 1
	note __, 3
	note G_, 1
	note __, 3
	note C_, 1
	note __, 3
	note G_, 1
	note __, 3
;Bar 14
	octave 1 ;WARNING: octave 1 isn't supported, won't work correctly
	note A#, 1
	note __, 3
	octave 1
	note F_, 1
	note __, 3
	octave 1 ;WARNING: octave 1 isn't supported, won't work correctly
	note A#, 1
	note __, 3
	octave 1
	note F_, 1
	note __, 3
;Bar 15
	note C_, 1
	note __, 3
	note G_, 1
	note __, 3
	note C_, 1
	note __, 3
	note G_, 1
	note __, 3
;Bar 16
	octave 1
	note C_, 1
	note __, 3
	octave 1
	note A#, 1
	note __, 3
	note G_, 1
	note __, 3
	note F_, 4
	sound_loop 0, .mainloop

Music_SproutTower_Ch4:
	volume $77
	toggle_noise 4
	drum_speed 12
.mainloop:
	drum_note 11, 3
	drum_note 11, 1
	drum_note 3, 4
	drum_note 11, 3
	drum_note 11, 1
	drum_note 3, 4
	sound_loop 0, .mainloop
	