Music_SSAqua:
	channel_count 4
	channel 1, Music_SSAqua_Ch1
	channel 2, Music_SSAqua_Ch2
	channel 3, Music_SSAqua_Ch3
	channel 4, Music_SSAqua_Ch4

Music_SSAqua_Ch1:
	tempo 128
	duty_cycle 0
	vibrato 18, 1, 5
	transpose 1,0
	note_type 12, 11, 7
.mainloop:
	octave 3
	note A_, 16
;Bar 2
	note E_, 2
	note A_, 2
	note E_, 2
	note D_, 2
	note G_, 4
	note E_, 2
	note G_, 16
	note G_, 2
;Bar 4
	note B_, 8
	note G_, 8
;Bar 5
	note A_, 16
;Bar 6
	note E_, 2
	note A_, 2
	note E_, 2
	note D_, 2
	note G_, 4
	note E_, 2
	note G_, 16
	note G_, 2
;Bar 8
	octave 4
	note C_, 8
	octave 3
	note B_, 8
;Bar 9
	note A_, 16
;Bar 10
	note E_, 2
	note A_, 2
	note E_, 2
	note D_, 2
	note G_, 4
	note E_, 2
	note G_, 16
	note G_, 2
;Bar 12
	note B_, 8
	octave 4
	note C_, 8
;Bar 13
	note D_, 16
;Bar 14
	note C_, 2
	octave 3
	note B_, 2
	note A_, 2
	note G_, 2
	note A_, 4
	note G_, 2
	note A_, 16
	note A_, 2
;Bar 16
	note G_, 8
	note E_, 8
;Bar 17
	note A_, 2
	note __, 2
	note A_, 2
	note E_, 2
	note G_, 2
	note __, 2
	note E_, 2
	note G_, 2
;Bar 18
	note __, 2
	note G_, 2
	note E_, 2
	note __, 2
	note D_, 2
	note __, 2
	note E_, 2
	note __, 2
;Bar 19
	note A_, 2
	note __, 2
	note A_, 2
	note E_, 2
	note G_, 2
	note __, 2
	note E_, 2
	note G_, 2
;Bar 20
	note __, 2
	note E_, 2
	note G_, 2
	note __, 2
	octave 4
	note C_, 2
	note __, 2
	octave 3
	note B_, 2
	note __, 2
;Bar 21
	note A_, 2
	note __, 2
	note A_, 2
	note E_, 2
	note G_, 2
	note __, 2
	note E_, 2
	note G_, 2
;Bar 22
	note __, 2
	note G_, 2
	note E_, 2
	note __, 2
	note D_, 2
	note __, 2
	note E_, 2
	note __, 2
;Bar 23
	note A_, 2
	note __, 2
	note A_, 2
	note E_, 2
	note G_, 2
	note __, 2
	note E_, 2
	note G_, 2
;Bar 24
	note __, 2
	note G_, 2
	note E_, 2
	note __, 2
	note D_, 2
	note __, 2
	octave 2
	note A_, 2
	note __, 2
;Bar 25
	octave 3
	note A_, 16
;Bar 26
	note E_, 2
	note A_, 2
	note E_, 2
	note D_, 2
	note G_, 4
	note E_, 2
	note G_, 16
	note G_, 2
;Bar 28
	note B_, 8
	note G_, 8
;Bar 29
	note A_, 16
;Bar 30
	note E_, 2
	note A_, 2
	note E_, 2
	note D_, 2
	note G_, 4
	note E_, 2
	note G_, 16
	note G_, 2
;Bar 32
	octave 4
	note C_, 8
	octave 3
	note B_, 8
;Bar 33
	note A_, 16
;Bar 34
	note E_, 2
	note A_, 2
	note E_, 2
	note D_, 2
	note G_, 4
	note E_, 2
	note G_, 16
	note G_, 2
;Bar 36
	note B_, 8
	octave 4
	note C_, 8
;Bar 37
	note D_, 16
;Bar 38
	note C_, 2
	octave 3
	note B_, 2
	note A_, 2
	note G_, 2
	note A_, 4
	note G_, 2
	note A_, 16
	note A_, 2
;Bar 40
	note G_, 8
	note E_, 8
;Bar 41
	note A_, 2
	note __, 2
	note A_, 2
	note E_, 2
	note G_, 2
	note __, 2
	note E_, 2
	note G_, 2
;Bar 42
	note __, 2
	note G_, 2
	note E_, 2
	note __, 2
	note D_, 2
	note __, 2
	note E_, 2
	note __, 2
;Bar 43
	note A_, 2
	note __, 2
	note A_, 2
	note E_, 2
	note G_, 2
	note __, 2
	note E_, 2
	note G_, 2
;Bar 44
	note __, 2
	note E_, 2
	note G_, 2
	note __, 2
	octave 4
	note C_, 2
	note __, 2
	octave 3
	note B_, 2
	note __, 2
;Bar 45
	note A_, 2
	note __, 2
	note A_, 2
	note E_, 2
	note G_, 2
	note __, 2
	note E_, 2
	note G_, 2
;Bar 46
	note __, 2
	note G_, 2
	note E_, 2
	note __, 2
	note D_, 2
	note __, 2
	note E_, 2
	note __, 2
;Bar 47
	note A_, 2
	note __, 2
	note A_, 2
	note E_, 2
	note G_, 2
	note __, 2
	note E_, 2
	note G_, 2
;Bar 48
	note __, 2
	note G_, 2
	note E_, 2
	note __, 2
	note D_, 2
	note __, 2
	octave 2
	note A_, 2
	note __, 2
;Bar 49
	note A_, 2
	note B_, 2
	octave 3
	note C_, 2
	note D_, 2
	octave 2
	note B_, 2
	octave 3
	note C_, 2
	note D_, 2
	note E_, 2
;Bar 50
	note G_, 2
	note A_, 2
	note G_, 2
	note E_, 2
	note G_, 4
	note A_, 4
;Bar 51
	octave 4
	note C_, 2
	octave 3
	note B_, 2
	note G_, 2
	note E_, 2
	note B_, 2
	note G_, 2
	note E_, 2
	note D_, 2
;Bar 52
	note E_, 2
	note D_, 2
	note C_, 2
	octave 2
	note B_, 2
	note G_, 4
	note A_, 4

	sound_loop 0, .mainloop
	
Music_SSAqua_Ch2:
	duty_cycle 0
	transpose 1,0
	vibrato 20, 3, 4
	note_type 12, 12, 3
.mainloop:
	octave 2
	note A_, 2
	note __, 2
	note A_, 2
	note __, 2
	note A_, 2
	note A_, 2
	note __, 2
	note A_, 2
;Bar 2
	note __, 2
	note A_, 2
	note __, 2
	note A_, 2
	note G_, 2
	note __, 2
	note G_, 2
	note __, 2
;Bar 3
	note E_, 2
	note __, 2
	note G_, 2
	note E_, 2
	note G_, 2
	note __, 2
	note E_, 2
	note G_, 2
;Bar 4
	note __, 2
	note E_, 2
	note G_, 2
	note E_, 2
	note G_, 2
	note __, 2
	note A_, 4

	sound_loop 0, .mainloop	

Music_SSAqua_Ch3:
	notetype 12, $a6
.mainloop:
	octave 1
	note A_, 1
	note __, 1
	note A_, 1
	note __, 1
	note A_, 1
	note __, 1
	note A_, 1
	note __, 1
	note A_, 1
	note __, 1
	note A_, 1
	note __, 1
	note A_, 1
	note __, 1
	note A_, 1
	note __, 1
;Bar 2
	note E_, 1
	note __, 1
	note E_, 1
	note __, 1
	note E_, 1
	note __, 1
	note E_, 1
	note __, 1
	note E_, 1
	note __, 1
	note E_, 1
	note __, 1
	note E_, 1
	note __, 1
	note E_, 1
	note __, 1
;Bar 3
	note G_, 1
	note __, 1
	note G_, 1
	note __, 1
	note G_, 1
	note __, 1
	note G_, 1
	note __, 1
	note G_, 1
	note __, 1
	note G_, 1
	note __, 1
	note G_, 1
	note __, 1
	note G_, 1
	note __, 1
;Bar 4
	octave 2
	note C_, 1
	note __, 1
	note C_, 1
	note __, 1
	note C_, 1
	note __, 1
	note C_, 1
	note __, 1
	octave 1
	note A_, 1
	note __, 1
	note A_, 1
	note __, 1
	note A_, 1
	note __, 1
	note A_, 2
	sound_loop 0, .mainloop

Music_SSAqua_Ch4:
	toggle_noise 3
	drum_speed 12
.mainloop:
	drum_note 11, 2
	drum_note 8, 2
	
	drum_note 3, 2
	drum_note 8, 1 
	drum_note 11, 1
	
	drum_note 3, 2
	drum_note 8, 2

	sound_loop 0, .mainloop
