Music_Surf:
	channel_count 4
	channel 1, Music_Surf_Ch1
	channel 2, Music_Surf_Ch2
	channel 3, Music_Surf_Ch3
	channel 4, Music_Surf_Ch4

Music_Surf_Ch1:
	tempo 134
	duty_cycle 1
	vibrato 18, 1, 5
	note_type 12, 11, 7
.mainloop:
	octave 3
	note F#, 8
	note C#, 8
;Bar 2
	note D_, 2
	note E_, 2
	note D_, 2
	octave 2
	note B_, 10
;Bar 3
	note A_, 2
	note B_, 2
	octave 3
	note C#, 2
	note D_, 2
	note C#, 2
	octave 2
	note A_, 2
	note F#, 4
;Bar 4
	note A_, 2
	note F#, 2
	note E_, 2
	note F#, 8
	note __, 2
;Bar 5
	octave 3
	note F#, 8
	note C#, 8
;Bar 6
	note B_, 2
	note A_, 2
	note B_, 2
	octave 4
	note C#, 4
	octave 3
	note A_, 6
;Bar 7
	octave 4
	note C#, 2
	note D_, 2
	note C#, 2
	octave 3
	note B_, 2
	note A_, 2
	note B_, 2
	octave 4
	note C#, 2
	octave 3
	note A_, 2
;Bar 8
	octave 4
	note C#, 2
	octave 3
	note A_, 2
	note F#, 2
	note A_, 8
	note __, 2
;Bar 9
	octave 2
	note B_, 2
	octave 3
	note C#, 2
	note D_, 2
	note F#, 4
	note E_, 4
	note G_, 4
;Bar 10
	note F#, 2
	note E_, 2
	note F#, 6
	note __, 4
;Bar 11
	note D_, 2
	note E_, 2
	note F#, 2
	note A_, 4
	note F#, 4
	note B_, 4
;Bar 12
	note A_, 2
	note F#, 2
	note A_, 6
	note __, 4
;Bar 13
	note F#, 2
	note E_, 2
	note F#, 2
	note A_, 8
	note __, 2
;Bar 14
	note F#, 2
	note E_, 2
	note F#, 2
	note B_, 8
	note __, 2
;Bar 15
	note B_, 2
	octave 4
	note C#, 2
	octave 3
	note A_, 2
	note F#, 4
	note E_, 4
	note F#, 4
;Bar 16
	note A_, 2
	note F#, 2
	note A_, 8
	note __, 2
;Bar 17
	note F#, 2
	note __, 1
	note F#, 2
	note __, 1
	note F#, 2
	note F#, 2
	note E_, 2
	note C#, 2
	note D_, 2
;Bar 18
	note C#, 2
	note D_, 2
	note C#, 2
	octave 2
	note B_, 8
	note __, 2
;Bar 19
	octave 3
	note A_, 2
	note __, 1
	note A_, 2
	note __, 1
	note A_, 2
	note A_, 2
	note F#, 2
	note E_, 2
	note F#, 2
;Bar 20
	note A_, 2
	note B_, 2
	note __, 2
	note A_, 8
	note __, 2
;Bar 21
	octave 4
	note D_, 2
	note __, 1
	note D_, 2
	note __, 1
	note D_, 2
	note D_, 2
	note C#, 2
	note D_, 2
	octave 3
	note B_, 2
;Bar 22
	octave 4
	note C#, 2
	note D_, 2
	note C#, 2
	octave 3
	note B_, 8
	note __, 2
;Bar 23
	note A_, 2
	note __, 1
	note A_, 2
	note __, 1
	note A_, 2
	note A_, 2
	note F#, 2
	note A_, 2
	note B_, 2
;Bar 24
	note A_, 2
	note F#, 2
	note B_, 2
	note A_, 8
	note __, 2
;Bar 25
	note B_, 8
	note F#, 8
;Bar 26
	note G_, 12
	note F#, 2
	note E_, 2
;Bar 27
	note B_, 8
	octave 4
	note D_, 8
;Bar 28
	note C#, 12
	octave 3
	note A_, 2
	note F#, 2
;Bar 29
	octave 4
	note D_, 8
	note F#, 8
;Bar 30
	note E_, 12
	note C#, 2
	note D_, 2
;Bar 31
	note C#, 8
	octave 3
	note A_, 8
;Bar 32
	note B_, 16
;Bar 33
	note F#, 2
	note A_, 2
	note F#, 2
	note B_, 4
	octave 4
	note C#, 2
	octave 3
	note A_, 2
	note F#, 4
;Bar 34
	note E_, 4
	note A_, 8
	note __, 2
;Bar 35
	note F#, 2
	note A_, 2
	note F#, 2
	note B_, 4
	octave 4
	note C#, 2
	note D_, 2
	note C#, 4
;Bar 36
	octave 3
	note A_, 4
	octave 4
	note C#, 8
	note __, 2
;Bar 37
	octave 3
	note F#, 2
	note A_, 2
	note F#, 2
	note B_, 4
	octave 4
	note C#, 2
	octave 3
	note A_, 2
	note F#, 4
;Bar 38
	note E_, 4
	note A_, 8
	note __, 2
;Bar 39
	note F#, 2
	note E_, 2
	note F#, 2
	note A_, 4
	note F#, 2
	note A_, 2
	note B_, 6
;Bar 40
	note A_, 2
	note B_, 8
	note __, 2
;Bar 41
	note F#, 2
	note __, 1
	note F#, 2
	note __, 1
	note F#, 2
	note F#, 2
	note E_, 2
	note C#, 2
	note D_, 2
;Bar 42
	note C#, 2
	note D_, 2
	note C#, 2
	octave 2
	note B_, 8
	note __, 2
;Bar 43
	octave 3
	note A_, 2
	note __, 1
	note A_, 2
	note __, 1
	note A_, 2
	note A_, 2
	note F#, 2
	note E_, 2
	note F#, 2
;Bar 44
	note A_, 2
	note B_, 2
	note __, 2
	note A_, 8
	note __, 2
;Bar 45
	octave 4
	note D_, 2
	note __, 1
	note D_, 2
	note __, 1
	note D_, 2
	note D_, 2
	note C#, 2
	note D_, 2
	octave 3
	note B_, 2
;Bar 46
	octave 4
	note C#, 2
	note D_, 2
	note C#, 2
	octave 3
	note B_, 8
	note __, 2
;Bar 47
	note A_, 2
	note __, 1
	note A_, 2
	note __, 1
	note A_, 2
	note A_, 2
	note F#, 2
	note A_, 2
	note B_, 2
;Bar 48
	note A_, 2
	note F#, 2
	note B_, 2
	note A_, 10

	sound_loop 0, .mainloop
	
Music_Surf_Ch2:
	duty_cycle 1
	vibrato 20, 3, 4
	note_type 12, 12, 3
	transpose 1,0
.mainloop:
	octave 2
	note F#, 16
;Bar 2
	note A_, 8
	note G_, 8
;Bar 3
	note F#, 16
;Bar 4
	note B_, 8
	note A_, 8
;Bar 5
	octave 3
	note C#, 16
;Bar 6
	note D_, 8
	octave 2
	note B_, 8
;Bar 7
	note G_, 16
;Bar 8
	note A_, 16
	sound_loop 0, .mainloop	

Music_Surf_Ch3:
	notetype 12, $a6
.mainloop:
	octave 1
	note F#, 1
	note __, 1
	octave 2
	note F#, 1
	note __, 1
	octave 1
	note F#, 1
	note __, 1
	octave 2
	note F#, 1
	note __, 1
	octave 1
	note F#, 1
	note __, 1
	octave 2
	note F#, 1
	note __, 1
	octave 1
	note F#, 1
	note __, 1
	octave 2
	note F#, 1
	note __, 1
;Bar 2
	octave 1
	note D_, 1
	note __, 1
	octave 2
	note D_, 1
	note __, 1
	octave 1
	note D_, 1
	note __, 1
	octave 2
	note D_, 1
	note __, 1
	octave 1
	note D_, 1
	note __, 1
	octave 2
	note D_, 1
	note __, 1
	octave 1
	note D_, 1
	note __, 1
	octave 2
	note D_, 1
	note __, 1
;Bar 3
	octave 1
	note F#, 1
	note __, 1
	octave 2
	note F#, 1
	note __, 1
	octave 1
	note F#, 1
	note __, 1
	octave 2
	note F#, 1
	note __, 1
	octave 1
	note F#, 1
	note __, 1
	octave 2
	note F#, 1
	note __, 1
	octave 1
	note F#, 1
	note __, 1
	octave 2
	note F#, 1
	note __, 1
;Bar 4
	octave 1
	note E_, 1
	note __, 1
	octave 2
	note E_, 1
	note __, 1
	octave 1
	note E_, 1
	note __, 1
	octave 2
	note E_, 1
	note __, 1
	octave 1
	note E_, 1
	note __, 1
	octave 2
	note E_, 1
	note __, 1
	octave 1
	note E_, 1
	note __, 1
	octave 2
	note E_, 1
	note __, 1
;Bar 5
	octave 1
	note C#, 1
	note __, 1
	octave 2
	note C#, 1
	note __, 1
	octave 1
	note C#, 1
	note __, 1
	octave 2
	note C#, 1
	note __, 1
	octave 1
	note C#, 1
	note __, 1
	octave 2
	note C#, 1
	note __, 1
	octave 1
	note C#, 1
	note __, 1
	octave 2
	note C#, 1
	note __, 1
;Bar 6
	octave 1
	note D_, 1
	note __, 1
	octave 2
	note D_, 1
	note __, 1
	octave 1
	note D_, 1
	note __, 1
	octave 2
	note D_, 1
	note __, 1
	octave 1
	note D_, 1
	note __, 1
	octave 2
	note D_, 1
	note __, 1
	octave 1
	note D_, 1
	note __, 1
	octave 2
	note D_, 1
	note __, 1
;Bar 7
	octave 1
	note G_, 1
	note __, 1
	octave 2
	note G_, 1
	note __, 1
	octave 1
	note G_, 1
	note __, 1
	octave 2
	note G_, 1
	note __, 1
	octave 1
	note G_, 1
	note __, 1
	octave 2
	note G_, 1
	note __, 1
	octave 1
	note G_, 1
	note __, 1
	octave 2
	note G_, 1
	note __, 1
;Bar 8
	octave 1
	note F#, 1
	note __, 1
	octave 2
	note F#, 1
	note __, 1
	octave 1
	note F#, 1
	note __, 1
	octave 2
	note F#, 1
	note __, 1
	octave 1
	note F#, 1
	note __, 1
	octave 2
	note F#, 1
	note __, 1
	octave 1
	note F#, 1
	note __, 1
	octave 2
	note F#, 2
	sound_loop 0, .mainloop

Music_Surf_Ch4:
	toggle_noise 3
	drum_speed 12
.mainloop:
	drum_note 11, 2
	drum_note 8, 2
	drum_note 3, 1
	drum_note 8, 1 
	drum_note 3, 1
	drum_note 8, 1

	sound_loop 0, .mainloop
