Music_TinTower:
	channel_count 4
	channel 1, Music_TinTower_Ch1
	channel 2, Music_TinTower_Ch2
	channel 3, Music_TinTower_Ch3
	channel 4, Music_TinTower_Ch4

Music_TinTower_Ch1:
	tempo 245
	transpose 1,0
	duty_cycle 0
	vibrato 8, 4, 5
	note_type 12, 10, 3
.mainloop:
	octave 3
	note C#, 1
	note D#, 1
	note __, 2
	note C#, 1
	note D#, 1
	note __, 2
	note F#, 1
	note __, 2
	note D#, 1
	note __, 2
	note C#, 1
	note __, 1
;Bar 2
	note D#, 1
	note F#, 1
	note __, 2
	note D#, 1
	note F#, 1
	note __, 1
	note G#, 4
	note __, 5
;Bar 3
	note A#, 1
	note G#, 1
	note __, 2
	note G#, 1
	note F#, 1
	note __, 2
	note F#, 1
	note C#, 1
	note __, 1
	note D#, 1
	note __, 2
	note C#, 1
	note __, 1
;Bar 4
	note D#, 1
	note __, 1
	note F#, 1
	note __, 1
	note F#, 1
	note C#, 1
	note __, 1
	note D#, 4
	note __, 5
;Bar 5
	note C#, 1
	note D#, 1
	note __, 2
	note C#, 1
	note D#, 1
	note __, 2
	note F#, 1
	note __, 2
	note D#, 1
	note __, 2
	note C#, 1
	note __, 1
;Bar 6
	note D#, 1
	note F#, 1
	note __, 2
	note D#, 1
	note F#, 1
	note __, 1
	note G#, 4
	note __, 5
;Bar 7
	note A#, 1
	note G#, 1
	note __, 2
	note G#, 1
	note F#, 1
	note __, 2
	note F#, 1
	note C#, 1
	note __, 1
	note D#, 1
	note __, 2
	note C#, 1
	note __, 1
;Bar 8
	note D#, 1
	note __, 1
	note F#, 1
	note __, 1
	note F#, 1
	note C#, 1
	note __, 1
	note D#, 4
	note __, 5
;Bar 9
	note D#, 1
	note F#, 1
	note G#, 1
	octave 4
	note C#, 1
	octave 3
	note A#, 1
	note G#, 1
	note F#, 1
	note D#, 1
	note C#, 1
	note D#, 1
	note F#, 1
	note G#, 1
	note A#, 1
	note G#, 1
	note F#, 1
	note D#, 1
;Bar 10
	octave 2
	note A#, 1
	octave 3
	note C#, 1
	note D#, 1
	note F#, 1
	note G#, 1
	note F#, 1
	note D#, 1
	note C#, 1
	note D#, 1
	note C#, 1
	note D#, 1
	note F#, 1
	note G#, 4
;Bar 11
	note D#, 1
	note F#, 1
	note G#, 1
	octave 4
	note C#, 1
	octave 3
	note A#, 1
	note G#, 1
	note F#, 1
	note D#, 1
	note C#, 1
	note D#, 1
	note F#, 1
	note G#, 1
	note A#, 1
	note G#, 1
	note F#, 1
	note D#, 1
;Bar 12
	octave 2
	note A#, 1
	octave 3
	note C#, 1
	note D#, 1
	note F#, 1
	note G#, 1
	note F#, 1
	note D#, 1
	note C#, 1
	note D#, 1
	note C#, 1
	note D#, 1
	note F#, 1
	note D#, 4
;Bar 13
	note C#, 1
	note D#, 1
	note __, 2
	note C#, 1
	note D#, 1
	note __, 2
	note F#, 1
	note __, 2
	note D#, 1
	note __, 2
	note C#, 1
	note __, 1
;Bar 14
	note D#, 1
	note F#, 1
	note __, 2
	note D#, 1
	note F#, 1
	note __, 1
	note G#, 4
	note __, 5
;Bar 15
	note A#, 1
	note G#, 1
	note __, 2
	note G#, 1
	note F#, 1
	note __, 2
	note F#, 1
	note C#, 1
	note __, 1
	note D#, 1
	note __, 2
	note C#, 1
	note __, 1
;Bar 16
	note D#, 1
	note __, 1
	note F#, 1
	note __, 1
	note F#, 1
	note C#, 1
	note __, 1
	note D#, 4
	note __, 5
;Bar 17
	note C#, 1
	note D#, 1
	note __, 2
	note C#, 1
	note D#, 1
	note __, 2
	note F#, 1
	note __, 2
	note D#, 1
	note __, 2
	note C#, 1
	note __, 1
;Bar 18
	note D#, 1
	note F#, 1
	note __, 2
	note D#, 1
	note F#, 1
	note __, 1
	note G#, 4
	note __, 5
;Bar 19
	note A#, 1
	note G#, 1
	note __, 2
	note G#, 1
	note F#, 1
	note __, 2
	note F#, 1
	note C#, 1
	note __, 1
	note D#, 1
	note __, 2
	note C#, 1
	note __, 1
;Bar 20
	note D#, 1
	note __, 1
	note F#, 1
	note __, 1
	note F#, 1
	note C#, 1
	note __, 1
	note D#, 4
	note __, 5
;Bar 21
	note D#, 1
	note F#, 1
	note G#, 1
	octave 4
	note C#, 1
	octave 3
	note A#, 1
	note G#, 1
	note F#, 1
	note D#, 1
	note C#, 1
	note D#, 1
	note F#, 1
	note G#, 1
	note A#, 1
	note G#, 1
	note F#, 1
	note D#, 1
;Bar 22
	octave 2
	note A#, 1
	octave 3
	note C#, 1
	note D#, 1
	note F#, 1
	note G#, 1
	note F#, 1
	note D#, 1
	note C#, 1
	note D#, 1
	note C#, 1
	note D#, 1
	note F#, 1
	note G#, 4
;Bar 23
	note D#, 1
	note F#, 1
	note G#, 1
	octave 4
	note C#, 1
	octave 3
	note A#, 1
	note G#, 1
	note F#, 1
	note D#, 1
	note C#, 1
	note D#, 1
	note F#, 1
	note G#, 1
	note A#, 1
	note G#, 1
	note F#, 1
	note D#, 1
;Bar 24
	octave 2
	note A#, 1
	octave 3
	note C#, 1
	note D#, 1
	note F#, 1
	note G#, 1
	note F#, 1
	note D#, 1
	note C#, 1
	note D#, 1
	note C#, 1
	note D#, 1
	note F#, 1
	note D#, 4
;Bar 25
	note C#, 8
	note D#, 3
	octave 2
	note A#, 3
	octave 3
	note C#, 10
;Bar 26
	note D#, 6
	note __, 2
;Bar 27
	note G#, 3
	note D#, 3
	note F#, 4
	note D#, 4
	note D#, 2
;Bar 28
	note C#, 3
	note C#, 3
	note D#, 10
;Bar 29
	note C#, 8
	note D#, 3
	octave 2
	note A#, 3
	octave 3
	note C#, 10
;Bar 30
	note D#, 6
	note __, 2
;Bar 31
	note G#, 3
	note D#, 3
	note F#, 4
	note D#, 4
	note D#, 2
;Bar 32
	note C#, 3
	note C#, 3
	note D#, 10
;Bar 33
	note D#, 1
	note F#, 1
	note G#, 1
	octave 4
	note C#, 1
	octave 3
	note A#, 1
	note G#, 1
	note F#, 1
	note D#, 1
	note C#, 1
	note D#, 1
	note F#, 1
	note G#, 1
	note A#, 1
	note G#, 1
	note F#, 1
	note D#, 1
;Bar 34
	octave 2
	note A#, 1
	octave 3
	note C#, 1
	note D#, 1
	note F#, 1
	note G#, 1
	note F#, 1
	note D#, 1
	note C#, 1
	note D#, 1
	note C#, 1
	note D#, 1
	note F#, 1
	note G#, 4
;Bar 35
	note D#, 1
	note F#, 1
	note G#, 1
	octave 4
	note C#, 1
	octave 3
	note A#, 1
	note G#, 1
	note F#, 1
	note D#, 1
	note C#, 1
	note D#, 1
	note F#, 1
	note G#, 1
	note A#, 1
	note G#, 1
	note F#, 1
	note D#, 1
;Bar 36
	octave 2
	note A#, 1
	octave 3
	note C#, 1
	note D#, 1
	note F#, 1
	note G#, 1
	note F#, 1
	note D#, 1
	note C#, 1
	note D#, 1
	note C#, 1
	note D#, 1
	note F#, 1
	note D#, 4
;Bar 37
	octave 2
	note A#, 1
	note __, 2
	note A#, 1
	note __, 2
	note A#, 1
	note __, 2
	octave 3
	note C#, 1
	note __, 2
	octave 2
	note A#, 1
	note __, 1
	note G#, 1
	note __, 1
;Bar 38
	note G#, 1
	note __, 2
	note F#, 1
	note __, 2
	note A#, 4
	note __, 6
;Bar 39
	octave 3
	note D#, 1
	note __, 2
	note C#, 1
	note __, 2
	octave 2
	note A#, 1
	note __, 2
	octave 3
	note C#, 1
	note __, 2
	octave 2
	note A#, 1
	note __, 1
	note G#, 1
	note __, 1
;Bar 40
	note A#, 1
	note __, 2
	note G#, 1
	note __, 2
	note F#, 10
	sound_loop 0, .mainloop
	
Music_TinTower_Ch2:
	duty_cycle 1
	vibrato 8, 4, 8
	note_type 12, 11, 2
	transpose 1, 0
.mainloop:	
	octave 2
	note A#, 16
;Bar 2
	octave 3
	note C#, 16
;Bar 3
	octave 2
	note F#, 16
;Bar 4
	note D#, 16
;Bar 5
	note A#, 16
;Bar 6
	octave 3
	note C#, 16
;Bar 7
	octave 2
	note F#, 16
;Bar 8
	note D#, 16
;Bar 9
	note A#, 16
;Bar 10
	octave 3
	note C#, 16
;Bar 11
	octave 2
	note F#, 16
;Bar 12
	note D#, 16
;Bar 13
	note A#, 16
;Bar 14
	octave 3
	note C#, 16
;Bar 15
	octave 2
	note F#, 16
;Bar 16
	note D#, 16
;Bar 17
	note A#, 16
;Bar 18
	octave 3
	note C#, 16
;Bar 19
	octave 2
	note F#, 16
;Bar 20
	note D#, 16
;Bar 21
	note A#, 16
;Bar 22
	octave 3
	note C#, 16
;Bar 23
	octave 2
	note F#, 16
;Bar 24
	note D#, 16
;Bar 25
	note A#, 16
;Bar 26
	octave 3
	note C#, 16
;Bar 27
	octave 2
	note F#, 16
;Bar 28
	note D#, 16
;Bar 29
	note A#, 16
;Bar 30
	octave 3
	note C#, 16
;Bar 31
	octave 2
	note F#, 16
;Bar 32
	note D#, 16
;Bar 33
	note A#, 16
;Bar 34
	octave 3
	note C#, 16
;Bar 35
	octave 2
	note F#, 16
;Bar 36
	note D#, 16
;Bar 37
	note A#, 16
;Bar 38
	octave 3
	note C#, 16
;Bar 39
	octave 2
	note F#, 16
;Bar 40
	note D#, 16
	sound_loop 0, .mainloop	

Music_TinTower_Ch3:
	vibrato 20, 14, 8
	note_type 12, 2, 4
.mainloop:
	octave 2
	note D#, 8
	note C#, 8
;Bar 2
	octave 1 ;WARNING: octave 1 isn't supported, won't work correctly
	note A#, 8
	octave 2
	note C#, 8
;Bar 3
	note D#, 8
	note F#, 8
;Bar 4
	note G#, 8
	note F#, 8
;Bar 5
	note D#, 8
	note C#, 8
;Bar 6
	octave 1 ;WARNING: octave 1 isn't supported, won't work correctly
	note A#, 8
	octave 2
	note C#, 8
;Bar 7
	note D#, 8
	note F#, 8
;Bar 8
	note G#, 8
	note F#, 8
;Bar 9
	note D#, 8
	note C#, 8
;Bar 10
	octave 1 ;WARNING: octave 1 isn't supported, won't work correctly
	note A#, 8
	octave 2
	note C#, 8
;Bar 11
	note D#, 8
	note F#, 8
;Bar 12
	note G#, 8
	note F#, 8
;Bar 13
	note D#, 8
	note C#, 8
;Bar 14
	octave 1 ;WARNING: octave 1 isn't supported, won't work correctly
	note A#, 8
	octave 2
	note C#, 8
;Bar 15
	note D#, 8
	note F#, 8
;Bar 16
	note G#, 8
	note F#, 8
;Bar 17
	note D#, 8
	note C#, 8
;Bar 18
	octave 1 ;WARNING: octave 1 isn't supported, won't work correctly
	note A#, 8
	octave 2
	note C#, 8
;Bar 19
	note D#, 8
	note F#, 8
;Bar 20
	note G#, 8
	note F#, 8
;Bar 21
	note D#, 8
	note C#, 8
;Bar 22
	octave 1 ;WARNING: octave 1 isn't supported, won't work correctly
	note A#, 8
	octave 2
	note C#, 8
;Bar 23
	note D#, 8
	note F#, 8
;Bar 24
	note G#, 8
	note F#, 8
;Bar 25
	note D#, 8
	note C#, 8
;Bar 26
	octave 1 ;WARNING: octave 1 isn't supported, won't work correctly
	note A#, 8
	octave 2
	note C#, 8
;Bar 27
	note D#, 8
	note F#, 8
;Bar 28
	note G#, 8
	note F#, 8
;Bar 29
	note D#, 8
	note C#, 8
;Bar 30
	octave 1 ;WARNING: octave 1 isn't supported, won't work correctly
	note A#, 8
	octave 2
	note C#, 8
;Bar 31
	note D#, 8
	note F#, 8
;Bar 32
	note G#, 8
	note F#, 8
;Bar 33
	note D#, 8
	note C#, 8
;Bar 34
	octave 1 ;WARNING: octave 1 isn't supported, won't work correctly
	note A#, 8
	octave 2
	note C#, 8
;Bar 35
	note D#, 8
	note F#, 8
;Bar 36
	note G#, 8
	note F#, 8
;Bar 37
	note D#, 8
	note C#, 8
;Bar 38
	octave 1 ;WARNING: octave 1 isn't supported, won't work correctly
	note A#, 8
	octave 2
	note C#, 8
;Bar 39
	note D#, 8
	note F#, 8
;Bar 40
	note G#, 8
	note F#, 8
	sound_loop 0, .mainloop

Music_TinTower_Ch4:
	toggle_noise 3
	drum_speed 12
.mainloop:
	drum_note 11, 3
	drum_note 8, 1
	
	drum_note 3, 3
	drum_note 8, 1
	
	drum_note 11, 2
	drum_note 8, 1
	drum_note 11, 1

	drum_note 3, 3
	drum_note 8, 1
	
	sound_loop 0, .mainloop
