Music_UnionCave:
	channel_count 4
	channel 1, Music_UnionCave_Ch1
	channel 2, Music_UnionCave_Ch2
	channel 3, Music_UnionCave_Ch3
	channel 4, Music_UnionCave_Ch4
	
Music_UnionCave_Ch1:
	tempo 213
	duty_cycle 0
	vibrato 8, 1, 5
	note_type 12, 11, 2
	octave 3
.mainloop:
	note E_, 2
	note __, 2
	note E_, 2
	note E_, 2
	note __, 2
	note D_, 2
	note E_, 2 ; WARNING: Auto-Sync says: Rounded down!
	note __, 2
;Bar 6
	note A_, 2
	note __, 2
	note G_, 2
	note A_, 2
	note __, 2
	note B_, 2
	note A_, 2
	note G_, 2
;Bar 7
	note E_, 2
	note __, 2
	note D_, 2
	note __, 2
	note E_, 2
	note __, 2
	note D_, 2
	note __, 2
;Bar 8
	note D_, 2
	note __, 4
	note D_, 2
	note __, 4
	note D_, 2
	note __, 2
;Bar 9
	note E_, 2
	note __, 2
	note E_, 2
	note E_, 2
	note __, 2
	note D_, 2
	note E_, 2
	note __, 2
;Bar 10
	note A_, 2
	note __, 2
	note G_, 2
	note A_, 2
	note __, 2
	note B_, 2
	note A_, 2
	note G_, 2
;Bar 11
	note E_, 2
	note __, 2
	note D_, 2
	note __, 2
	note E_, 2
	note __, 2
	note D_, 2
	note __, 2
;Bar 12
	note D_, 2
	note __, 4
	note D_, 2
	note __, 4
	note D_, 2
	note __, 2
;Bar 13
	note E_, 2
	note __, 2
	note E_, 2
	note E_, 2
	note __, 2
	note D_, 2
	note E_, 2
	note __, 2
;Bar 14
	note A_, 2
	note __, 2
	note G_, 2
	note A_, 2
	note __, 2
	note B_, 2
	note A_, 2
	note G_, 2
;Bar 15
	note E_, 2
	note __, 2
	note D_, 2
	note __, 2
	note E_, 2
	note __, 2
	note D_, 2
	note __, 2
;Bar 16
	note D_, 2
	note __, 4
	note D_, 2
	note __, 4
	note D_, 2
	note __, 2
;Bar 17
	note E_, 1
	note __, 3
	note E_, 2
	note E_, 1
	note __, 3
	note D_, 2
	note E_, 1
	note __, 3
;Bar 18
	note A_, 1
	note __, 3
	note G_, 2
	note A_, 1
	note __, 3
	note B_, 2
	note A_, 2
	note G_, 2
;Bar 19
	note E_, 1
	note __, 3
	note D_, 1
	note __, 3
	note E_, 1
	note __, 3
	note D_, 1
	note __, 3
;Bar 20
	note D_, 1
	note __, 5
	note D_, 1
	note __, 5
	note D_, 1
	note __, 3
;Bar 21
	note E_, 1
	note __, 3
	note E_, 1
	note E_, 2
	note __, 3
	note D_, 1
	note E_, 2
	note __, 3
;Bar 22
	note A_, 1
	note __, 3
	note G_, 1
	note A_, 2
	note __, 3
	note B_, 1
	note A_, 2
	note G_, 1
	note E_, 3
;Bar 23
	note __, 3
	note D_, 1
	note __, 3
	note E_, 1
	note __, 3
	note D_, 1
	note __, 3
;Bar 24
	note D_, 1
	note __, 5
	note D_, 1
	note __, 5
	note D_, 1
	note __, 1
	note E_, 2
;Bar 25
	note __, 2
	note E_, 2
	note E_, 2
	note __, 2
	note D_, 2
	note E_, 2
	note __, 2
	note A_, 2
;Bar 26
	note __, 2
	note G_, 2
	note A_, 2
	note __, 2
	note B_, 2
	note A_, 2
	note G_, 2
	note E_, 2
;Bar 27
	note __, 2
	note D_, 2
	note __, 2
	note E_, 2
	note __, 2
	note D_, 2
	note __, 2
	note D_, 2
;Bar 28
	note __, 4
	note D_, 2
	note __, 4
	note D_, 2
	note __, 3
;Bar 29
	note E_, 6
	octave 1
	note B_, 4
	octave 1
	note D_, 6
;Bar 30
	octave 1
	note B_, 4
	octave 1
	note E_, 2
	note D_, 10
;Bar 31
	octave 1
	note B_, 6
	note A_, 4
	octave 1
	note D_, 6
;Bar 32
	note F#, 4
	note G_, 2
	note F#, 6
	note D_, 4
;Bar 33
	note E_, 6
	octave 1
	note B_, 4
	octave 1
	note D_, 6
;Bar 34
	octave 1
	note B_, 4
	octave 1
	note E_, 2
	note D_, 10
;Bar 35
	octave 1
	note B_, 6
	note A_, 4
	octave 1
	note D_, 6
;Bar 36
	note F#, 4
	note G_, 2
	note F#, 6
	note D_, 4
	sound_loop 0, .mainloop

Music_UnionCave_Ch2:
	duty_cycle 0
	vibrato 8, 3, 6
	notetype 12, $a6
	octave 3
.mainloop:
	note E_, 2
	note B_, 2
	note __, 2
	note G_, 2
	note A_, 2
	note __, 2
	note F#, 2
	note G_, 2
;Bar 6
	note A_, 2
	note G_, 2
	note __, 2
	note F#, 2
	note __, 2
	note D_, 2
	note __, 4
;Bar 7
	note E_, 2
	note B_, 2
	note __, 2
	note G_, 2
	note A_, 2
	note __, 2
	note B_, 2
	octave 4
	note D_, 2
;Bar 8
	note E_, 2
	note D_, 2
	note __, 2
	octave 3
	note B_, 2
	note __, 2
	octave 4
	note D_, 2
	note __, 4
;Bar 9
	octave 3
	note E_, 2
	note B_, 2
	note __, 2
	note G_, 2
	note A_, 2
	note __, 2
	note F#, 2
	note G_, 2
;Bar 10
	note A_, 2
	note G_, 2
	note __, 2
	note F#, 2
	note __, 2
	note D_, 2
	note __, 4
;Bar 11
	note E_, 2
	note B_, 2
	note __, 2
	note G_, 2
	note A_, 2
	note __, 2
	note B_, 2
	octave 4
	note D_, 2
;Bar 12
	octave 3
	note A_, 2
	note G_, 2
	note __, 2
	note E_, 2
	note __, 2
	note D_, 2
	note __, 4
;Bar 13
	note E_, 6
	note E_, 6
	note E_, 4
;Bar 14
	note A_, 6
	note A_, 4
	note B_, 2
	note A_, 2
	note G_, 2
;Bar 15
	note E_, 16
;Bar 16
	note D_, 6
	note D_, 6
	note D_, 4
;Bar 17
	note E_, 2
	note B_, 2
	note G_, 2
	octave 4
	note E_, 2
	octave 3
	note B_, 2
	note G_, 2
	note E_, 2
	octave 2
	note B_, 2
;Bar 18
	octave 3
	note D_, 2
	note A_, 2
	note F#, 2
	octave 4
	note D_, 2
	octave 3
	note A_, 2
	note F#, 2
	note D_, 2
	octave 2
	note A_, 2
;Bar 19
	octave 3
	note E_, 2
	note B_, 2
	note G_, 2
	octave 4
	note E_, 2
	octave 3
	note B_, 2
	note G_, 2
	note E_, 2
	octave 2
	note B_, 2
;Bar 20
	octave 4
	note F#, 2
	note G_, 2
	note F#, 2
	note D_, 2
	note E_, 2
	note D_, 2
	note E_, 2
	note D_, 2
;Bar 21
	octave 3
	note E_, 2
	note B_, 2
	note G_, 2
	octave 4
	note E_, 2
	octave 3
	note B_, 2
	note G_, 2
	note E_, 2
	octave 2
	note B_, 2
;Bar 22
	octave 3
	note D_, 2
	note A_, 2
	note F#, 2
	octave 4
	note D_, 2
	octave 3
	note A_, 2
	note F#, 2
	note D_, 2
	octave 2
	note A_, 2
;Bar 23
	octave 3
	note E_, 2
	note B_, 2
	note G_, 2
	octave 4
	note E_, 2
	octave 3
	note B_, 2
	note G_, 2
	note E_, 2
	octave 2
	note B_, 2
;Bar 24
	octave 4
	note F#, 2
	note G_, 2
	note F#, 2
	note D_, 2
	note E_, 2
	note D_, 2
	note E_, 2
	note D_, 2
;Bar 25
	octave 3
	note E_, 6
	note E_, 6
	note E_, 4
;Bar 26
	note A_, 6
	note A_, 4
	note B_, 2
	note A_, 2
	note G_, 2
;Bar 27
	note E_, 16
;Bar 28
	note D_, 6
	note D_, 6
	note D_, 4
;Bar 29
	note E_, 1
	note E_, 1
	note __, 1
	note E_, 1
	note E_, 1
	note __, 1
	note E_, 1
	note E_, 1
	note __, 1
	note E_, 1
	note E_, 1
	note __, 1
	note F#, 1
	note __, 1
	note D_, 1
	note __, 1
;Bar 30
	note F#, 1
	note F#, 1
	note __, 1
	note F#, 1
	note F#, 1
	note __, 1
	note F#, 1
	note F#, 1
	note __, 1
	note F#, 1
	note F#, 1
	note __, 1
	note G_, 1
	note __, 1
	note E_, 1
	note __, 1
;Bar 31
	note B_, 1
	note B_, 1
	note __, 1
	note B_, 1
	note B_, 1
	note __, 1
	note B_, 1
	note B_, 1
	note __, 1
	note B_, 1
	note B_, 1
	note __, 1
	note A_, 1
	note __, 1
	note G_, 1
	note __, 1
;Bar 32
	note A_, 1
	note A_, 1
	note __, 1
	note A_, 1
	note A_, 1
	note __, 1
	note A_, 1
	note A_, 1
	note __, 1
	note A_, 1
	note A_, 1
	note __, 1
	note G_, 1
	note __, 1
	note E_, 1
	note __, 1
;Bar 33
	note E_, 1
	note E_, 1
	note __, 1
	note E_, 1
	note E_, 1
	note __, 1
	note E_, 1
	note E_, 1
	note __, 1
	note E_, 1
	note E_, 1
	note __, 1
	note F#, 1
	note __, 1
	note D_, 1
	note __, 1
;Bar 34
	note F#, 1
	note F#, 1
	note __, 1
	note F#, 1
	note F#, 1
	note __, 1
	note F#, 1
	note F#, 1
	note __, 1
	note F#, 1
	note F#, 1
	note __, 1
	note G_, 1
	note __, 1
	note E_, 1
	note __, 1
;Bar 35
	note B_, 1
	note B_, 1
	note __, 1
	note B_, 1
	note B_, 1
	note __, 1
	note B_, 1
	note B_, 1
	note __, 1
	note B_, 1
	note B_, 1
	note __, 1
	note A_, 1
	note __, 1
	note G_, 1
	note __, 1
;Bar 36
	note A_, 1
	note A_, 1
	note __, 1
	note A_, 1
	note A_, 1
	note __, 1
	note A_, 1
	note A_, 1
	note __, 1
	note A_, 1
	note A_, 1
	note __, 1
	note G_, 1
	note __, 1
	note E_, 2
	sound_loop 0, .mainloop


Music_UnionCave_Ch3:
	note_type 12, 1, -1
	octave 2
.mainloop:
	note E_, 2
	note __, 2
	octave 2 ;WARNING: octave 1 isn't supported, won't work correctly
	note E_, 2
	octave 2
	note E_, 2
	note __, 2
	note E_, 2
	octave 2 ;WARNING: octave 1 isn't supported, won't work correctly
	note E_, 2
	octave 2
	note E_, 2
;Bar 6
	note D_, 2
	note __, 2
	octave 2 ;WARNING: octave 1 isn't supported, won't work correctly
	note D_, 2
	octave 2
	note D_, 2
	note __, 2
	note D_, 2
	octave 2 ;WARNING: octave 1 isn't supported, won't work correctly
	note D_, 2
	octave 2
	note D_, 2
;Bar 7
	note E_, 2
	note __, 2
	octave 2 ;WARNING: octave 1 isn't supported, won't work correctly
	note E_, 2
	octave 2
	note E_, 2
	note __, 2
	note E_, 2
	octave 2 ;WARNING: octave 1 isn't supported, won't work correctly
	note E_, 2
	octave 2
	note E_, 2
;Bar 8
	note F#, 2
	note __, 2
	octave 2 ;WARNING: octave 1 isn't supported, won't work correctly
	note A_, 2
	octave 1
	note F#, 2
	note __, 2
	note F#, 2
	octave 2 ;WARNING: octave 1 isn't supported, won't work correctly
	note A_, 2
	octave 2
	note F#, 2
	sound_loop 0, .mainloop

Music_UnionCave_Ch4:
	toggle_noise 4
	drum_speed 12
.mainloop:
	drum_note 11, 4
	drum_note 11, 4
	drum_note 11, 4
	drum_note 11, 4
	sound_loop 0, .mainloop
	