Music_VermilionCity:
	channel_count 4
	channel 1, Music_VermilionCity_Ch1
	channel 2, Music_VermilionCity_Ch2
	channel 3, Music_VermilionCity_Ch3
	channel 4, Music_VermilionCity_Ch4

Music_VermilionCity_Ch1:
	tempo 182
	duty_cycle 1
	vibrato 16, 2, 2
	notetype 12, $a7
.mainloop:
	octave 3
	note C#, 10
	note E_, 4
	note B_, 14
;Bar 2
	note __, 4
;Bar 3
	octave 4
	note C#, 6
	octave 3
	note B_, 4
	note G#, 4
	note B_, 4
;Bar 4
	note G#, 4
	note E_, 2
	note F#, 8
;Bar 5
	octave 2
	note G#, 10
	note B_, 4
	octave 3
	note F#, 14
;Bar 6
	note __, 4
;Bar 7
	note G#, 6
	note F#, 4
	note E_, 4
	note F#, 4
;Bar 8
	note E_, 4
	octave 2
	note B_, 2
	octave 3
	note C#, 8
;Bar 9
	note C#, 2
	note __, 1
	note C#, 2
	note __, 1
	note C#, 2
	note __, 2
	note F#, 2
	note D#, 2
	note C#, 2
;Bar 10
	octave 2
	note B_, 2
	note __, 1
	note B_, 2
	note __, 1
	octave 3
	note C#, 5
	note __, 5
;Bar 11
	note C#, 2
	note __, 1
	note C#, 2
	note __, 1
	note C#, 2
	note __, 2
	note F#, 2
	note D#, 2
	note C#, 2
;Bar 12
	octave 2
	note B_, 2
	note __, 1
	note B_, 2
	note __, 1
	octave 3
	note C#, 5
	note __, 5
;Bar 13
	note C#, 1
	note E_, 1
	note __, 1
	note C#, 1
	note __, 2
	octave 2
	note B_, 1
	note __, 1
	octave 3
	note C#, 1
	note E_, 1
	note __, 1
	note C#, 1
	note __, 4
;Bar 14
	note G#, 1
	note F#, 1
	note __, 1
	note G#, 1
	note __, 2
	note B_, 1
	note __, 1
	note G#, 1
	note F#, 1
	note __, 1
	note G#, 1
	note __, 4
;Bar 15
	octave 4
	note C#, 1
	octave 3
	note B_, 1
	note __, 1
	note G#, 1
	note __, 2
	note F#, 1
	note __, 1
	octave 4
	note C#, 1
	octave 3
	note B_, 1
	note __, 1
	note G#, 1
	note __, 2
	note F#, 1
	note __, 1
;Bar 16
	note C#, 1
	note __, 1
	octave 2
	note B_, 1
	note __, 1
	octave 3
	note C#, 1
	note E_, 1
	note __, 1
	note C#, 4
	note __, 5
;Bar 17
	note C#, 1
	note __, 3
	note E_, 1
	note __, 3
	note C#, 1
	note __, 1
	note E_, 1
	note __, 3
	note C#, 1
	note __, 1
;Bar 18
	note F#, 1
	note __, 1
	note G#, 1
	note __, 1
	note B_, 1
	note __, 1
	note G#, 4
	note __, 6
;Bar 19
	octave 4
	note C#, 1
	note __, 1
	octave 3
	note B_, 1
	note __, 1
	note G#, 1
	note __, 1
	note B_, 1
	note __, 1
	note G#, 1
	note __, 1
	note F#, 1
	note __, 1
	note E_, 1
	note __, 1
	note C#, 1
	note __, 1
;Bar 20
	note F#, 1
	note __, 1
	note G#, 1
	note __, 1
	note G#, 1
	note __, 1
	note C#, 4
	note __, 6
;Bar 21
	note C#, 2
	note __, 1
	note C#, 2
	note __, 1
	note C#, 2
	note __, 2
	note F#, 2
	note D#, 2
	note C#, 2
;Bar 22
	octave 2
	note B_, 2
	note __, 1
	note B_, 2
	note __, 1
	octave 3
	note C#, 5
	note __, 5
;Bar 23
	note C#, 2
	note __, 1
	note C#, 2
	note __, 1
	note C#, 2
	note __, 2
	note F#, 2
	note D#, 2
	note C#, 2
;Bar 24
	octave 2
	note B_, 2
	note __, 1
	note B_, 2
	note __, 1
	octave 3
	note C#, 10
	sound_loop 0, .mainloop

Music_VermilionCity_Ch2:
	duty_cycle 0
	transpose 1, 0
	vibrato 28, 1, 2
	notetype 12, $a7
.mainloop:
	octave 2
	note C#, 2
	note F#, 2
	note C#, 2
	note F#, 6
	note C#, 2
	note F#, 4
;Bar 2
	note G#, 2
	octave 3
	note C#, 2
	octave 2
	note G#, 2
	octave 3
	note C#, 2
	octave 2
	note G#, 2
	note F#, 4
;Bar 3
	note C#, 2
	note F#, 2
	note C#, 2
	note F#, 6
	note C#, 2
	note F#, 4
;Bar 4
	note G#, 2
	note B_, 2
	note G#, 2
	note D#, 2
	note B_, 4
	note G#, 2
	sound_loop 0, .mainloop

Music_VermilionCity_Ch3:
	notetype 12, $a6
.mainloop:
	octave 1
	note C#, 1
	note __, 1
	note C#, 1
	note __, 1
	note C#, 1
	note __, 1
	note C#, 1
	note __, 3
	note C#, 1
	note __, 1
	note E_, 1
	note __, 1
	note C#, 1
	note __, 1
;Bar 2
	note F#, 1
	note __, 1
	note G#, 1
	note __, 1
	note E_, 1
	note __, 1
	note F#, 1
	note __, 1
	note C#, 1
	note __, 1
	note C#, 1
	note __, 1
	note C#, 1
	note __, 1
	note C#, 1
	note __, 1
;Bar 3
	note C#, 1
	note __, 1
	note C#, 1
	note __, 1
	note C#, 1
	note __, 1
	note C#, 1
	note __, 3
	note C#, 1
	note __, 1
	note E_, 1
	note __, 1
	note C#, 1
	note __, 1
;Bar 4
	note F#, 1
	note __, 1
	note G#, 1
	note __, 1
	note E_, 1
	note __, 1
	note C#, 1
	note __, 1
	note C#, 1
	note __, 1
	note C#, 1
	note __, 1
	note C#, 1
	note __, 1
	note C#, 2
	sound_loop 0, .mainloop

Music_VermilionCity_Ch4:
	toggle_noise 4
	drum_speed 12
.mainloop:
	drum_note 11, 4
	
	drum_note 3, 3
	drum_note 11, 3
	drum_note 11, 2
	drum_note 3, 4
	drum_note 11, 4
	
	drum_note 3, 3
	drum_note 11, 3
	drum_note 11, 2
	drum_note 3, 2
	drum_note 11, 2
	
	sound_loop 0, .mainloop
