Music_VictoryRoad:
	channel_count 4
	channel 1, Music_VictoryRoad_Ch1
	channel 2, Music_VictoryRoad_Ch2
	channel 3, Music_VictoryRoad_Ch3
	channel 4, Music_VictoryRoad_Ch4
	
Music_VictoryRoad_Ch1:
	tempo 147
	duty_cycle 1
	notetype 12, $a7
	vibrato 1, 4, 4
	octave 4
	note A#, 1
	note G_, 1
	note F_, 1
	note E_, 1
	note D#, 1
	note C_, 1
	octave 3
	note A#, 1
	note A#, 1
	octave 4
	note E_, 1
	note D#, 1
	note C_, 1
	octave 3
	note A#, 1
	note A#, 1
	note G_, 1
	note F_, 1
	note E_, 1
;Bar 2
	octave 4
	note C_, 1
	octave 3
	note A#, 1
	note A#, 1
	note G_, 1
	note F_, 1
	note E_, 1
	note D#, 1
	note C_, 1
	note A#, 1
	note G_, 1
	note F_, 1
	note E_, 1
	note D#, 1
	note C_, 1
	octave 2
	note A#, 1
	note A_, 1
.mainloop:
;Bar 1
	octave 2
	note C_, 4
	note D#, 2
	note G_, 4
	note F_, 4
	note D#, 2
;Bar 2
	note D_, 2
	note D#, 2
	note D_, 4
	octave 1
	note A#, 8
;Bar 3
	octave 2
	note D#, 4
	note G_, 2
	note A#, 4
	note G_, 4
	note F_, 2
;Bar 4
	note D_, 2
	note D#, 2
	note D_, 4
	note C_, 8
;Bar 5
	note C_, 4
	note D#, 2
	note G_, 4
	note F_, 4
	note D#, 2
;Bar 6
	note D_, 2
	note D#, 2
	note D_, 4
	octave 1
	note A#, 8
;Bar 7
	octave 2
	note D_, 4
	note D#, 2
	note F_, 4
	note D#, 4
	note D_, 2
;Bar 8
	note C_, 2
	note D#, 2
	octave 1
	note A#, 4
	octave 2
	note C_, 8
;Bar 9
	octave 3
	note C_, 2
	octave 2
	note G_, 2
	octave 3
	note C_, 2
	octave 2
	note G_, 2
	octave 3
	note C_, 2
	octave 2
	note F_, 2
	note D#, 2
	note A#, 4
;Bar 10
	note A#, 2
	octave 3
	note C_, 2
	octave 2
	note A#, 4
	note G_, 2
	note F_, 2
	note G_, 2
;Bar 11
	octave 3
	note D#, 2
	note D_, 2
	note D#, 2
	note D_, 2
	octave 2
	note A#, 2
	octave 3
	note C_, 2
	note D#, 2
	note D_, 4
;Bar 12
	octave 2
	note A#, 2
	octave 3
	note C_, 2
	note D_, 4
	octave 2
	note A#, 6
;Bar 13
	note C_, 2
	note D_, 4
	note D#, 4
	note D_, 4
	octave 1
	note A#, 6
;Bar 14
	note G_, 4
	note A#, 8
;Bar 15
	octave 2
	note C_, 2
	octave 1
	note A#, 4
	note G_, 4
	note F_, 4
	note A#, 4
;Bar 16
	octave 2
	note C_, 2
	octave 1
	note A#, 4
	note G_, 8
;Bar 17
	octave 2
	note C_, 2
	note D_, 4
	note D#, 4
	note D_, 4
	note F_, 4
;Bar 18
	note D#, 2
	note D_, 2
	octave 1
	note A#, 2
	octave 2
	note D_, 4
	octave 1
	note A#, 4
;Bar 19
	note G_, 2
	note A#, 4
	octave 2
	note C_, 4
	octave 1
	note A#, 4
	octave 2
	note C_, 4
;Bar 20
	octave 1
	note A#, 2
	octave 2
	note C_, 2
	octave 1
	note A#, 2
	octave 2
	note C_, 8
;Bar 21
	octave 3
	note C_, 2
	octave 2
	note G_, 2
	octave 3
	note C_, 2
	octave 2
	note G_, 2
	octave 3
	note C_, 2
	octave 2
	note F_, 2
	note D#, 2
	note A#, 4
;Bar 22
	note A#, 2
	octave 3
	note C_, 2
	octave 2
	note A#, 4
	note G_, 2
	note F_, 2
	note G_, 2
;Bar 23
	octave 3
	note D#, 2
	note D_, 2
	note D#, 2
	note D_, 2
	octave 2
	note A#, 2
	octave 3
	note C_, 2
	note D#, 2
	note D_, 4
;Bar 24
	octave 2
	note A#, 2
	octave 3
	note C_, 2
	note D_, 4
	octave 2
	note A#, 6
	sound_loop 0, .mainloop

Music_VictoryRoad_Ch2:
	duty_cycle 2
	notetype 12, $a7
	vibrato 1, 4, 4
	octave 2
	note A#, 2
	note G_, 2
	note F_, 2
	note E_, 2
	note D#, 2
	note C_, 2
	octave 1
	note A#, 2
	note A#, 2
;Bar 2
	octave 2
	note E_, 2
	note D#, 2
	note C_, 2
	octave 1
	note A#, 2
	note A#, 2
	note G_, 2
	note F_, 2
	note E_, 2

.mainloop:
	octave 3
	note C_, 16
;Bar 2
	octave 2
	note A#, 16
;Bar 3
	note G_, 16
;Bar 4
	octave 3
	note D#, 8
	note D_, 8
;Bar 5
	note C_, 16
;Bar 6
	note D_, 16
;Bar 7
	octave 2
	note A#, 16
;Bar 8
	octave 3
	note C_, 16
;Bar 9
	note C_, 16
;Bar 10
	octave 2
	note A#, 16
;Bar 11
	note G_, 16
;Bar 12
	octave 3
	note D#, 8
	note D_, 8
;Bar 13
	note C_, 16
;Bar 14
	note D_, 16
;Bar 15
	octave 2
	note A#, 16
;Bar 16
	octave 3
	note C_, 16
;Bar 17
	note C_, 16
;Bar 18
	octave 2
	note A#, 16
;Bar 19
	note G_, 16
;Bar 20
	octave 3
	note D#, 8
	note D_, 8
;Bar 21
	note C_, 16
;Bar 22
	note D_, 16
;Bar 23
	octave 2
	note A#, 16
;Bar 24
	octave 3
	note C_, 16
	sound_loop 0, .mainloop


Music_VictoryRoad_Ch3:
	notetype 12, $a6
	octave 1
	note A#, 4
	octave 2
	note A#, 4
	octave 1
	note A#, 4
	octave 2
	note A#, 4
;Bar 2
	octave 1
	note A#, 4
	octave 2
	note A#, 4
	octave 1
	note A#, 4
	octave 2
	note A#, 4

.mainloop:
	octave 2
	note C_, 1
	note __, 1
	note C_, 1
	note C_, 1
	note C_, 1
	note __, 1
	note C_, 1
	note __, 1
	note C_, 1
	note __, 1
	note C_, 1
	note C_, 1
	note C_, 1
	note __, 1
	note C_, 1
	note __, 1
;Bar 2
	note D#, 1
	note __, 1
	note D#, 1
	note D#, 1
	note D#, 1
	note __, 1
	note D#, 1
	note __, 1
	note D#, 1
	note __, 1
	note D#, 1
	note D#, 1
	note D#, 1
	note __, 1
	note D#, 1
	note __, 1
;Bar 3
	note A#, 1
	note __, 1
	note A#, 1
	note A#, 1
	note A#, 1
	note __, 1
	note A#, 1
	note __, 1
	note A#, 1
	note __, 1
	note A#, 1
	note A#, 1
	note A#, 1
	note __, 1
	note A#, 1
	note __, 1
;Bar 4
	note G_, 1
	note __, 1
	note G_, 1
	note G_, 1
	note G_, 1
	note __, 1
	note G_, 1
	note __, 1
	note G_, 1
	note __, 1
	note G_, 1
	note G_, 1
	note G_, 1
	note __, 1
	note G_, 1
	note __, 1
;Bar 5
	note C_, 1
	note __, 1
	note C_, 1
	note C_, 1
	note C_, 1
	note __, 1
	note C_, 1
	note __, 1
	note C_, 1
	note __, 1
	note C_, 1
	note C_, 1
	note C_, 1
	note __, 1
	note C_, 1
	note __, 1
;Bar 6
	note G_, 1
	note __, 1
	note G_, 1
	note G_, 1
	note G_, 1
	note __, 1
	note G_, 1
	note __, 1
	note G_, 1
	note __, 1
	note G_, 1
	note G_, 1
	note G_, 1
	note __, 1
	note G_, 1
	note __, 1
;Bar 7
	note D#, 1
	note __, 1
	note D#, 1
	note D#, 1
	note D#, 1
	note __, 1
	note D#, 1
	note __, 1
	note D#, 1
	note __, 1
	note D#, 1
	note D#, 1
	note D#, 1
	note __, 1
	note D#, 1
	note __, 1
;Bar 8
	octave 2 ;WARNING: Octave 0 isn't supported, won't work correctly
	note A#, 1
	note __, 1
	note A#, 1
	note A#, 1
	note A#, 1
	note __, 1
	note A#, 1
	note __, 1
	note A#, 1
	note __, 1
	note A#, 1
	note A#, 1
	note A#, 1
	note __, 1
	note A#, 1
	note __, 1
;Bar 9
	octave 2
	note C_, 1
	note __, 1
	note C_, 1
	note C_, 1
	note C_, 1
	note __, 1
	note C_, 1
	note __, 1
	note C_, 1
	note __, 1
	note C_, 1
	note C_, 1
	note C_, 1
	note __, 1
	note C_, 1
	note __, 1
;Bar 10
	note D#, 1
	note __, 1
	note D#, 1
	note D#, 1
	note D#, 1
	note __, 1
	note D#, 1
	note __, 1
	note D#, 1
	note __, 1
	note D#, 1
	note D#, 1
	note D#, 1
	note __, 1
	note D#, 1
	note __, 1
;Bar 11
	note A#, 1
	note __, 1
	note A#, 1
	note A#, 1
	note A#, 1
	note __, 1
	note A#, 1
	note __, 1
	note A#, 1
	note __, 1
	note A#, 1
	note A#, 1
	note A#, 1
	note __, 1
	note A#, 1
	note __, 1
;Bar 12
	note G_, 1
	note __, 1
	note G_, 1
	note G_, 1
	note G_, 1
	note __, 1
	note G_, 1
	note __, 1
	note G_, 1
	note __, 1
	note G_, 1
	note G_, 1
	note G_, 1
	note __, 1
	note G_, 1
	note __, 1
;Bar 13
	note C_, 1
	note __, 1
	note C_, 1
	note C_, 1
	note C_, 1
	note __, 1
	note C_, 1
	note __, 1
	note C_, 1
	note __, 1
	note C_, 1
	note C_, 1
	note C_, 1
	note __, 1
	note C_, 1
	note __, 1
;Bar 14
	note G_, 1
	note __, 1
	note G_, 1
	note G_, 1
	note G_, 1
	note __, 1
	note G_, 1
	note __, 1
	note G_, 1
	note __, 1
	note G_, 1
	note G_, 1
	note G_, 1
	note __, 1
	note G_, 1
	note __, 1
;Bar 15
	note D#, 1
	note __, 1
	note D#, 1
	note D#, 1
	note D#, 1
	note __, 1
	note D#, 1
	note __, 1
	note D#, 1
	note __, 1
	note D#, 1
	note D#, 1
	note D#, 1
	note __, 1
	note D#, 1
	note __, 1
;Bar 16
	octave 2 ;WARNING: Octave 0 isn't supported, won't work correctly
	note A#, 1
	note __, 1
	note A#, 1
	note A#, 1
	note A#, 1
	note __, 1
	note A#, 1
	note __, 1
	note A#, 1
	note __, 1
	note A#, 1
	note A#, 1
	note A#, 1
	note __, 1
	note A#, 1
	note __, 1
;Bar 17
	octave 2
	note C_, 1
	note __, 1
	note C_, 1
	note C_, 1
	note C_, 1
	note __, 1
	note C_, 1
	note __, 1
	note C_, 1
	note __, 1
	note C_, 1
	note C_, 1
	note C_, 1
	note __, 1
	note C_, 1
	note __, 1
;Bar 18
	note D#, 1
	note __, 1
	note D#, 1
	note D#, 1
	note D#, 1
	note __, 1
	note D#, 1
	note __, 1
	note D#, 1
	note __, 1
	note D#, 1
	note D#, 1
	note D#, 1
	note __, 1
	note D#, 1
	note __, 1
;Bar 19
	note A#, 1
	note __, 1
	note A#, 1
	note A#, 1
	note A#, 1
	note __, 1
	note A#, 1
	note __, 1
	note A#, 1
	note __, 1
	note A#, 1
	note A#, 1
	note A#, 1
	note __, 1
	note A#, 1
	note __, 1
;Bar 20
	note G_, 1
	note __, 1
	note G_, 1
	note G_, 1
	note G_, 1
	note __, 1
	note G_, 1
	note __, 1
	note G_, 1
	note __, 1
	note G_, 1
	note G_, 1
	note G_, 1
	note __, 1
	note G_, 1
	note __, 1
;Bar 21
	note C_, 1
	note __, 1
	note C_, 1
	note C_, 1
	note C_, 1
	note __, 1
	note C_, 1
	note __, 1
	note C_, 1
	note __, 1
	note C_, 1
	note C_, 1
	note C_, 1
	note __, 1
	note C_, 1
	note __, 1
;Bar 22
	note G_, 1
	note __, 1
	note G_, 1
	note G_, 1
	note G_, 1
	note __, 1
	note G_, 1
	note __, 1
	note G_, 1
	note __, 1
	note G_, 1
	note G_, 1
	note G_, 1
	note __, 1
	note G_, 1
	note __, 1
;Bar 23
	note D#, 1
	note __, 1
	note D#, 1
	note D#, 1
	note D#, 1
	note __, 1
	note D#, 1
	note __, 1
	note D#, 1
	note __, 1
	note D#, 1
	note D#, 1
	note D#, 1
	note __, 1
	note D#, 1
	note __, 1
;Bar 24
	octave 2 ;WARNING: Octave 0 isn't supported, won't work correctly
	note A#, 1
	note __, 1
	note A#, 1
	note A#, 1
	note A#, 1
	note __, 1
	note A#, 1
	note __, 1
	note A#, 1
	note __, 1
	note A#, 1
	note A#, 1
	note A#, 1
	note __, 1
	note A#, 2
	sound_loop 0, .mainloop

Music_VictoryRoad_Ch4:
	toggle_noise 4
	drum_speed 12
	volume $77
.mainloop:
	drum_note 11, 2
	drum_note 8, 2
	drum_note 3, 2
	drum_note 8, 2
	sound_loop 0, .mainloop
