Music_VioletCity:
	channel_count 4
	channel 1, Music_VioletCity_Ch1
	channel 2, Music_VioletCity_Ch2
	channel 3, Music_VioletCity_Ch3
	channel 4, Music_VioletCity_Ch4

Music_VioletCity_Ch1:
	tempo 202
	volume $77
	duty_cycle 0
	notetype 12, $a7
;Bar 1
.mainloop:
	octave 4
	note D_, 2
	note C#, 2
	note __, 2
	octave 3
	note B_, 2
	note __, 4
	octave 4
	note C#, 2
	note __, 6
;Bar 2
	note E_, 4
	note F#, 8
;Bar 3
	note E_, 2
	note C#, 2
	note __, 2
	octave 3
	note B_, 2
	note __, 4
	octave 4
	note C#, 2
	note __, 2
;Bar 4
	octave 3
	note G_, 12
	note __, 4
;Bar 5
	octave 4
	note D_, 2
	note C#, 2
	note __, 2
	octave 3
	note B_, 2
	note __, 4
	octave 4
	note C#, 2
	note __, 6
;Bar 6
	note E_, 4
	note F#, 8
;Bar 7
	note E_, 2
	note C#, 2
	note __, 2
	octave 3
	note B_, 2
	note __, 4
	octave 4
	note C#, 2
	note __, 2
;Bar 8
	octave 3
	note A_, 12
	note __, 4
;Bar 9
	octave 4
	note D_, 1
	note C#, 1
	note __, 1
	octave 3
	note B_, 1
	note __, 2
	octave 4
	note C#, 1
	note __, 3
	octave 3
	note G_, 4
	note __, 2
;Bar 10
	octave 4
	note D_, 1
	note C#, 1
	note __, 1
	octave 3
	note B_, 1
	note __, 2
	octave 4
	note C#, 5
	note __, 5
;Bar 11
	note D_, 1
	note C#, 1
	note __, 1
	octave 3
	note B_, 1
	note __, 2
	octave 4
	note C#, 1
	note __, 3
	octave 3
	note G_, 4
	note __, 2
;Bar 12
	octave 4
	note D_, 1
	note C#, 1
	note __, 1
	octave 3
	note B_, 1
	note __, 2
	octave 4
	note F#, 2
	note E_, 8
	sound_loop 0, .mainloop

Music_VioletCity_Ch2:
	duty_cycle 0
	notetype 12, $a7
	volume $22
.mainloop:
	octave 2
	note D_, 1
	note __, 2
	note D_, 1
	note __, 2
	note D_, 1
	note __, 1
	note F#, 1
	note E_, 1
	note __, 1
	note C#, 1
	note __, 2
	note E_, 1
	note __, 1
;Bar 2
	note G_, 1
	note __, 2
	note G_, 1
	note __, 2
	note G_, 1
	note __, 1
	note B_, 1
	note A_, 1
	note __, 1
	note F#, 1
	note __, 2
	note A_, 1
	note __, 1
;Bar 3
	note D_, 1
	note __, 2
	note D_, 1
	note __, 2
	note D_, 1
	note __, 1
	note F#, 1
	note E_, 1
	note __, 1
	note C#, 1
	note __, 2
	note E_, 1
	note __, 1
;Bar 4
	octave 2
	note A_, 1
	note __, 2
	note A_, 1
	note __, 2
	note A_, 1
	note __, 1
	octave 2
	note C#, 1
	octave 2
	note B_, 1
	note __, 1
	note G#, 1
	note __, 2
	note B_, 1
	note __, 1
;Bar 5
	octave 2
	note D_, 1
	note __, 2
	note D_, 1
	note __, 2
	note D_, 1
	note __, 1
	note F#, 1
	note E_, 1
	note __, 1
	note C#, 1
	note __, 2
	note E_, 1
	note __, 1
;Bar 6
	note G_, 1
	note __, 2
	note G_, 1
	note __, 2
	note G_, 1
	note __, 1
	note B_, 1
	note A_, 1
	note __, 1
	note F#, 1
	note __, 2
	note A_, 1
	note __, 1
;Bar 7
	note D_, 1
	note __, 2
	note D_, 1
	note __, 2
	note D_, 1
	note __, 1
	note F#, 1
	note E_, 1
	note __, 1
	note C#, 1
	note __, 2
	note E_, 1
	note __, 1
;Bar 8
	octave 2
	note A_, 1
	note __, 2
	note A_, 1
	note __, 2
	note A_, 1
	note __, 1
	octave 2
	note C#, 1
	octave 2
	note B_, 1
	note __, 1
	note G#, 1
	note __, 2
	note B_, 1
	note __, 1
;Bar 9
	octave 2
	note D_, 1
	note __, 2
	note D_, 1
	note __, 2
	note D_, 1
	note __, 1
	note F#, 1
	note E_, 1
	note __, 1
	note C#, 1
	note __, 2
	note E_, 1
	note __, 1
;Bar 10
	note G_, 1
	note __, 2
	note G_, 1
	note __, 2
	note G_, 1
	note __, 1
	note B_, 1
	note A_, 1
	note __, 1
	note F#, 1
	note __, 2
	note A_, 1
	note __, 1
;Bar 11
	note D_, 1
	note __, 2
	note D_, 1
	note __, 2
	note D_, 1
	note __, 1
	note F#, 1
	note E_, 1
	note __, 1
	note C#, 1
	note __, 2
	note E_, 1
	note __, 1
;Bar 12
	octave 2
	note A_, 1
	note __, 2
	note A_, 1
	note __, 2
	note A_, 1
	note __, 1
	octave 2
	note C#, 1
	octave 2
	note B_, 1
	note __, 1
	note G#, 1
	note __, 2
	note B_, 2
	sound_loop 0, .mainloop

Music_VioletCity_Ch3:
	note_type 12, 1, 4
	volume 1, 1
.mainloop:
	octave 2
	note D_, 4
	note __, 2
	octave 1
	note A_, 4
	note F#, 2
	note D_, 4
;Bar 2
	note G_, 4
	note __, 2
	note D_, 4
	octave 1 ;WARNING: Octave 0 isn't supported, won't work correctly
	note B_, 2
	note G_, 4
;Bar 3
	octave 1
	note F#, 4
	note __, 2
	note C#, 4
	octave 1 ;WARNING: Octave 0 isn't supported, won't work correctly
	note A_, 2
	note F#, 4
;Bar 4
	octave 1
	note A_, 4
	note __, 2
	note E_, 4
	note C#, 2
	octave 1 ;WARNING: Octave 0 isn't supported, won't work correctly
	note A_, 4
;Bar 5
	octave 2
	note D_, 4
	note __, 2
	octave 1
	note A_, 4
	note F#, 2
	note D_, 4
;Bar 6
	note G_, 4
	note __, 2
	note D_, 4
	octave 1 ;WARNING: Octave 0 isn't supported, won't work correctly
	note B_, 2
	note G_, 4
;Bar 7
	octave 1
	note F#, 4
	note __, 2
	note C#, 4
	octave 1 ;WARNING: Octave 0 isn't supported, won't work correctly
	note A_, 2
	note F#, 4
;Bar 8
	octave 1
	note A_, 4
	note __, 2
	note E_, 4
	note C#, 2
	octave 1 ;WARNING: Octave 0 isn't supported, won't work correctly
	note A_, 4
;Bar 9
	octave 2
	note D_, 4
	note __, 2
	octave 1
	note A_, 4
	note F#, 2
	note D_, 4
;Bar 10
	note G_, 4
	note __, 2
	note D_, 4
	octave 1 ;WARNING: Octave 0 isn't supported, won't work correctly
	note B_, 2
	note G_, 4
;Bar 11
	octave 1
	note F#, 4
	note __, 2
	note C#, 4
	octave 1 ;WARNING: Octave 0 isn't supported, won't work correctly
	note A_, 2
	note F#, 4
;Bar 12
	octave 1
	note A_, 4
	note __, 2
	note E_, 4
	note C#, 2
	octave 1 ;WARNING: Octave 0 isn't supported, won't work correctly
	note A_, 4
	sound_loop 0, .mainloop


Music_VioletCity_Ch4:
	toggle_noise 4
	drum_speed 12
	volume $77
.mainloop:
	drum_note 11, 2
	drum_note 8, 2
	drum_note 3, 2
	drum_note 8, 2
	sound_loop 0, .mainloop
